G04*
G04 #@! TF.GenerationSoftware,Altium Limited,Altium Designer,18.1.7 (191)*
G04*
G04 Layer_Color=32896*
%FSLAX43Y43*%
%MOMM*%
G71*
G01*
G75*
%ADD32C,0.500*%
%ADD33C,0.200*%
%ADD55C,0.250*%
%ADD57C,0.203*%
%ADD58C,0.100*%
%ADD59C,0.127*%
D32*
X51155Y58365D02*
X51150Y58370D01*
X51155Y58375D01*
X51160Y58370D01*
X51155Y58365D01*
X17895Y41235D02*
X17900Y41230D01*
X17895Y41225D01*
X17890Y41230D01*
X17895Y41235D01*
D33*
X51950Y14550D02*
G03*
X51950Y14300I0J-125D01*
G01*
Y13785D02*
X49450D01*
Y15065D02*
Y13785D01*
X51950Y15065D02*
X49450D01*
X51950D02*
Y14550D01*
Y14300D02*
Y13785D01*
X22423Y38775D02*
G03*
X21947Y38775I-237J0D01*
G01*
X22205D01*
X22165D02*
X22423D01*
X14725Y29925D02*
X15030D01*
X16520D02*
X16825D01*
X14725Y32325D02*
X15030D01*
X16520D02*
X16825D01*
X14750Y32925D02*
X15055D01*
X16545D02*
X16850D01*
X14750Y35325D02*
X15055D01*
X16545D02*
X16850D01*
X14750Y35900D02*
X15055D01*
X16545D02*
X16850D01*
X14750Y38300D02*
X15055D01*
X16545D02*
X16850D01*
X27875Y43500D02*
Y43850D01*
X27525D02*
X27875D01*
X24575D02*
X24925D01*
X24575Y43500D02*
Y43850D01*
X27875Y40550D02*
Y40900D01*
X27525Y40550D02*
X27875D01*
X24575D02*
Y40900D01*
Y40550D02*
X24925D01*
D55*
X27850Y39900D02*
G03*
X27850Y39900I-125J0D01*
G01*
D57*
X51747Y65018D02*
G03*
X51747Y65018I-76J0D01*
G01*
D58*
X17275Y32325D02*
G03*
X17275Y32325I-50J0D01*
G01*
X17300Y35325D02*
G03*
X17300Y35325I-50J0D01*
G01*
Y38300D02*
G03*
X17300Y38300I-50J0D01*
G01*
D59*
X53306Y12977D02*
Y12673D01*
X52494Y12977D02*
Y12673D01*
X53376Y16028D02*
X52424D01*
X53376Y15672D02*
X52424D01*
X48976Y15878D02*
X48024D01*
X48976Y15522D02*
X48024D01*
X52894Y57875D02*
X53656D01*
Y60775D01*
X52894D02*
X53656D01*
X52894Y57875D02*
Y60775D01*
X15394Y41725D02*
X16156D01*
X15394Y38825D02*
Y41725D01*
Y38825D02*
X16156D01*
Y41725D01*
X51894Y55973D02*
Y56277D01*
X52706Y55973D02*
Y56277D01*
X52025Y61300D02*
Y63000D01*
X52225Y61300D02*
Y63000D01*
X51475Y61300D02*
X54375D01*
X51475Y63000D02*
X54373D01*
X52125Y61300D02*
Y63000D01*
X51175D02*
X51475D01*
X51175D02*
X51475Y62850D01*
X51175Y63000D02*
X51475Y63150D01*
Y62850D02*
Y63150D01*
X51175Y62850D02*
Y63150D01*
X51535Y63419D02*
X51840D01*
X51535Y64231D02*
X51840D01*
X24147Y37349D02*
Y38301D01*
X24503Y37349D02*
Y38301D01*
X25667Y38749D02*
Y39701D01*
X26023Y38749D02*
Y39701D01*
X15698Y42044D02*
X16002D01*
X15698Y42856D02*
X16002D01*
X18174Y39972D02*
X19126D01*
X18174Y40328D02*
X19126D01*
X19706Y37023D02*
Y37327D01*
X18894Y37023D02*
Y37327D01*
X17494Y37023D02*
Y37327D01*
X18306Y37023D02*
Y37327D01*
X20224Y36997D02*
X21176D01*
X20224Y37353D02*
X21176D01*
X19706Y31023D02*
Y31327D01*
X18894Y31023D02*
Y31327D01*
X20224Y30997D02*
X21176D01*
X20224Y31353D02*
X21176D01*
X17494Y31023D02*
Y31327D01*
X18306Y31023D02*
Y31327D01*
X20224Y33997D02*
X21176D01*
X20224Y34353D02*
X21176D01*
X17494Y34023D02*
Y34327D01*
X18306Y34023D02*
Y34327D01*
X19706Y34023D02*
Y34327D01*
X18894Y34023D02*
Y34327D01*
X13049Y31278D02*
X14001D01*
X13049Y30922D02*
X14001D01*
X13049Y34278D02*
X14001D01*
X13049Y33922D02*
X14001D01*
X13049Y37278D02*
X14001D01*
X13049Y36922D02*
X14001D01*
X19548Y55117D02*
X19852D01*
X19548Y54305D02*
X19852D01*
X29596Y54765D02*
Y55069D01*
X30409Y54765D02*
Y55069D01*
X22406Y53748D02*
Y54052D01*
X21594Y53748D02*
Y54052D01*
X19548Y53429D02*
X19852D01*
X19548Y52616D02*
X19852D01*
X30749Y52349D02*
X30949Y52149D01*
X31899D01*
X30899Y52199D02*
X31074Y52024D01*
X31774D02*
X31924Y52174D01*
X31899Y52149D02*
X32099Y52349D01*
Y53249D01*
X30749Y52349D02*
Y53249D01*
Y55249D02*
X32099D01*
Y54149D02*
Y55249D01*
X30749Y54149D02*
Y55249D01*
X31074Y52024D02*
X31774D01*
X28015Y54785D02*
Y55090D01*
X28827Y54785D02*
Y55090D01*
X29048Y53117D02*
X29352D01*
X29048Y52304D02*
X29352D01*
M02*
