M48
;Layer_Color=9474304
;FILE_FORMAT=4:3
METRIC,TZ
;TYPE=PLATED
T1F00S00C0.300
T2F00S00C0.500
T3F00S00C0.800
;TYPE=NON_PLATED
T4F00S00C1.500
T5F00S00C3.000
%
T01
X21225Y6618
X55499Y27499
Y30499
Y33524
X54000Y35000
X50300Y35700
X52400Y39700
X57500Y39000
X58500
X59500
Y38000
X58500
X57500
X47125Y33524
X46199Y32924
X45375Y32250
X44506Y31358
X44000Y31361
X44000Y30850
Y30336
X44517
Y30850
X43481Y30850
Y31361
X43475Y30325
X43300Y27900
X47700Y30000
X47975Y31450
X45200Y34300
X39125Y33475
X39934Y31775
X37174Y30574
X34475Y29950
X33564Y29063
X34200Y26900
X34800Y26300
X34153Y39711
X35200Y40700
X35977Y41851
X37600Y41200
X32250Y40522
X31226Y40126
X28175Y40150
X28688Y40775
X27651Y39476
X26375Y38000
X24360Y36900
X25125Y40375
X24700Y41075
X25719Y41692
X26225Y41689
X26225Y42200
Y42714
X25708
Y42200
X26744Y42200
Y41689
X26750Y42725
X26551Y44626
X25751
X24926Y44476
X21275Y43512
X21000Y40200
X20600Y37900
X20000Y35362
X20700Y32025
X14266Y31100
X14276Y34101
Y37101
X15000Y39000
X16550Y38425
X19175Y41450
X13500Y42500
X13000Y42000
X12500Y41500
X14000Y43000
X32056Y43150
X31575Y43800
X43450Y44000
X45800Y45150
X43000Y47493
X41400Y46812
X47600Y17300
X18500Y13600
X46200Y52800
X49125Y63175
X51975Y64889
X52125Y61000
T02
X14300Y7800
X19250Y9150
X53500Y14500
Y15500
X54500Y16000
Y17000
Y18000
X55500Y18500
Y17500
Y16500
Y15500
Y14500
X54500Y15000
X54600Y20000
Y21000
Y22000
Y23000
X53700Y23500
Y22500
Y21500
Y20500
X55500
Y21500
Y22500
Y23500
X52800Y23000
Y22000
X52889Y19091
X51474Y18999
X51500Y24100
X50500
X49400
X48400
X47000Y24200
Y23200
X46000
Y24200
X45000
Y23200
Y22200
X44000
Y23200
Y24200
X44400Y20600
X43400Y20500
X42400Y20400
X42600Y19400
X43600Y19500
X44600Y19600
X45600Y19700
X45800Y18700
X44800Y18600
X43800Y18500
X42800Y18400
X40800Y18000
X39800Y17900
X38800Y17800
X37800Y17700
X37600Y18700
X38600Y18800
X39600Y18900
X40600Y19000
X40400Y20000
X39400Y19900
X38400Y19800
X37400Y19700
X45400Y20700
X46000Y22200
X47000
X47438Y19103
X48838Y19078
X33625Y46135
X31900Y47700
X31000
X30100
X29200
X28300
Y48700
X29200
X30100
X31000
X31900
X26500Y49000
X25500
Y48000
X26500
X24500Y49000
X23500
X21900Y48400
Y47400
X20900
Y48400
X19900
Y47400
X18900
X17900
Y48400
X18900
X16900
Y47400
X15900
Y48400
X14900
Y47400
X13900
Y48400
X10200Y32925
X13900Y49400
Y50400
X14900
Y49400
X15900
Y50400
X16900
Y49400
X17900
X18900
Y50400
X17900
Y51400
X18900
X19900
X20900
X21900
Y50400
Y49400
X20900
Y50400
X19900
Y49400
X23500Y50000
X24500
X25500
X26500
X28300Y49700
X29200
X30100
X31000
X31900
Y50700
X31000
X30100
X29200
X28300
X24500Y51000
X23500
X16900Y51400
X15900
X14900
X13900
X14000Y52600
X15000
X16000
X17000
Y53600
Y54600
Y55600
X16000
Y54600
Y53600
X15000
Y54600
Y55600
X14000
Y54600
Y53600
X50533Y62125
X56550Y58050
T03
X23555Y34842
X25875Y35875
X25748Y33038
X28068Y34071
X28195Y36908
X30389Y35104
X40659Y33634
X40786Y36471
X43107Y37504
X42980Y34667
X45300Y35700
X45427Y38537
T04
X30936Y37318
X47438Y37462
T05
X3000Y3000
X67000
X3000Y67000
X67000
M30
