G04*
G04 #@! TF.GenerationSoftware,Altium Limited,Altium Designer,18.1.7 (191)*
G04*
G04 Layer_Physical_Order=1*
G04 Layer_Color=255*
%FSLAX43Y43*%
%MOMM*%
G71*
G01*
G75*
G04:AMPARAMS|DCode=10|XSize=0.6mm|YSize=1mm|CornerRadius=0.075mm|HoleSize=0mm|Usage=FLASHONLY|Rotation=90.000|XOffset=0mm|YOffset=0mm|HoleType=Round|Shape=RoundedRectangle|*
%AMROUNDEDRECTD10*
21,1,0.600,0.850,0,0,90.0*
21,1,0.450,1.000,0,0,90.0*
1,1,0.150,0.425,0.225*
1,1,0.150,0.425,-0.225*
1,1,0.150,-0.425,-0.225*
1,1,0.150,-0.425,0.225*
%
%ADD10ROUNDEDRECTD10*%
G04:AMPARAMS|DCode=11|XSize=0.6mm|YSize=1mm|CornerRadius=0.075mm|HoleSize=0mm|Usage=FLASHONLY|Rotation=180.000|XOffset=0mm|YOffset=0mm|HoleType=Round|Shape=RoundedRectangle|*
%AMROUNDEDRECTD11*
21,1,0.600,0.850,0,0,180.0*
21,1,0.450,1.000,0,0,180.0*
1,1,0.150,-0.225,0.425*
1,1,0.150,0.225,0.425*
1,1,0.150,0.225,-0.425*
1,1,0.150,-0.225,-0.425*
%
%ADD11ROUNDEDRECTD11*%
G04:AMPARAMS|DCode=12|XSize=0.4mm|YSize=0.5mm|CornerRadius=0.05mm|HoleSize=0mm|Usage=FLASHONLY|Rotation=187.870|XOffset=0mm|YOffset=0mm|HoleType=Round|Shape=RoundedRectangle|*
%AMROUNDEDRECTD12*
21,1,0.400,0.400,0,0,187.9*
21,1,0.300,0.500,0,0,187.9*
1,1,0.100,-0.176,0.178*
1,1,0.100,0.121,0.219*
1,1,0.100,0.176,-0.178*
1,1,0.100,-0.121,-0.219*
%
%ADD12ROUNDEDRECTD12*%
G04:AMPARAMS|DCode=13|XSize=0.9mm|YSize=0.5mm|CornerRadius=0.063mm|HoleSize=0mm|Usage=FLASHONLY|Rotation=187.870|XOffset=0mm|YOffset=0mm|HoleType=Round|Shape=RoundedRectangle|*
%AMROUNDEDRECTD13*
21,1,0.900,0.375,0,0,187.9*
21,1,0.775,0.500,0,0,187.9*
1,1,0.125,-0.410,0.133*
1,1,0.125,0.358,0.239*
1,1,0.125,0.410,-0.133*
1,1,0.125,-0.358,-0.239*
%
%ADD13ROUNDEDRECTD13*%
%ADD14R,3.000X1.500*%
G04:AMPARAMS|DCode=15|XSize=1.8mm|YSize=1.15mm|CornerRadius=0.144mm|HoleSize=0mm|Usage=FLASHONLY|Rotation=360.000|XOffset=0mm|YOffset=0mm|HoleType=Round|Shape=RoundedRectangle|*
%AMROUNDEDRECTD15*
21,1,1.800,0.863,0,0,360.0*
21,1,1.513,1.150,0,0,360.0*
1,1,0.288,0.756,-0.431*
1,1,0.288,-0.756,-0.431*
1,1,0.288,-0.756,0.431*
1,1,0.288,0.756,0.431*
%
%ADD15ROUNDEDRECTD15*%
%ADD16R,1.000X0.660*%
G04:AMPARAMS|DCode=17|XSize=1mm|YSize=0.66mm|CornerRadius=0.165mm|HoleSize=0mm|Usage=FLASHONLY|Rotation=180.000|XOffset=0mm|YOffset=0mm|HoleType=Round|Shape=RoundedRectangle|*
%AMROUNDEDRECTD17*
21,1,1.000,0.330,0,0,180.0*
21,1,0.670,0.660,0,0,180.0*
1,1,0.330,-0.335,0.165*
1,1,0.330,0.335,0.165*
1,1,0.330,0.335,-0.165*
1,1,0.330,-0.335,-0.165*
%
%ADD17ROUNDEDRECTD17*%
G04:AMPARAMS|DCode=18|XSize=3mm|YSize=4mm|CornerRadius=0mm|HoleSize=0mm|Usage=FLASHONLY|Rotation=277.870|XOffset=0mm|YOffset=0mm|HoleType=Round|Shape=Rectangle|*
%AMROTATEDRECTD18*
4,1,4,-2.187,1.212,1.776,1.760,2.187,-1.212,-1.776,-1.760,-2.187,1.212,0.0*
%
%ADD18ROTATEDRECTD18*%

%ADD19R,3.000X4.000*%
%ADD20R,1.000X1.600*%
G04:AMPARAMS|DCode=21|XSize=0.3mm|YSize=0.45mm|CornerRadius=0.075mm|HoleSize=0mm|Usage=FLASHONLY|Rotation=90.000|XOffset=0mm|YOffset=0mm|HoleType=Round|Shape=RoundedRectangle|*
%AMROUNDEDRECTD21*
21,1,0.300,0.300,0,0,90.0*
21,1,0.150,0.450,0,0,90.0*
1,1,0.150,0.150,0.075*
1,1,0.150,0.150,-0.075*
1,1,0.150,-0.150,-0.075*
1,1,0.150,-0.150,0.075*
%
%ADD21ROUNDEDRECTD21*%
%ADD22R,0.200X0.900*%
%ADD23R,0.900X0.200*%
%ADD24R,1.700X1.700*%
G04:AMPARAMS|DCode=25|XSize=0.8mm|YSize=1mm|CornerRadius=0.1mm|HoleSize=0mm|Usage=FLASHONLY|Rotation=90.000|XOffset=0mm|YOffset=0mm|HoleType=Round|Shape=RoundedRectangle|*
%AMROUNDEDRECTD25*
21,1,0.800,0.800,0,0,90.0*
21,1,0.600,1.000,0,0,90.0*
1,1,0.200,0.400,0.300*
1,1,0.200,0.400,-0.300*
1,1,0.200,-0.400,-0.300*
1,1,0.200,-0.400,0.300*
%
%ADD25ROUNDEDRECTD25*%
G04:AMPARAMS|DCode=26|XSize=1mm|YSize=0.9mm|CornerRadius=0.113mm|HoleSize=0mm|Usage=FLASHONLY|Rotation=360.000|XOffset=0mm|YOffset=0mm|HoleType=Round|Shape=RoundedRectangle|*
%AMROUNDEDRECTD26*
21,1,1.000,0.675,0,0,360.0*
21,1,0.775,0.900,0,0,360.0*
1,1,0.225,0.388,-0.338*
1,1,0.225,-0.388,-0.338*
1,1,0.225,-0.388,0.338*
1,1,0.225,0.388,0.338*
%
%ADD26ROUNDEDRECTD26*%
G04:AMPARAMS|DCode=27|XSize=1mm|YSize=2mm|CornerRadius=0mm|HoleSize=0mm|Usage=FLASHONLY|Rotation=204.000|XOffset=0mm|YOffset=0mm|HoleType=Round|Shape=Rectangle|*
%AMROTATEDRECTD27*
4,1,4,0.050,1.117,0.864,-0.710,-0.050,-1.117,-0.864,0.710,0.050,1.117,0.0*
%
%ADD27ROTATEDRECTD27*%

G04:AMPARAMS|DCode=28|XSize=1mm|YSize=0.9mm|CornerRadius=0.113mm|HoleSize=0mm|Usage=FLASHONLY|Rotation=90.000|XOffset=0mm|YOffset=0mm|HoleType=Round|Shape=RoundedRectangle|*
%AMROUNDEDRECTD28*
21,1,1.000,0.675,0,0,90.0*
21,1,0.775,0.900,0,0,90.0*
1,1,0.225,0.338,0.388*
1,1,0.225,0.338,-0.388*
1,1,0.225,-0.338,-0.388*
1,1,0.225,-0.338,0.388*
%
%ADD28ROUNDEDRECTD28*%
%ADD29C,0.300*%
%ADD30C,0.800*%
%ADD31C,0.600*%
%ADD32C,0.500*%
%ADD33C,0.200*%
G04:AMPARAMS|DCode=34|XSize=1.5mm|YSize=3mm|CornerRadius=0mm|HoleSize=0mm|Usage=FLASHONLY|Rotation=7.870|XOffset=0mm|YOffset=0mm|HoleType=Round|Shape=Rectangle|*
%AMROTATEDRECTD34*
4,1,4,-0.538,-1.589,-0.948,1.383,0.538,1.589,0.948,-1.383,-0.538,-1.589,0.0*
%
%ADD34ROTATEDRECTD34*%

%ADD35R,4.600X4.000*%
G04:AMPARAMS|DCode=36|XSize=4mm|YSize=1.5mm|CornerRadius=0mm|HoleSize=0mm|Usage=FLASHONLY|Rotation=190.000|XOffset=0mm|YOffset=0mm|HoleType=Round|Shape=Rectangle|*
%AMROTATEDRECTD36*
4,1,4,1.839,1.086,2.100,-0.391,-1.839,-1.086,-2.100,0.391,1.839,1.086,0.0*
%
%ADD36ROTATEDRECTD36*%

%ADD37C,1.300*%
%ADD38C,0.600*%
%ADD39C,0.800*%
%ADD40C,0.900*%
G36*
X59432Y65499D02*
X55206Y64754D01*
X55405Y63629D01*
X54360Y62584D01*
X51000D01*
X50997Y62589D01*
X50861Y62693D01*
X50703Y62758D01*
X50533Y62781D01*
X50363Y62758D01*
X50205Y62693D01*
X50070Y62589D01*
X49965Y62453D01*
X49900Y62295D01*
X49877Y62125D01*
X49900Y61955D01*
X49965Y61797D01*
X50070Y61661D01*
X50205Y61557D01*
X50363Y61492D01*
X50533Y61469D01*
X50703Y61492D01*
X50861Y61557D01*
X50997Y61661D01*
X51000Y61666D01*
X54550D01*
X54726Y61701D01*
X54874Y61801D01*
X56047Y62973D01*
X59762Y63628D01*
X60561Y59098D01*
X57041Y58478D01*
X57014Y58514D01*
X56878Y58618D01*
X56720Y58683D01*
X56550Y58706D01*
X56380Y58683D01*
X56222Y58618D01*
X56086Y58514D01*
X55982Y58378D01*
X55917Y58220D01*
X55894Y58050D01*
X55917Y57880D01*
X55982Y57722D01*
X56086Y57586D01*
X56222Y57482D01*
X56380Y57417D01*
X56503Y57401D01*
X56665Y56482D01*
X60891Y57227D01*
X61204Y55447D01*
X61207Y55148D01*
X61160Y54854D01*
X61066Y54571D01*
X60926Y54307D01*
X60744Y54070D01*
X60526Y53867D01*
X60278Y53702D01*
X60141Y53641D01*
X60141Y53641D01*
X51917Y49973D01*
X51887Y49952D01*
X51856Y49931D01*
X51854Y49929D01*
X51852Y49927D01*
X51832Y49896D01*
X51812Y49865D01*
X51811Y49862D01*
X51810Y49860D01*
X51803Y49824D01*
X51796Y49787D01*
Y47182D01*
X38208Y41122D01*
X38151Y41167D01*
X38107Y41216D01*
X38071Y41395D01*
X37960Y41560D01*
X37795Y41671D01*
X37600Y41710D01*
X37405Y41671D01*
X37240Y41560D01*
X37129Y41395D01*
X37090Y41201D01*
X34528Y40050D01*
X34514Y40072D01*
X34348Y40182D01*
X34153Y40221D01*
X33958Y40182D01*
X33793Y40072D01*
X33682Y39906D01*
X33644Y39711D01*
X33654Y39657D01*
X31874Y38857D01*
X30252D01*
X30116Y38830D01*
X30000Y38752D01*
X28776Y37529D01*
X28699Y37602D01*
X28503Y37708D01*
X28285Y37761D01*
X28061Y37755D01*
X27847Y37691D01*
X27656Y37574D01*
X27502Y37412D01*
X27422Y37265D01*
X24713D01*
X24555Y37371D01*
X24360Y37410D01*
X24164Y37371D01*
X23999Y37260D01*
X23889Y37095D01*
X23850Y36900D01*
X23889Y36705D01*
X23999Y36540D01*
X24164Y36429D01*
X24360Y36390D01*
X24555Y36429D01*
X24720Y36540D01*
X24728Y36551D01*
X25170D01*
X25224Y36424D01*
X25181Y36379D01*
X25075Y36182D01*
X25022Y35965D01*
X25028Y35741D01*
X25092Y35526D01*
X25209Y35335D01*
X25371Y35181D01*
X25568Y35075D01*
X25785Y35022D01*
X26009Y35028D01*
X26224Y35092D01*
X26415Y35209D01*
X26569Y35371D01*
X26675Y35568D01*
X26728Y35785D01*
X26722Y36009D01*
X26658Y36224D01*
X26541Y36415D01*
X26521Y36433D01*
X26569Y36551D01*
X27417D01*
X27529Y36369D01*
X27691Y36215D01*
X27888Y36108D01*
X28106Y36055D01*
X28330Y36061D01*
X28544Y36125D01*
X28735Y36242D01*
X28889Y36404D01*
X28996Y36601D01*
X29039Y36782D01*
X29908Y37651D01*
X30015Y37579D01*
X30010Y37566D01*
X30000Y37491D01*
X29983Y37418D01*
X29984Y37368D01*
X29977Y37318D01*
X29987Y37243D01*
X29989Y37168D01*
X30003Y37120D01*
X30010Y37070D01*
X30039Y37001D01*
X30060Y36928D01*
X30086Y36885D01*
X30106Y36839D01*
X30152Y36779D01*
X30191Y36715D01*
X30227Y36680D01*
X30258Y36641D01*
X30318Y36595D01*
X30372Y36543D01*
X30417Y36519D01*
X30456Y36488D01*
X30526Y36459D01*
X30592Y36424D01*
X30641Y36412D01*
X30688Y36393D01*
X30762Y36383D01*
X30835Y36365D01*
X30886Y36366D01*
X30936Y36360D01*
X31010Y36370D01*
X31085Y36372D01*
X31134Y36386D01*
X31184Y36393D01*
X31253Y36421D01*
X31325Y36443D01*
X31368Y36469D01*
X31415Y36488D01*
X31474Y36534D01*
X31539Y36573D01*
X31573Y36610D01*
X31613Y36641D01*
X31659Y36700D01*
X31711Y36755D01*
X31735Y36799D01*
X31765Y36839D01*
X31794Y36909D01*
X31811Y36939D01*
X31924Y36947D01*
X31949Y36939D01*
X32857Y34903D01*
X4732Y22360D01*
X4645Y22321D01*
X4466Y22263D01*
X4331Y22234D01*
X4204Y22312D01*
Y22817D01*
X4435Y22879D01*
X4459Y22891D01*
X4485Y22900D01*
X4711Y23030D01*
X4731Y23048D01*
X4753Y23062D01*
X4938Y23247D01*
X4952Y23269D01*
X4970Y23289D01*
X5100Y23515D01*
X5109Y23541D01*
X5121Y23565D01*
X5188Y23817D01*
X5190Y23843D01*
X5195Y23869D01*
Y24131D01*
X5190Y24157D01*
X5188Y24183D01*
X5121Y24435D01*
X5109Y24459D01*
X5100Y24485D01*
X4970Y24711D01*
X4952Y24731D01*
X4938Y24753D01*
X4753Y24938D01*
X4731Y24952D01*
X4711Y24970D01*
X4485Y25100D01*
X4459Y25109D01*
X4435Y25121D01*
X4204Y25183D01*
X4204Y29673D01*
X4294Y29763D01*
X8993Y29742D01*
X9094Y29741D01*
X9094Y29741D01*
X9094Y29741D01*
X9133Y29749D01*
X9172Y29756D01*
X9172Y29756D01*
X9172Y29756D01*
X9358Y29833D01*
X9358Y29833D01*
X9358Y29833D01*
X9391Y29855D01*
X9424Y29877D01*
X9424Y29877D01*
X9424Y29877D01*
X9567Y30018D01*
X9567Y30019D01*
X9567Y30019D01*
X9589Y30052D01*
X9611Y30085D01*
X9611Y30085D01*
X9611Y30085D01*
X9688Y30270D01*
X9688Y30270D01*
X9688Y30271D01*
X9696Y30310D01*
X9704Y30348D01*
X9704Y30348D01*
X9704Y30349D01*
X9704Y30449D01*
X9704Y32326D01*
X9831Y32389D01*
X9872Y32357D01*
X10030Y32292D01*
X10200Y32269D01*
X10370Y32292D01*
X10528Y32357D01*
X10664Y32461D01*
X10768Y32597D01*
X10833Y32755D01*
X10836Y32779D01*
X10971Y32825D01*
X12948Y30848D01*
X13063Y30770D01*
X13200Y30743D01*
X13903D01*
X13906Y30740D01*
X14071Y30629D01*
X14266Y30590D01*
X14461Y30629D01*
X14627Y30740D01*
X14737Y30905D01*
X14776Y31100D01*
X14737Y31295D01*
X14627Y31460D01*
X14461Y31571D01*
X14266Y31610D01*
X14071Y31571D01*
X13906Y31460D01*
X13903Y31457D01*
X13348D01*
X10907Y33898D01*
Y34623D01*
X11024Y34671D01*
X11847Y33848D01*
X11963Y33771D01*
X12099Y33744D01*
X13913D01*
X13915Y33740D01*
X14081Y33630D01*
X14276Y33591D01*
X14471Y33630D01*
X14636Y33740D01*
X14747Y33906D01*
X14785Y34101D01*
X14747Y34296D01*
X14636Y34461D01*
X14471Y34572D01*
X14276Y34610D01*
X14081Y34572D01*
X13915Y34461D01*
X13913Y34457D01*
X12247D01*
X11407Y35298D01*
Y37123D01*
X11524Y37171D01*
X11847Y36848D01*
X11963Y36771D01*
X12099Y36744D01*
X13913D01*
X13915Y36740D01*
X14081Y36630D01*
X14276Y36591D01*
X14471Y36630D01*
X14636Y36740D01*
X14747Y36906D01*
X14785Y37101D01*
X14747Y37296D01*
X14636Y37461D01*
X14471Y37572D01*
X14276Y37611D01*
X14081Y37572D01*
X13915Y37461D01*
X13913Y37458D01*
X12247D01*
X11907Y37798D01*
Y41900D01*
X14125Y44118D01*
X23152D01*
X24198Y43073D01*
X24313Y42995D01*
X24450Y42968D01*
X25401D01*
X25538Y42995D01*
X25654Y43073D01*
X26503Y43922D01*
X26568Y44019D01*
X26694Y44145D01*
X26746Y44155D01*
X26912Y44266D01*
X27022Y44431D01*
X27061Y44626D01*
X27022Y44821D01*
X26912Y44987D01*
X26746Y45097D01*
X26551Y45136D01*
X26356Y45097D01*
X26191Y44987D01*
X26112D01*
X25946Y45097D01*
X25751Y45136D01*
X25556Y45097D01*
X25391Y44987D01*
X25359Y44939D01*
X25184Y44905D01*
X25121Y44947D01*
X24926Y44986D01*
X24857Y44972D01*
X24156Y45674D01*
X24204Y45791D01*
X33070D01*
X33161Y45671D01*
X33297Y45567D01*
X33455Y45502D01*
X33625Y45479D01*
X33795Y45502D01*
X33953Y45567D01*
X34089Y45671D01*
X34193Y45807D01*
X34258Y45965D01*
X34281Y46135D01*
X34258Y46305D01*
X34193Y46463D01*
X34089Y46599D01*
X34029Y46644D01*
X34072Y46771D01*
X36263D01*
X36299Y46778D01*
X36335Y46784D01*
X36338Y46786D01*
X36341Y46787D01*
X36371Y46807D01*
X36403Y46827D01*
X36404Y46829D01*
X36407Y46831D01*
X36427Y46861D01*
X36449Y46891D01*
X36501Y47008D01*
X36520Y47007D01*
X37560Y47151D01*
X37998Y43985D01*
X39880Y44245D01*
X39443Y47411D01*
X40037Y47493D01*
X40474Y44327D01*
X42357Y44587D01*
X41919Y47753D01*
X42513Y47835D01*
X42533Y47694D01*
X42529Y47688D01*
X42490Y47493D01*
X42529Y47298D01*
X42603Y47187D01*
X42951Y44669D01*
X44833Y44929D01*
X44395Y48095D01*
X45436Y48239D01*
X45511Y48265D01*
X45570Y48318D01*
X45605Y48390D01*
X45610Y48469D01*
X45213Y51338D01*
X45506Y51378D01*
X45582Y51404D01*
X45641Y51457D01*
X45676Y51529D01*
X45680Y51608D01*
X45338Y54085D01*
X45312Y54160D01*
X45259Y54219D01*
X45188Y54254D01*
X45108Y54259D01*
X44904Y54231D01*
X44803Y54307D01*
X44432Y56988D01*
X44406Y57063D01*
X44406Y57063D01*
X44376Y57097D01*
X44353Y57123D01*
X44282Y57157D01*
X44282Y57157D01*
X44202Y57162D01*
X44202Y57162D01*
X42919Y56985D01*
X41867Y64479D01*
X41944Y64580D01*
X56214Y66554D01*
X56307Y66333D01*
X56322Y66311D01*
X56334Y66287D01*
X56495Y66081D01*
X56515Y66063D01*
X56533Y66043D01*
X56741Y65886D01*
X56765Y65874D01*
X56787Y65859D01*
X57029Y65761D01*
X57055Y65756D01*
X57080Y65748D01*
X57339Y65715D01*
X57366Y65717D01*
X57392Y65716D01*
X57651Y65751D01*
X57676Y65760D01*
X57702Y65765D01*
X57943Y65867D01*
X57965Y65882D01*
X57989Y65894D01*
X58195Y66054D01*
X58212Y66074D01*
X58232Y66092D01*
X58390Y66300D01*
X58402Y66324D01*
X58416Y66346D01*
X58515Y66588D01*
X58520Y66614D01*
X58528Y66640D01*
X58558Y66878D01*
X59174Y66963D01*
X59432Y65499D01*
D02*
G37*
G36*
X27500Y51800D02*
Y47200D01*
X22700Y47200D01*
Y51800D01*
X27500Y51800D01*
D02*
G37*
G36*
X35535Y63604D02*
X36571Y56107D01*
X35287Y55930D01*
X35212Y55904D01*
X35152Y55851D01*
X35118Y55779D01*
X35113Y55700D01*
X35496Y52930D01*
X35202Y52890D01*
X35127Y52864D01*
X35068Y52811D01*
X35033Y52739D01*
X35028Y52660D01*
X35371Y50183D01*
X35397Y50108D01*
X35450Y50049D01*
X35521Y50014D01*
X35601Y50009D01*
X35894Y50050D01*
X36290Y47181D01*
X36316Y47106D01*
X36320Y47102D01*
X36263Y46975D01*
X32768D01*
X32652Y47000D01*
Y51400D01*
X27704D01*
Y51800D01*
X27688Y51878D01*
X27644Y51944D01*
X27578Y51988D01*
X27500Y52004D01*
X22700Y52004D01*
X22622Y51988D01*
X22557Y52044D01*
X22531Y52061D01*
X22507Y52081D01*
X22498Y52083D01*
X22491Y52088D01*
X22460Y52094D01*
X22431Y52103D01*
X22422Y52102D01*
X22413Y52104D01*
X18300D01*
X18222Y52088D01*
X18170Y52054D01*
X17913D01*
X17900Y52056D01*
X17887Y52054D01*
X16913D01*
X16900Y52056D01*
X16887Y52054D01*
X15913D01*
X15900Y52056D01*
X15887Y52054D01*
X14913D01*
X14900Y52056D01*
X14887Y52054D01*
X13913D01*
X13900Y52056D01*
X13887Y52054D01*
X13494D01*
X13404Y52144D01*
X13404Y56500D01*
X13404Y56500D01*
X13404Y56500D01*
X13404Y56550D01*
X13396Y56592D01*
X13388Y56628D01*
X13350Y56720D01*
X13327Y56755D01*
X13306Y56786D01*
X13306Y56786D01*
X13306Y56786D01*
X13306Y56786D01*
X13236Y56856D01*
X13197Y56882D01*
X13170Y56900D01*
X13078Y56938D01*
X13034Y56947D01*
X13000Y56954D01*
X12950Y56954D01*
X12950Y56954D01*
X12950Y56954D01*
X4204Y56954D01*
Y58358D01*
X4358Y58392D01*
X4378Y58400D01*
X4399Y58405D01*
X4593Y58493D01*
X4611Y58506D01*
X4631Y58516D01*
X4802Y58643D01*
X4816Y58659D01*
X4833Y58672D01*
X4973Y58833D01*
X4984Y58852D01*
X4998Y58869D01*
X5101Y59056D01*
X5108Y59076D01*
X5118Y59096D01*
X5179Y59300D01*
X5181Y59322D01*
X5187Y59343D01*
X5199Y59500D01*
X35433Y63680D01*
X35535Y63604D01*
D02*
G37*
G36*
X22413Y51900D02*
X22496Y51800D01*
Y47200D01*
X22500Y47180D01*
Y46900D01*
X13404Y46900D01*
X13404Y51850D01*
X18300D01*
Y51900D01*
X22413D01*
D02*
G37*
G36*
X65796Y48688D02*
Y48183D01*
X65565Y48121D01*
X65541Y48109D01*
X65515Y48100D01*
X65289Y47970D01*
X65269Y47952D01*
X65247Y47938D01*
X65062Y47753D01*
X65048Y47731D01*
X65030Y47711D01*
X64900Y47485D01*
X64891Y47459D01*
X64879Y47435D01*
X64812Y47183D01*
X64810Y47157D01*
X64805Y47131D01*
Y46869D01*
X64810Y46843D01*
X64812Y46817D01*
X64879Y46565D01*
X64891Y46541D01*
X64900Y46515D01*
X65030Y46289D01*
X65048Y46269D01*
X65062Y46247D01*
X65247Y46062D01*
X65269Y46048D01*
X65289Y46030D01*
X65515Y45900D01*
X65541Y45891D01*
X65565Y45879D01*
X65796Y45817D01*
X65796Y41254D01*
X61000Y41254D01*
X60901Y41254D01*
X60823Y41238D01*
X60639Y41162D01*
X60639Y41162D01*
X60573Y41118D01*
X60432Y40977D01*
X60388Y40911D01*
X60312Y40727D01*
X60296Y40649D01*
Y40550D01*
X60296Y40550D01*
X60296Y37000D01*
X57100D01*
Y36981D01*
X49592D01*
X49592Y36981D01*
X49475Y36958D01*
X49375Y36891D01*
X47859Y35375D01*
X47859Y35375D01*
X47792Y35275D01*
X47769Y35158D01*
Y33614D01*
X47749Y33602D01*
X47607Y33666D01*
X47596Y33719D01*
X47485Y33885D01*
X47320Y33995D01*
X47125Y34034D01*
X46930Y33995D01*
X46765Y33885D01*
X46728Y33830D01*
X44459D01*
X44459Y33830D01*
X44342Y33807D01*
X44243Y33741D01*
X43784Y33281D01*
X43717Y33182D01*
X43700Y33093D01*
X43586Y33007D01*
X43506Y33024D01*
Y33378D01*
X44146Y34018D01*
X44212Y34117D01*
X44235Y34235D01*
X44235Y34235D01*
Y35060D01*
X44235Y35060D01*
X44212Y35177D01*
X44146Y35277D01*
X43589Y35833D01*
X43589Y35833D01*
X43544Y35863D01*
X43506Y35902D01*
Y36752D01*
X43646Y36838D01*
X43800Y37000D01*
X43907Y37197D01*
X43959Y37414D01*
X43953Y37638D01*
X43890Y37853D01*
X43773Y38043D01*
X43611Y38197D01*
X43414Y38304D01*
X43196Y38356D01*
X42973Y38351D01*
X42758Y38287D01*
X42567Y38170D01*
X42413Y38008D01*
X42306Y37811D01*
X42254Y37593D01*
X42260Y37370D01*
X42323Y37155D01*
X42440Y36964D01*
X42603Y36810D01*
X42799Y36703D01*
X42894Y36681D01*
Y35775D01*
X42894Y35775D01*
X42917Y35658D01*
X42927Y35643D01*
X42861Y35514D01*
X42845Y35514D01*
X42631Y35450D01*
X42440Y35333D01*
X42337Y35225D01*
X42175Y35208D01*
X42056Y35327D01*
Y36851D01*
X42056Y36851D01*
X42033Y36968D01*
X41966Y37067D01*
X41396Y37637D01*
X41297Y37703D01*
X41180Y37727D01*
X41180Y37727D01*
X41102D01*
X41076Y37851D01*
X65268Y48640D01*
X65355Y48679D01*
X65534Y48737D01*
X65669Y48766D01*
X65796Y48688D01*
D02*
G37*
G36*
X55070Y36280D02*
Y35430D01*
X55091Y35322D01*
X55152Y35231D01*
X55243Y35171D01*
X55350Y35149D01*
X55368D01*
Y34900D01*
X55395Y34763D01*
X55465Y34658D01*
X55456Y34616D01*
X55409Y34531D01*
X54925D01*
X54918Y34530D01*
X54775D01*
X54668Y34509D01*
X54577Y34448D01*
X54516Y34357D01*
X54495Y34250D01*
Y34100D01*
X54516Y33992D01*
X54577Y33901D01*
Y33798D01*
X54516Y33707D01*
X54495Y33600D01*
Y33450D01*
X54516Y33342D01*
X54577Y33251D01*
X54668Y33191D01*
X54775Y33169D01*
X54966D01*
X54975Y33167D01*
X55136D01*
X55139Y33164D01*
X55304Y33053D01*
X55499Y33014D01*
X55634Y33041D01*
X55750Y32925D01*
X56750D01*
X56943Y33118D01*
X57075Y33091D01*
X57100D01*
Y32600D01*
X60296D01*
Y32000D01*
X57100D01*
Y31809D01*
X56932D01*
X56932Y31809D01*
X56863Y31913D01*
X56759Y31982D01*
X56638Y32006D01*
X55863D01*
X55741Y31982D01*
X55637Y31913D01*
X55568Y31809D01*
X55544Y31688D01*
Y31506D01*
X55234D01*
X55229Y31507D01*
X54925D01*
X54918Y31505D01*
X54775D01*
X54668Y31484D01*
X54577Y31423D01*
X54516Y31332D01*
X54495Y31225D01*
Y31075D01*
X54516Y30968D01*
X54577Y30877D01*
Y30773D01*
X54516Y30682D01*
X54495Y30575D01*
Y30425D01*
X54516Y30318D01*
X54577Y30227D01*
X54668Y30166D01*
X54775Y30145D01*
X54964D01*
X54976Y30142D01*
X55136D01*
X55139Y30139D01*
X55304Y30028D01*
X55499Y29989D01*
X55634Y30016D01*
X55750Y29900D01*
X56750D01*
X56950Y30100D01*
Y30891D01*
X57100D01*
Y30100D01*
X60296D01*
Y29500D01*
X57100D01*
Y28809D01*
X56932D01*
X56932Y28809D01*
X56863Y28913D01*
X56759Y28982D01*
X56638Y29006D01*
X55863D01*
X55741Y28982D01*
X55637Y28913D01*
X55568Y28809D01*
X55544Y28688D01*
Y28532D01*
X54925D01*
X54918Y28530D01*
X54775D01*
X54668Y28509D01*
X54577Y28448D01*
X54516Y28357D01*
X54495Y28250D01*
Y28100D01*
X54516Y27993D01*
X54577Y27902D01*
Y27798D01*
X54516Y27707D01*
X54495Y27600D01*
Y27450D01*
X54516Y27343D01*
X54577Y27252D01*
X54668Y27191D01*
X54775Y27170D01*
X54918D01*
X54925Y27168D01*
X55119D01*
X55139Y27138D01*
X55304Y27028D01*
X55499Y26989D01*
X55634Y27016D01*
X55750Y26900D01*
X56750D01*
X56950Y27100D01*
Y27891D01*
X57100D01*
Y27600D01*
X57691D01*
Y26601D01*
X57299Y26209D01*
X52324D01*
X52286Y26336D01*
X52288Y26337D01*
X52357Y26441D01*
X52381Y26562D01*
Y27237D01*
X52361Y27336D01*
X52375Y27350D01*
Y27783D01*
X52502Y27797D01*
X52551Y27729D01*
X52563Y27691D01*
X52545Y27600D01*
Y27450D01*
X52566Y27343D01*
X52604Y27286D01*
X52618Y27200D01*
X52604Y27114D01*
X52566Y27057D01*
X52545Y26950D01*
Y26800D01*
X52566Y26693D01*
X52627Y26602D01*
X52718Y26541D01*
X52825Y26520D01*
X53125D01*
X53232Y26541D01*
X53323Y26602D01*
X53384Y26693D01*
X53405Y26800D01*
Y26950D01*
X53384Y27057D01*
X53346Y27114D01*
X53332Y27200D01*
X53346Y27286D01*
X53384Y27343D01*
X53405Y27450D01*
Y27600D01*
X53384Y27707D01*
X53323Y27798D01*
Y27902D01*
X53384Y27993D01*
X53405Y28100D01*
Y28250D01*
X53384Y28357D01*
X53323Y28448D01*
X53232Y28509D01*
X53125Y28530D01*
X52982D01*
X52975Y28532D01*
X52381D01*
Y28938D01*
X52357Y29059D01*
X52288Y29163D01*
X52225Y29204D01*
X52223Y29212D01*
Y29338D01*
X52225Y29346D01*
X52288Y29387D01*
X52357Y29491D01*
X52381Y29612D01*
Y30288D01*
X52361Y30386D01*
X52375Y30400D01*
Y30758D01*
X52502Y30772D01*
X52551Y30704D01*
X52563Y30666D01*
X52545Y30575D01*
Y30425D01*
X52566Y30318D01*
X52604Y30261D01*
X52618Y30175D01*
X52604Y30089D01*
X52566Y30032D01*
X52545Y29925D01*
Y29775D01*
X52566Y29668D01*
X52627Y29577D01*
X52718Y29516D01*
X52825Y29495D01*
X53125D01*
X53232Y29516D01*
X53323Y29577D01*
X53384Y29668D01*
X53405Y29775D01*
Y29925D01*
X53384Y30032D01*
X53346Y30089D01*
X53332Y30175D01*
X53346Y30261D01*
X53384Y30318D01*
X53405Y30425D01*
Y30575D01*
X53384Y30682D01*
X53323Y30773D01*
Y30877D01*
X53384Y30968D01*
X53405Y31075D01*
Y31225D01*
X53384Y31332D01*
X53323Y31423D01*
X53232Y31484D01*
X53125Y31505D01*
X52982D01*
X52975Y31507D01*
X52381D01*
Y31987D01*
X52357Y32109D01*
X52288Y32213D01*
X52272Y32224D01*
Y32376D01*
X52288Y32387D01*
X52357Y32491D01*
X52381Y32612D01*
Y33287D01*
X52361Y33386D01*
X52375Y33400D01*
Y33782D01*
X52502Y33797D01*
X52551Y33729D01*
X52563Y33691D01*
X52545Y33600D01*
Y33450D01*
X52566Y33342D01*
X52604Y33285D01*
X52618Y33200D01*
X52604Y33114D01*
X52566Y33057D01*
X52545Y32950D01*
Y32800D01*
X52566Y32692D01*
X52627Y32601D01*
X52718Y32541D01*
X52825Y32519D01*
X53125D01*
X53232Y32541D01*
X53323Y32601D01*
X53384Y32692D01*
X53405Y32800D01*
Y32950D01*
X53384Y33057D01*
X53346Y33114D01*
X53332Y33200D01*
X53346Y33285D01*
X53384Y33342D01*
X53405Y33450D01*
Y33600D01*
X53384Y33707D01*
X53323Y33798D01*
Y33901D01*
X53384Y33992D01*
X53405Y34100D01*
Y34250D01*
X53384Y34357D01*
X53323Y34448D01*
X53232Y34509D01*
X53125Y34530D01*
X52982D01*
X52975Y34531D01*
X52381D01*
Y34987D01*
X52357Y35109D01*
X52288Y35213D01*
X52184Y35282D01*
X52063Y35306D01*
X51288D01*
X51166Y35282D01*
X51062Y35213D01*
X50993Y35109D01*
X50969Y34987D01*
Y34386D01*
X50842Y34333D01*
X50775Y34400D01*
X49775D01*
X49575Y34200D01*
X49375Y34400D01*
X48381D01*
Y35032D01*
X49718Y36369D01*
X54996D01*
X55070Y36280D01*
D02*
G37*
G36*
X49662Y32387D02*
X49766Y32318D01*
X49888Y32294D01*
X50662D01*
X50784Y32318D01*
X50888Y32387D01*
X51009Y32357D01*
X51032Y32334D01*
X51062Y32213D01*
X50993Y32109D01*
X50969Y31987D01*
Y31386D01*
X50842Y31333D01*
X50775Y31400D01*
X49775D01*
X49575Y31200D01*
X49375Y31400D01*
X48375D01*
X48175Y31200D01*
X48048Y31141D01*
X47975Y31156D01*
X47017D01*
X46968Y31273D01*
X48020Y32325D01*
X48355D01*
X48366Y32318D01*
X48488Y32294D01*
X49263D01*
X49384Y32318D01*
X49488Y32387D01*
X49499Y32403D01*
X49651D01*
X49662Y32387D01*
D02*
G37*
G36*
X39603Y37055D02*
X39554Y36981D01*
X39530Y36864D01*
X39530Y36864D01*
Y35901D01*
X39554Y35784D01*
X39620Y35685D01*
X40693Y34612D01*
X40642Y34484D01*
X40525Y34481D01*
X40310Y34417D01*
X40120Y34300D01*
X39966Y34138D01*
X39859Y33941D01*
X39807Y33723D01*
X39812Y33500D01*
X39876Y33285D01*
X39993Y33094D01*
X40155Y32940D01*
X40352Y32833D01*
X40570Y32781D01*
X40793Y32787D01*
X40921Y32825D01*
X41044Y32729D01*
Y31285D01*
X41067Y31168D01*
X41134Y31069D01*
X41134Y31069D01*
X41329Y30873D01*
X41281Y30756D01*
X40650D01*
X40650Y30756D01*
X40533Y30733D01*
X40434Y30666D01*
X39731Y29964D01*
X37685D01*
X37659Y30088D01*
X38053Y30263D01*
X37159Y32271D01*
X38382Y32817D01*
X38382Y32817D01*
X38447Y32863D01*
X38489Y32930D01*
X38503Y33009D01*
X38485Y33086D01*
X37143Y36097D01*
X39529Y37161D01*
X39603Y37055D01*
D02*
G37*
G36*
X44825Y31150D02*
Y30025D01*
X44100D01*
Y29405D01*
X44094Y29375D01*
Y28327D01*
X43974Y28206D01*
X43697D01*
X43660Y28260D01*
X43495Y28371D01*
X43300Y28410D01*
X43105Y28371D01*
X42940Y28260D01*
X42899Y28200D01*
X42500D01*
X42300Y28000D01*
Y27000D01*
X42500Y26800D01*
X43300D01*
X43314Y26814D01*
X43413Y26794D01*
X43754D01*
X43802Y26677D01*
X43493Y26367D01*
X39745D01*
X39745Y26367D01*
X39628Y26344D01*
X39529Y26278D01*
X38807Y25556D01*
X25304D01*
X25304Y25556D01*
X25187Y25533D01*
X25087Y25466D01*
X22905Y23284D01*
X22839Y23185D01*
X22816Y23068D01*
Y20092D01*
X20259Y17535D01*
X20259Y17535D01*
X20192Y17436D01*
X20169Y17319D01*
X20169Y17318D01*
Y14669D01*
X19682D01*
X19560Y14644D01*
X19457Y14575D01*
X19387Y14472D01*
X19363Y14350D01*
Y13675D01*
X19383Y13576D01*
X19369Y13562D01*
Y12762D01*
X19383Y12749D01*
X19363Y12650D01*
Y11975D01*
X19387Y11853D01*
X19457Y11750D01*
X19560Y11681D01*
X19596Y11673D01*
X19638Y11536D01*
X19083Y10981D01*
X18939D01*
X18934Y11007D01*
X18873Y11098D01*
X18782Y11159D01*
X18675Y11180D01*
X17825D01*
X17718Y11159D01*
X17627Y11098D01*
X17566Y11007D01*
X17545Y10900D01*
Y10450D01*
X17566Y10343D01*
X17627Y10252D01*
X17718Y10191D01*
X17825Y10170D01*
X17892D01*
X17944Y10043D01*
X16259Y8357D01*
X16192Y8258D01*
X16169Y8141D01*
Y7956D01*
X15900D01*
X15778Y7932D01*
X15675Y7863D01*
X15606Y7759D01*
X15582Y7637D01*
Y6863D01*
X15606Y6741D01*
X15675Y6637D01*
X15778Y6568D01*
X15900Y6544D01*
X16575D01*
X16674Y6564D01*
X16688Y6550D01*
X17488D01*
X17501Y6564D01*
X17600Y6544D01*
X18139D01*
X18154Y6530D01*
Y5810D01*
X18064Y5798D01*
X17966Y5764D01*
X17887Y5694D01*
X17842Y5600D01*
X17836Y5496D01*
X17887Y5125D01*
X17796Y5001D01*
X13786Y4446D01*
X13693Y4667D01*
X13678Y4689D01*
X13666Y4713D01*
X13505Y4919D01*
X13485Y4937D01*
X13468Y4957D01*
X13259Y5114D01*
X13235Y5126D01*
X13213Y5141D01*
X12971Y5239D01*
X12945Y5244D01*
X12920Y5252D01*
X12661Y5285D01*
X12634Y5283D01*
X12608Y5284D01*
X12349Y5249D01*
X12324Y5240D01*
X12298Y5235D01*
X12057Y5133D01*
X12035Y5118D01*
X12011Y5106D01*
X11805Y4946D01*
X11788Y4926D01*
X11768Y4908D01*
X11610Y4700D01*
X11598Y4676D01*
X11584Y4654D01*
X11485Y4412D01*
X11480Y4386D01*
X11472Y4360D01*
X11442Y4122D01*
X10826Y4037D01*
X8821Y15406D01*
X8796Y15553D01*
X8793Y15852D01*
X8840Y16146D01*
X8934Y16429D01*
X9074Y16693D01*
X9256Y16930D01*
X9474Y17133D01*
X9722Y17298D01*
X9859Y17359D01*
X9859Y17359D01*
X18083Y21027D01*
X18113Y21048D01*
X18144Y21069D01*
X18146Y21071D01*
X18148Y21073D01*
X18168Y21104D01*
X18188Y21135D01*
X18189Y21138D01*
X18190Y21140D01*
X18197Y21176D01*
X18204Y21213D01*
Y23818D01*
X29955Y29059D01*
X30073Y29013D01*
X30932Y27086D01*
X31734Y27443D01*
X31843Y27334D01*
X31942Y27267D01*
X32059Y27244D01*
X32059Y27244D01*
X35200D01*
X35200Y27244D01*
X35317Y27267D01*
X35416Y27334D01*
X35416Y27334D01*
X36502Y28419D01*
X40056D01*
X40173Y28442D01*
X40273Y28509D01*
X40273Y28509D01*
X41108Y29344D01*
X42900D01*
Y28725D01*
X43900D01*
Y30025D01*
X43175D01*
Y30750D01*
Y31675D01*
X44825D01*
Y31150D01*
D02*
G37*
G36*
X48169Y30224D02*
Y29613D01*
X48193Y29491D01*
X48262Y29387D01*
X48366Y29318D01*
X48488Y29294D01*
X49263D01*
X49384Y29318D01*
X49488Y29387D01*
X49499Y29403D01*
X49651D01*
X49662Y29387D01*
X49766Y29318D01*
X49888Y29294D01*
X50662D01*
X50784Y29318D01*
X50888Y29387D01*
X50899Y29403D01*
X51051D01*
X51062Y29387D01*
X51125Y29346D01*
X51127Y29338D01*
Y29212D01*
X51125Y29204D01*
X51062Y29163D01*
X50993Y29059D01*
X50969Y28938D01*
Y28336D01*
X50842Y28283D01*
X50775Y28350D01*
X49775D01*
X49575Y28150D01*
X49375Y28350D01*
X48375D01*
X48175Y28150D01*
Y27350D01*
X48189Y27336D01*
X48169Y27237D01*
Y26908D01*
X47594D01*
X46606Y27895D01*
Y30199D01*
X46606Y30199D01*
X46583Y30316D01*
X46516Y30416D01*
X46505Y30427D01*
X46554Y30544D01*
X47848D01*
X48169Y30224D01*
D02*
G37*
G36*
X34775Y31110D02*
X35632Y29186D01*
X35632Y29186D01*
X35681Y29114D01*
X34823Y28256D01*
X33866D01*
X33839Y28380D01*
X34495Y28672D01*
X33599Y30684D01*
X34656Y31155D01*
X34775Y31110D01*
D02*
G37*
G36*
X65796Y24754D02*
X57050Y24754D01*
X57050Y24754D01*
X57050Y24754D01*
X57000Y24754D01*
X56960Y24746D01*
X56922Y24738D01*
X56830Y24700D01*
X56800Y24680D01*
X56764Y24656D01*
X56694Y24586D01*
X56671Y24551D01*
X56650Y24520D01*
X56612Y24428D01*
X56612Y24428D01*
X56612Y24428D01*
X56612Y24428D01*
X56605Y24393D01*
X56596Y24350D01*
X56596Y24300D01*
X56571Y24268D01*
X56506Y24204D01*
X52142D01*
X52142Y24204D01*
X52133Y24270D01*
X52082Y24394D01*
Y24531D01*
X52055Y24665D01*
X51979Y24779D01*
X51865Y24855D01*
X51731Y24882D01*
X50219D01*
X50085Y24855D01*
X49971Y24779D01*
X49904D01*
X49790Y24855D01*
X49656Y24882D01*
X48144D01*
X48010Y24855D01*
X47896Y24779D01*
X47820Y24665D01*
X47793Y24531D01*
Y24334D01*
X47767Y24270D01*
X47744Y24100D01*
X47767Y23930D01*
X47793Y23866D01*
Y23669D01*
X47820Y23535D01*
X47896Y23421D01*
X48010Y23345D01*
X48144Y23318D01*
X49656D01*
X49790Y23345D01*
X49904Y23421D01*
X49971D01*
X50085Y23345D01*
X50219Y23318D01*
X51731D01*
X51769Y23326D01*
X51896Y23224D01*
Y20800D01*
Y19702D01*
X51739D01*
X51505Y19656D01*
X51421Y19600D01*
X51240Y19564D01*
X51042Y19431D01*
X50909Y19233D01*
X50862Y18999D01*
X50909Y18764D01*
X51042Y18566D01*
X51240Y18433D01*
X51474Y18387D01*
X51708Y18433D01*
X51753Y18464D01*
X51784Y18470D01*
X51798Y18479D01*
X52889D01*
X53123Y18525D01*
X53322Y18658D01*
X53454Y18857D01*
X53501Y19091D01*
X53479Y19198D01*
X53560Y19296D01*
X56506D01*
X56506Y19296D01*
X56596Y19184D01*
X56596Y14500D01*
X56596Y14500D01*
X56596Y14500D01*
X56596Y14450D01*
X56605Y14408D01*
X56612Y14372D01*
X56612Y14372D01*
X56612Y14372D01*
X56650Y14280D01*
X56677Y14240D01*
X56694Y14214D01*
X56694Y14214D01*
X56694Y14214D01*
X56694Y14214D01*
X56764Y14144D01*
X56801Y14120D01*
X56830Y14100D01*
X56830Y14100D01*
X56830Y14100D01*
X56922Y14062D01*
X56961Y14054D01*
X57000Y14046D01*
X57050Y14046D01*
X57050Y14046D01*
X57050Y14046D01*
X65796Y14046D01*
Y12642D01*
X65642Y12608D01*
X65622Y12600D01*
X65601Y12595D01*
X65407Y12507D01*
X65389Y12494D01*
X65369Y12484D01*
X65198Y12357D01*
X65184Y12341D01*
X65167Y12328D01*
X65027Y12167D01*
X65016Y12148D01*
X65002Y12131D01*
X64899Y11945D01*
X64892Y11924D01*
X64882Y11904D01*
X64821Y11700D01*
X64819Y11678D01*
X64813Y11657D01*
X64801Y11500D01*
X48474Y9243D01*
X48373Y9319D01*
X47349Y16725D01*
X47465Y16817D01*
X47600Y16790D01*
X47795Y16829D01*
X47961Y16940D01*
X48071Y17105D01*
X48110Y17300D01*
X48071Y17495D01*
X47961Y17661D01*
X47957Y17663D01*
Y17853D01*
X47930Y17990D01*
X47852Y18106D01*
X47584Y18374D01*
X47633Y18491D01*
X48711D01*
X48838Y18466D01*
X49072Y18512D01*
X49271Y18645D01*
X49403Y18844D01*
X49450Y19078D01*
X49403Y19312D01*
X49271Y19510D01*
X49245Y19535D01*
X49047Y19668D01*
X48813Y19715D01*
X47904D01*
Y21500D01*
X47888Y21578D01*
X47844Y21644D01*
X47778Y21688D01*
X47700Y21704D01*
X45907Y21704D01*
X41900Y21704D01*
X41822Y21688D01*
X41756Y21644D01*
X41712Y21578D01*
X41696Y21500D01*
Y20919D01*
X41668Y20915D01*
X41696Y20712D01*
X41696Y17717D01*
X41696Y17701D01*
X41643Y17612D01*
X41616Y17586D01*
X41604Y17579D01*
X36968Y16938D01*
X36968Y16938D01*
X36968D01*
X36919Y16932D01*
X36884Y16919D01*
X36844Y16905D01*
X36758Y16855D01*
X36724Y16825D01*
X36699Y16802D01*
X36639Y16723D01*
X36620Y16685D01*
X36604Y16652D01*
X36579Y16555D01*
X36577Y16520D01*
X36574Y16476D01*
X36581Y16427D01*
X36581Y16427D01*
X36581Y16427D01*
X37778Y7764D01*
X34552Y7318D01*
X34451Y7394D01*
X33430Y14893D01*
X34713Y15070D01*
X34788Y15096D01*
X34848Y15149D01*
X34882Y15221D01*
X34882Y15221D01*
X34887Y15300D01*
X34504Y18070D01*
X34798Y18110D01*
X34873Y18136D01*
X34932Y18189D01*
X34967Y18261D01*
X34972Y18340D01*
X34629Y20817D01*
X34603Y20892D01*
X34550Y20951D01*
X34479Y20986D01*
X34399Y20991D01*
X34106Y20950D01*
X33724Y23714D01*
X33833Y23841D01*
X39328D01*
X39503Y23876D01*
X39652Y23976D01*
X40329Y24653D01*
X44052D01*
X44228Y24688D01*
X44377Y24787D01*
X44881Y25291D01*
X57489D01*
X57664Y25326D01*
X57813Y25426D01*
X58122Y25734D01*
X65796D01*
Y24754D01*
D02*
G37*
G36*
X47700Y19715D02*
X47438D01*
X47204Y19668D01*
X47005Y19535D01*
X46982Y19500D01*
X46900D01*
Y19378D01*
X46873Y19337D01*
X46826Y19103D01*
X46873Y18869D01*
X46900Y18828D01*
Y18365D01*
X46773Y18284D01*
X46760Y18285D01*
X46725Y18287D01*
X46725Y18287D01*
X46725D01*
X46725Y18287D01*
X46676Y18280D01*
X46676Y18280D01*
X46676Y18280D01*
X41996Y17633D01*
X41900Y17717D01*
X41900Y21500D01*
X45907Y21500D01*
X47700Y21500D01*
Y19715D01*
D02*
G37*
G36*
X56596Y19590D02*
X56506Y19500D01*
X53337D01*
X53322Y19523D01*
X53123Y19656D01*
X52889Y19702D01*
X52100D01*
Y20800D01*
Y23850D01*
X52133Y23930D01*
X52142Y24000D01*
X56596D01*
X56596Y19590D01*
D02*
G37*
G36*
X24366Y19056D02*
X24662Y16915D01*
X24688Y16840D01*
X24741Y16781D01*
X24812Y16746D01*
X24892Y16741D01*
X25096Y16769D01*
X25197Y16693D01*
X25568Y14012D01*
X25594Y13937D01*
X25647Y13877D01*
X25718Y13843D01*
X25798Y13838D01*
X27082Y14015D01*
X28130Y6430D01*
X20233Y5338D01*
X20132Y5415D01*
X20062Y5918D01*
X19960Y5903D01*
X19933Y6102D01*
X19900Y6195D01*
X19834Y6270D01*
X19745Y6313D01*
X19645Y6319D01*
X19348Y6278D01*
X19254Y6245D01*
X19180Y6179D01*
X19136Y6090D01*
X19130Y5991D01*
X19140Y5920D01*
X19064Y5873D01*
X19021Y5857D01*
X18936Y5898D01*
X18867Y5902D01*
Y6677D01*
X18840Y6814D01*
X18763Y6930D01*
X18594Y7099D01*
Y7637D01*
X18570Y7759D01*
X18501Y7863D01*
X18397Y7932D01*
X18275Y7956D01*
X17600D01*
X17501Y7936D01*
X17488Y7950D01*
X16896D01*
X16844Y8077D01*
X17827Y9060D01*
X17944Y9011D01*
Y8750D01*
X17967Y8633D01*
X18034Y8534D01*
X18133Y8467D01*
X18250Y8444D01*
X19050D01*
X19167Y8467D01*
X19214Y8499D01*
X19250Y8494D01*
X19420Y8517D01*
X19578Y8582D01*
X19714Y8686D01*
X19818Y8822D01*
X19883Y8980D01*
X19906Y9150D01*
X19884Y9311D01*
X21799Y11226D01*
X21899Y11374D01*
X21934Y11550D01*
Y16785D01*
X24246Y19097D01*
X24366Y19056D01*
D02*
G37*
%LPC*%
G36*
X31575Y44310D02*
X31380Y44271D01*
X31215Y44160D01*
X31104Y43995D01*
X31099Y43971D01*
X29359Y42231D01*
X28409D01*
X28292Y42208D01*
X28193Y42141D01*
X28193Y42141D01*
X27183Y41131D01*
X25652D01*
X25541Y41241D01*
X25442Y41308D01*
X25325Y41331D01*
X25325Y41331D01*
X25130D01*
X25060Y41435D01*
X24895Y41546D01*
X24700Y41585D01*
X24505Y41546D01*
X24340Y41435D01*
X24229Y41270D01*
X24190Y41075D01*
X24229Y40880D01*
X24340Y40715D01*
X24505Y40604D01*
X24532Y40599D01*
X24630Y40450D01*
X24615Y40375D01*
X24654Y40180D01*
X24764Y40015D01*
X24930Y39904D01*
X25125Y39865D01*
X25320Y39904D01*
X25485Y40015D01*
X25555Y40119D01*
X27475D01*
X27475Y40119D01*
X27587Y40021D01*
X27580Y39971D01*
X27456Y39947D01*
X27291Y39836D01*
X27180Y39671D01*
X27141Y39476D01*
X27180Y39281D01*
X27291Y39115D01*
X27456Y39005D01*
X27651Y38966D01*
X27846Y39005D01*
X28012Y39115D01*
X28098Y39244D01*
X28424D01*
X28424Y39244D01*
X28541Y39267D01*
X28640Y39334D01*
X28750Y39444D01*
X29100D01*
X29100Y39444D01*
X29217Y39467D01*
X29316Y39534D01*
X29802Y40019D01*
X30738D01*
X30755Y39931D01*
X30866Y39765D01*
X31031Y39655D01*
X31226Y39616D01*
X31422Y39655D01*
X31587Y39765D01*
X31697Y39931D01*
X31736Y40126D01*
X31726Y40177D01*
X31846Y40227D01*
X31889Y40161D01*
X32055Y40051D01*
X32250Y40012D01*
X32445Y40051D01*
X32610Y40161D01*
X32721Y40326D01*
X32760Y40522D01*
X32726Y40693D01*
X32793Y40820D01*
X34676D01*
X34676Y40820D01*
X34793Y40843D01*
X34892Y40910D01*
X35471Y41489D01*
X35616Y41490D01*
X35782Y41380D01*
X35977Y41341D01*
X36172Y41380D01*
X36337Y41490D01*
X36448Y41656D01*
X36486Y41851D01*
X36448Y42046D01*
X36337Y42211D01*
X36172Y42322D01*
X35977Y42361D01*
X35782Y42322D01*
X35616Y42211D01*
X35580Y42157D01*
X35401D01*
X35284Y42134D01*
X35185Y42067D01*
X35185Y42067D01*
X34549Y41432D01*
X30157D01*
X30108Y41549D01*
X31453Y42894D01*
X31626D01*
X31696Y42790D01*
X31861Y42679D01*
X32056Y42640D01*
X32251Y42679D01*
X32417Y42790D01*
X32527Y42955D01*
X32566Y43150D01*
X32527Y43345D01*
X32417Y43510D01*
X32251Y43621D01*
X32057Y43660D01*
X32085Y43800D01*
X32046Y43995D01*
X31935Y44160D01*
X31770Y44271D01*
X31575Y44310D01*
D02*
G37*
G36*
X23644Y35695D02*
X23420Y35689D01*
X23206Y35625D01*
X23015Y35508D01*
X22861Y35346D01*
X22754Y35149D01*
X22702Y34931D01*
X22708Y34708D01*
X22771Y34493D01*
X22888Y34302D01*
X23051Y34148D01*
X23247Y34042D01*
X23465Y33989D01*
X23689Y33995D01*
X23903Y34059D01*
X24094Y34176D01*
X24248Y34338D01*
X24355Y34535D01*
X24407Y34752D01*
X24401Y34976D01*
X24338Y35191D01*
X24221Y35381D01*
X24059Y35535D01*
X23862Y35642D01*
X23644Y35695D01*
D02*
G37*
G36*
X28158Y34924D02*
X27934Y34918D01*
X27720Y34854D01*
X27529Y34737D01*
X27375Y34575D01*
X27268Y34378D01*
X27216Y34161D01*
X27222Y33937D01*
X27285Y33722D01*
X27402Y33532D01*
X27564Y33378D01*
X27761Y33271D01*
X27979Y33219D01*
X28202Y33224D01*
X28417Y33288D01*
X28608Y33405D01*
X28762Y33567D01*
X28869Y33764D01*
X28921Y33982D01*
X28915Y34205D01*
X28852Y34420D01*
X28735Y34611D01*
X28572Y34765D01*
X28376Y34872D01*
X28158Y34924D01*
D02*
G37*
G36*
X25838Y33891D02*
X25614Y33885D01*
X25399Y33821D01*
X25208Y33704D01*
X25054Y33542D01*
X24948Y33345D01*
X24895Y33128D01*
X24901Y32904D01*
X24965Y32689D01*
X25082Y32499D01*
X25244Y32344D01*
X25441Y32238D01*
X25658Y32185D01*
X25882Y32191D01*
X26097Y32255D01*
X26287Y32372D01*
X26441Y32534D01*
X26548Y32731D01*
X26601Y32948D01*
X26595Y33172D01*
X26531Y33387D01*
X26414Y33578D01*
X26252Y33732D01*
X26055Y33838D01*
X25838Y33891D01*
D02*
G37*
G36*
X55200Y41300D02*
X54200D01*
X54041Y41141D01*
X54000Y41100D01*
X53879Y41109D01*
X53877Y41109D01*
X53735Y41137D01*
X53065D01*
X52923Y41109D01*
X52802Y41028D01*
X52721Y40907D01*
X52693Y40765D01*
Y40435D01*
X52721Y40293D01*
X52802Y40172D01*
X52923Y40091D01*
X53065Y40063D01*
X53735D01*
X53877Y40091D01*
X53880Y40093D01*
X53952D01*
X53994Y40051D01*
Y39513D01*
X54018Y39391D01*
X54041Y39357D01*
X53973Y39230D01*
X52700D01*
Y38170D01*
X54100D01*
X54120Y38051D01*
Y37730D01*
X54141Y37622D01*
X54202Y37531D01*
X54293Y37471D01*
X54400Y37449D01*
X54850D01*
X54957Y37471D01*
X55048Y37531D01*
X55109Y37622D01*
X55130Y37730D01*
Y38580D01*
X55109Y38687D01*
X55057Y38765D01*
Y39194D01*
X55088D01*
X55209Y39218D01*
X55313Y39287D01*
X55382Y39391D01*
X55406Y39513D01*
Y40188D01*
X55386Y40286D01*
X55400Y40300D01*
Y41100D01*
X55200Y41300D01*
D02*
G37*
G36*
X51105Y41137D02*
X50435D01*
X50293Y41109D01*
X50172Y41028D01*
X50091Y40907D01*
X50063Y40765D01*
Y40435D01*
X50091Y40293D01*
X50172Y40172D01*
X50293Y40091D01*
X50435Y40063D01*
X51105D01*
X51247Y40091D01*
X51368Y40172D01*
X51449Y40293D01*
X51477Y40435D01*
Y40765D01*
X51449Y40907D01*
X51368Y41028D01*
X51247Y41109D01*
X51105Y41137D01*
D02*
G37*
G36*
X49650Y40075D02*
X48650D01*
X48450Y39875D01*
Y39075D01*
X48409Y38957D01*
X47932D01*
X47795Y38930D01*
X47779Y38919D01*
X46983D01*
X46846Y38892D01*
X46730Y38814D01*
X45048Y37132D01*
X44970Y37016D01*
X44943Y36879D01*
Y36478D01*
X44760Y36366D01*
X44606Y36204D01*
X44500Y36007D01*
X44447Y35790D01*
X44453Y35566D01*
X44517Y35351D01*
X44634Y35160D01*
X44796Y35006D01*
X44993Y34900D01*
X45210Y34847D01*
X45434Y34853D01*
X45649Y34917D01*
X45840Y35034D01*
X45994Y35196D01*
X46100Y35393D01*
X46153Y35610D01*
X46147Y35834D01*
X46083Y36049D01*
X45966Y36240D01*
X45804Y36394D01*
X45657Y36473D01*
Y36732D01*
X46372Y37446D01*
X46490Y37399D01*
X46492Y37312D01*
X46563Y37072D01*
X46694Y36859D01*
X46875Y36687D01*
X47095Y36567D01*
X47338Y36509D01*
X47588Y36516D01*
X47828Y36587D01*
X48041Y36717D01*
X48213Y36899D01*
X48333Y37119D01*
X48391Y37362D01*
X48385Y37612D01*
X48314Y37852D01*
X48183Y38065D01*
X48129Y38116D01*
X48180Y38243D01*
X48453D01*
X48468Y38166D01*
X48537Y38062D01*
X48641Y37993D01*
X48763Y37969D01*
X49538D01*
X49659Y37993D01*
X49763Y38062D01*
X49832Y38166D01*
X49852Y38268D01*
X50177D01*
X50293Y38191D01*
X50435Y38163D01*
X51105D01*
X51247Y38191D01*
X51368Y38272D01*
X51449Y38393D01*
X51477Y38535D01*
Y38865D01*
X51449Y39007D01*
X51368Y39128D01*
X51247Y39209D01*
X51105Y39237D01*
X50435D01*
X50293Y39209D01*
X50172Y39128D01*
X50091Y39007D01*
X50086Y38982D01*
X49936D01*
X49850Y39075D01*
Y39875D01*
X49650Y40075D01*
D02*
G37*
G36*
X56975Y41325D02*
X55975D01*
X55775Y41125D01*
Y40325D01*
X55789Y40311D01*
X55769Y40213D01*
Y39537D01*
X55793Y39416D01*
X55862Y39312D01*
X55966Y39243D01*
X56088Y39219D01*
X56168D01*
Y38822D01*
X56102Y38778D01*
X56041Y38687D01*
X56020Y38580D01*
Y37730D01*
X56041Y37622D01*
X56102Y37531D01*
X56193Y37471D01*
X56300Y37449D01*
X56750D01*
X56857Y37471D01*
X56948Y37531D01*
X57009Y37622D01*
X57030Y37730D01*
Y38580D01*
X57009Y38687D01*
X56948Y38778D01*
X56882Y38822D01*
Y39223D01*
X56984Y39243D01*
X57088Y39312D01*
X57157Y39416D01*
X57181Y39537D01*
Y40213D01*
X57161Y40311D01*
X57175Y40325D01*
Y41125D01*
X56975Y41325D01*
D02*
G37*
G36*
X16375Y12130D02*
X15525D01*
X15418Y12109D01*
X15327Y12048D01*
X15266Y11957D01*
X15245Y11850D01*
Y11642D01*
X15241Y11625D01*
Y9990D01*
X14907Y9656D01*
X14550D01*
X14433Y9633D01*
X14334Y9566D01*
X14267Y9467D01*
X14244Y9350D01*
Y8993D01*
X13976Y8724D01*
X13876Y8576D01*
X13841Y8400D01*
Y8267D01*
X13836Y8264D01*
X13732Y8128D01*
X13667Y7970D01*
X13644Y7800D01*
X13667Y7630D01*
X13732Y7472D01*
X13836Y7336D01*
X13972Y7232D01*
X14130Y7167D01*
X14300Y7144D01*
X14470Y7167D01*
X14628Y7232D01*
X14764Y7336D01*
X14868Y7472D01*
X14933Y7630D01*
X14956Y7800D01*
X14933Y7970D01*
X14868Y8128D01*
X14785Y8236D01*
X14993Y8444D01*
X15350D01*
X15467Y8467D01*
X15566Y8534D01*
X15633Y8633D01*
X15656Y8750D01*
Y9107D01*
X16024Y9476D01*
X16124Y9624D01*
X16159Y9800D01*
Y11120D01*
X16375D01*
X16482Y11141D01*
X16573Y11202D01*
X16634Y11293D01*
X16655Y11400D01*
Y11850D01*
X16634Y11957D01*
X16573Y12048D01*
X16482Y12109D01*
X16375Y12130D01*
D02*
G37*
%LPD*%
D10*
X15950Y11625D02*
D03*
X18250Y12575D02*
D03*
Y10675D02*
D03*
D11*
X55575Y35855D02*
D03*
X54625Y38155D02*
D03*
X56525D02*
D03*
D12*
X19559Y5848D02*
D03*
D13*
X20690Y5701D02*
D03*
X18510Y5400D02*
D03*
D14*
X58800Y28550D02*
D03*
Y31050D02*
D03*
Y33550D02*
D03*
X58800Y38550D02*
D03*
X58800Y36050D02*
D03*
D15*
X48900Y24100D02*
D03*
Y21100D02*
D03*
X50975Y24100D02*
D03*
Y21100D02*
D03*
D16*
X53400Y38700D02*
D03*
D17*
Y39650D02*
D03*
Y40600D02*
D03*
X50770Y38700D02*
D03*
Y40600D02*
D03*
D18*
X39127Y18848D02*
D03*
X44080Y19533D02*
D03*
D19*
X55000Y16900D02*
D03*
Y21900D02*
D03*
D20*
X53950Y33525D02*
D03*
Y30500D02*
D03*
X53950Y27525D02*
D03*
D21*
X54925Y32875D02*
D03*
Y33525D02*
D03*
Y34175D02*
D03*
X52975Y32875D02*
D03*
Y33525D02*
D03*
Y34175D02*
D03*
X54925Y29850D02*
D03*
Y30500D02*
D03*
Y31150D02*
D03*
X52975Y29850D02*
D03*
Y30500D02*
D03*
Y31150D02*
D03*
X54925Y26875D02*
D03*
Y27525D02*
D03*
Y28175D02*
D03*
X52975Y26875D02*
D03*
Y27525D02*
D03*
Y28175D02*
D03*
D22*
X43200Y29375D02*
D03*
X43600D02*
D03*
X44000D02*
D03*
X44400D02*
D03*
X44800D02*
D03*
Y32325D02*
D03*
X44400D02*
D03*
X44000D02*
D03*
X43600D02*
D03*
X43200D02*
D03*
D23*
X45475Y30050D02*
D03*
Y30450D02*
D03*
Y30850D02*
D03*
Y31250D02*
D03*
Y31650D02*
D03*
X42525D02*
D03*
Y31250D02*
D03*
Y30850D02*
D03*
Y30450D02*
D03*
Y30050D02*
D03*
D24*
X44000Y30850D02*
D03*
D25*
X14950Y9050D02*
D03*
X18650D02*
D03*
D26*
X20069Y12312D02*
D03*
Y14012D02*
D03*
X50275Y32950D02*
D03*
Y34650D02*
D03*
X56475Y41575D02*
D03*
Y39875D02*
D03*
X51675Y34650D02*
D03*
Y32950D02*
D03*
X50275Y29950D02*
D03*
Y31650D02*
D03*
Y26900D02*
D03*
Y28600D02*
D03*
X51675Y31650D02*
D03*
Y29950D02*
D03*
Y28600D02*
D03*
Y26900D02*
D03*
X49150Y40325D02*
D03*
Y38625D02*
D03*
X54700Y41550D02*
D03*
Y39850D02*
D03*
X48875Y34650D02*
D03*
Y32950D02*
D03*
X56250Y32675D02*
D03*
Y34375D02*
D03*
X48875Y31650D02*
D03*
Y29950D02*
D03*
Y28600D02*
D03*
Y26900D02*
D03*
X56250Y29650D02*
D03*
Y31350D02*
D03*
Y26650D02*
D03*
Y28350D02*
D03*
D27*
X31083Y28467D02*
D03*
X34509Y29992D02*
D03*
X32225Y28975D02*
D03*
X33367Y29483D02*
D03*
X36925Y31075D02*
D03*
X38067Y31583D02*
D03*
X35783Y30567D02*
D03*
D28*
X16238Y7250D02*
D03*
X17938D02*
D03*
X42050Y27500D02*
D03*
X43750D02*
D03*
D29*
X55525Y27525D02*
X54925D01*
X45921Y19533D02*
X44080D01*
X47600Y17853D02*
X45921Y19533D01*
X47600Y17853D02*
Y17300D01*
X47932Y38600D02*
X47894Y38562D01*
X49125Y38600D02*
X47932D01*
X49150Y38625D02*
X49125Y38600D01*
X45300Y36879D02*
Y35700D01*
X46983Y38562D02*
X45300Y36879D01*
X47894Y38562D02*
X46983D01*
X51675Y32950D02*
X48875D01*
X51675Y29950D02*
X48875D01*
X51675Y26900D02*
X48875D01*
X52150Y34175D02*
X52150Y34175D01*
X54625Y38700D02*
X53400D01*
X56000Y31100D02*
X55951Y31149D01*
X18510Y6677D02*
X17938Y7250D01*
X18510Y6677D02*
Y5400D01*
X55951Y31149D02*
X55230D01*
X56250Y31350D02*
X56000Y31100D01*
X50770Y38700D02*
X50695Y38625D01*
X49150D01*
X54100Y40450D02*
X53550D01*
X54700Y39850D02*
X54100Y40450D01*
X53550D02*
X53400Y40600D01*
X54625Y38700D02*
Y38375D01*
X56250Y34375D02*
X55725Y34900D01*
Y35625D02*
Y34900D01*
Y35625D02*
X55575Y35775D01*
X56050Y34175D02*
X54925D01*
X56250Y34375D02*
X56050Y34175D01*
X55229Y31150D02*
X54925D01*
X55230Y31149D02*
X55229Y31150D01*
X52100Y28175D02*
X51675Y28600D01*
X52975Y28175D02*
X52100D01*
X52175Y31150D02*
X51675Y31650D01*
X52975Y31150D02*
X52175D01*
X52150Y34175D02*
X51675Y34650D01*
X52975Y34175D02*
X52150D01*
X56075Y28175D02*
X54925D01*
X56250Y28350D02*
X56075Y28175D01*
X48875Y29950D02*
X48875Y29950D01*
X54700Y38450D02*
X54625Y38375D01*
X54700Y39850D02*
Y38450D01*
X56525Y39825D02*
X56475Y39875D01*
X56525Y39825D02*
Y38375D01*
X55499Y27499D02*
Y27499D01*
X55525Y27525D02*
X55499Y27499D01*
Y30499D02*
X54976D01*
X55499Y33524D02*
X54975D01*
X34236Y39527D02*
X37625Y41050D01*
X31950Y38500D02*
X34236Y39527D01*
X26251Y44207D02*
X26670Y44626D01*
X12099Y37101D02*
X14276D01*
X11550Y37650D02*
X12099Y37101D01*
X11550Y37650D02*
Y42047D01*
X12099Y34101D02*
X14276D01*
X11050Y35150D02*
X12099Y34101D01*
X11050Y35150D02*
Y42254D01*
X41251Y45646D02*
Y46532D01*
X24360Y36900D02*
X24368Y36908D01*
X28195D01*
X30252Y38500D02*
X31950D01*
X23775Y45550D02*
X24850Y44475D01*
X13638Y45550D02*
X23775D01*
X24850Y44475D02*
X24851Y44476D01*
X24657Y43825D02*
X25194D01*
X23507Y44975D02*
X24657Y43825D01*
X21307Y44975D02*
X23507D01*
X25401Y43325D02*
X26251Y44175D01*
X24450Y43325D02*
X25401D01*
X23300Y44475D02*
X24450Y43325D01*
X13978Y44475D02*
X23300D01*
X25576Y44207D02*
X25751Y44382D01*
X25576Y44207D02*
Y44207D01*
X25195Y43826D02*
X25576Y44207D01*
X25195Y43826D02*
X25195D01*
X25194Y43825D02*
X25195Y43826D01*
X24851Y44476D02*
X24926D01*
X25751Y44382D02*
Y44626D01*
X26251Y44175D02*
Y44207D01*
X26551Y44626D02*
X26670D01*
X21307Y44975D02*
X21307Y44975D01*
X13200Y31100D02*
X14266D01*
X10550Y33750D02*
X13200Y31100D01*
X10550Y33750D02*
Y42462D01*
X13771Y44975D02*
X21307D01*
X11550Y42047D02*
X13978Y44475D01*
X10550Y42462D02*
X13638Y45550D01*
X11050Y42254D02*
X13771Y44975D01*
X28660Y36908D02*
X30252Y38500D01*
X28195Y36908D02*
X28660D01*
X58416Y58050D02*
X58667Y57800D01*
X56550Y58050D02*
X58416D01*
D30*
X48838Y19078D02*
X48813Y19103D01*
X47438D01*
X52889Y19091D02*
X51739D01*
D31*
X51589Y18941D01*
D32*
X15700Y9800D02*
X14300Y8400D01*
X15700Y11625D02*
Y9800D01*
X14300Y8400D02*
Y7800D01*
X19250Y9325D02*
X18875Y8950D01*
X19250Y9325D02*
Y9150D01*
X21475Y11550D02*
X19250Y9325D01*
X44052Y25111D02*
X40139D01*
X44691Y25750D02*
X44052Y25111D01*
X57489Y25750D02*
X44691D01*
X25697Y24300D02*
X24072Y22674D01*
X39328Y24300D02*
X25697D01*
X24072Y22674D02*
Y19572D01*
X21475Y16975D01*
X40139Y25111D02*
X39328Y24300D01*
X58150Y26411D02*
X57489Y25750D01*
X58150Y28350D02*
Y26411D01*
Y28350D02*
X56250D01*
X18875Y8950D02*
X18750D01*
X58500Y31350D02*
X56250D01*
X58800Y31050D02*
X58500Y31350D01*
X21475Y16975D02*
Y11550D01*
X57075Y33550D02*
X56250Y34375D01*
X58800Y33550D02*
X57075D01*
X33510Y46250D02*
X33625Y46135D01*
X13490Y46250D02*
X33510D01*
X9950Y33175D02*
Y42710D01*
X13490Y46250D01*
X9950Y33175D02*
X10200Y32925D01*
X56626Y64201D02*
X57538D01*
X54550Y62125D02*
X56626Y64201D01*
X50533Y62125D02*
X54550D01*
D33*
X49173Y26602D02*
X47467D01*
X31443Y28492D02*
Y28166D01*
Y28492D02*
X31058D01*
X43200Y29650D02*
X40981D01*
X32520Y29245D02*
X32200Y28925D01*
Y29000D02*
Y28925D01*
X32585Y28674D02*
X32547Y29011D01*
X32520Y29245D01*
X36143Y30575D02*
Y30266D01*
Y30575D02*
X35775D01*
X45200Y30050D02*
Y27076D01*
X20925Y11778D02*
X19047Y9900D01*
X20925Y17203D02*
Y11778D01*
X19047Y9900D02*
X18234D01*
X20069Y11534D02*
X19210Y10675D01*
X18300D01*
X20069Y12312D02*
Y11534D01*
X40650Y30450D02*
X39858Y29658D01*
X36751D01*
X39940Y29175D02*
X36175D01*
X40056Y28725D02*
X36375D01*
X36751Y29658D02*
X36143Y30266D01*
X33309Y27950D02*
X32585Y28674D01*
X32520Y29245D02*
X32520D01*
X44800Y29375D02*
Y27242D01*
X43620Y26061D01*
X45200Y27076D02*
X43785Y25661D01*
X43620Y26061D02*
X39745D01*
X43785Y25661D02*
X39911D01*
X44459Y33524D02*
X44000Y33065D01*
X47125Y33524D02*
X44459D01*
X46199Y32924D02*
X46048Y33075D01*
X46512Y31250D02*
X45475D01*
X47894Y32631D02*
X46512Y31250D01*
X48556Y32631D02*
X47894D01*
X46347Y31650D02*
X45475D01*
X48075Y33378D02*
X46347Y31650D01*
X48875Y32950D02*
X48556Y32631D01*
X48075Y35158D02*
Y33378D01*
X46048Y33075D02*
X44576D01*
X44000Y33065D02*
Y32325D01*
X44400Y32899D02*
Y32325D01*
X44576Y33075D02*
X44400Y32899D01*
X43200Y33505D02*
Y32325D01*
X43930Y34235D02*
X43200Y33505D01*
X43930Y35060D02*
Y34235D01*
X39911Y25661D02*
X39100Y24850D01*
X39745Y26061D02*
X38934Y25250D01*
X48875Y26900D02*
X48875Y26900D01*
X49173Y26602D02*
X48875Y26900D01*
X47467Y26602D02*
X46300Y27769D01*
Y30199D02*
Y27769D01*
Y30199D02*
X46049Y30450D01*
X25304Y25250D02*
X23122Y23068D01*
X23522Y19799D02*
X20925Y17203D01*
X23522Y22902D02*
Y19799D01*
X25469Y24850D02*
X23522Y22902D01*
X23122Y23068D02*
Y19965D01*
X20475Y17319D01*
X38934Y25250D02*
X25304D01*
X39100Y24850D02*
X25469D01*
X45475Y30050D02*
X45200D01*
X44800Y29375D02*
X44800Y29375D01*
X44400D02*
Y28200D01*
X35200Y27550D02*
X32059D01*
X36375Y28725D02*
X35200Y27550D01*
X34950Y27950D02*
X33309D01*
X36175Y29175D02*
X34950Y27950D01*
X40981Y29650D02*
X40056Y28725D01*
X40816Y30050D02*
X39940Y29175D01*
X42525Y30450D02*
X40650D01*
X42525Y30050D02*
X40816D01*
X44400Y28200D02*
X44000Y27800D01*
X58175Y36675D02*
X49592D01*
X58800Y36050D02*
X58175Y36675D01*
X41785Y30850D02*
X41350Y31285D01*
X42525Y30850D02*
X41785D01*
X41350Y32943D02*
Y31285D01*
X42525Y31250D02*
X41951D01*
X41750Y31451D01*
Y33987D02*
Y31451D01*
X42525Y31650D02*
X42150D01*
X42150Y31650D01*
Y34153D02*
Y31650D01*
X16475Y8141D02*
Y7293D01*
X18234Y9900D02*
X16475Y8141D01*
X46049Y30450D02*
X45475D01*
X20475Y14418D02*
X20069Y14012D01*
X20475Y17319D02*
Y14418D01*
X32059Y27550D02*
X31443Y28166D01*
X43200Y29650D02*
Y29375D01*
X43358Y35617D02*
X43200Y35775D01*
X43373Y35617D02*
X43358D01*
X43930Y35060D02*
X43373Y35617D01*
X43200Y37411D02*
Y35775D01*
X42150Y34153D02*
X40929Y35374D01*
Y36329D02*
Y35374D01*
Y36329D02*
X40786Y36471D01*
X41750Y36851D02*
Y35200D01*
X42283Y34667D02*
X41750Y35200D01*
X42980Y34667D02*
X42283D01*
X41750Y36851D02*
X41180Y37421D01*
X41750Y33987D02*
X39836Y35901D01*
X40393Y37421D02*
X39836Y36864D01*
Y35901D01*
X41350Y32943D02*
X40659Y33634D01*
X35775Y30575D02*
X35758Y30592D01*
X45250Y32325D02*
X44800D01*
X44000D02*
X44000Y32325D01*
X49592Y36675D02*
X48075Y35158D01*
X47975Y30850D02*
X45475D01*
X48875Y32950D02*
X48875Y32950D01*
Y29950D02*
X47975Y30850D01*
X43200Y37411D02*
X43107Y37504D01*
X41180Y37421D02*
X40393D01*
X24950Y41025D02*
X25325D01*
X27309Y40825D02*
X28409Y41925D01*
X25325Y41025D02*
X25525Y40825D01*
X27309D01*
X27475Y40425D02*
X28575Y41525D01*
X25225Y40425D02*
X27475D01*
X34676Y41126D02*
X35401Y41851D01*
X29818Y41126D02*
X34676D01*
X32046Y40726D02*
X32250Y40522D01*
X35401Y41851D02*
X35977D01*
X31361Y43800D02*
X31575D01*
X29486Y41925D02*
X31361Y43800D01*
X28409Y41925D02*
X29486D01*
X28575Y41525D02*
X29651D01*
X31027Y40325D02*
X31226Y40126D01*
X29675Y40325D02*
X31027D01*
X29100Y39750D02*
X29675Y40325D01*
X28624Y39750D02*
X29100D01*
X29984Y40726D02*
X32046D01*
X29500Y40725D02*
X29983D01*
X28925Y40150D02*
X29500Y40725D01*
X28175Y40150D02*
X28925D01*
X29038Y41125D02*
X29817D01*
X28688Y40775D02*
X29038Y41125D01*
X31326Y43200D02*
X32006D01*
X29651Y41525D02*
X31326Y43200D01*
X29983Y40725D02*
X29984Y40726D01*
X29817Y41125D02*
X29818Y41126D01*
X28424Y39550D02*
X28624Y39750D01*
X27725Y39550D02*
X28424D01*
X27651Y39476D02*
X27725Y39550D01*
X32006Y43200D02*
X32056Y43150D01*
D34*
X43659Y46483D02*
D03*
X41183Y46141D02*
D03*
X38706Y45799D02*
D03*
D35*
X30152Y49200D02*
D03*
X15800Y54050D02*
D03*
D36*
X57538Y64201D02*
D03*
X58667Y57800D02*
D03*
D37*
X40659Y33634D02*
D03*
X40786Y36471D02*
D03*
X42980Y34667D02*
D03*
X43107Y37504D02*
D03*
X45300Y35700D02*
D03*
X45427Y38537D02*
D03*
X23555Y34842D02*
D03*
X25748Y33038D02*
D03*
X25875Y35875D02*
D03*
X28068Y34071D02*
D03*
X28195Y36908D02*
D03*
X30389Y35104D02*
D03*
D38*
X54000Y35000D02*
D03*
X59500Y39000D02*
D03*
X58500D02*
D03*
X57500D02*
D03*
Y38000D02*
D03*
X58500D02*
D03*
X59500D02*
D03*
X47600Y17300D02*
D03*
X45200Y34300D02*
D03*
X52400Y39700D02*
D03*
X34800Y26300D02*
D03*
X34200Y26900D02*
D03*
X34475Y29950D02*
D03*
X47125Y33524D02*
D03*
X46199Y32924D02*
D03*
X47975Y31450D02*
D03*
X45375Y32250D02*
D03*
X39934Y31775D02*
D03*
X39125Y33475D02*
D03*
X18500Y13600D02*
D03*
X43300Y27900D02*
D03*
X50300Y35700D02*
D03*
X21225Y6618D02*
D03*
X43481Y31361D02*
D03*
X44000D02*
D03*
X44506Y31358D02*
D03*
X44517Y30850D02*
D03*
X44000Y30850D02*
D03*
X43481D02*
D03*
X43475Y30325D02*
D03*
X44000Y30336D02*
D03*
X44517D02*
D03*
X47700Y30000D02*
D03*
X37174Y30574D02*
D03*
X33564Y29063D02*
D03*
X55499Y27499D02*
D03*
Y30499D02*
D03*
Y33524D02*
D03*
X35200Y40700D02*
D03*
X21000Y40200D02*
D03*
X15000Y39000D02*
D03*
X14000Y43000D02*
D03*
X13500Y42500D02*
D03*
X13000Y42000D02*
D03*
X12500Y41500D02*
D03*
X46200Y52800D02*
D03*
X49125Y63175D02*
D03*
X43000Y47493D02*
D03*
X41400Y46812D02*
D03*
X45800Y45150D02*
D03*
X24700Y41075D02*
D03*
X25708Y42714D02*
D03*
X26225D02*
D03*
X26750Y42725D02*
D03*
X26744Y42200D02*
D03*
X26225D02*
D03*
X25708Y42200D02*
D03*
X25719Y41692D02*
D03*
X26225Y41689D02*
D03*
X26744D02*
D03*
X26375Y38000D02*
D03*
X24360Y36900D02*
D03*
X32250Y40522D02*
D03*
X35977Y41851D02*
D03*
X37600Y41200D02*
D03*
X34153Y39711D02*
D03*
X24926Y44476D02*
D03*
X25751Y44626D02*
D03*
X26551D02*
D03*
X25125Y40375D02*
D03*
X19175Y41450D02*
D03*
X14276Y34101D02*
D03*
X21275Y43512D02*
D03*
X20700Y32025D02*
D03*
X20600Y37900D02*
D03*
X28688Y40775D02*
D03*
X28175Y40150D02*
D03*
X27651Y39476D02*
D03*
X51975Y64889D02*
D03*
X52125Y61000D02*
D03*
X32056Y43150D02*
D03*
X31575Y43800D02*
D03*
X20000Y35362D02*
D03*
X16550Y38425D02*
D03*
X43450Y44000D02*
D03*
X31226Y40126D02*
D03*
X14276Y37101D02*
D03*
X14266Y31100D02*
D03*
D39*
X51474Y18999D02*
D03*
X47438Y19103D02*
D03*
X48838Y19078D02*
D03*
X52889Y19091D02*
D03*
D40*
X38800Y17800D02*
D03*
X42800Y18400D02*
D03*
X40800Y18000D02*
D03*
X44800Y18600D02*
D03*
X37800Y17700D02*
D03*
X39800Y17900D02*
D03*
X43800Y18500D02*
D03*
X45800Y18700D02*
D03*
X14300Y7800D02*
D03*
X40600Y19000D02*
D03*
X39600Y18900D02*
D03*
X38600Y18800D02*
D03*
X37600Y18700D02*
D03*
X37400Y19700D02*
D03*
X38400Y19800D02*
D03*
X39400Y19900D02*
D03*
X40400Y20000D02*
D03*
X45600Y19700D02*
D03*
X44600Y19600D02*
D03*
X43600Y19500D02*
D03*
X42600Y19400D02*
D03*
X42400Y20400D02*
D03*
X43400Y20500D02*
D03*
X44400Y20600D02*
D03*
X45400Y20700D02*
D03*
X44000Y22200D02*
D03*
X45000D02*
D03*
X46000D02*
D03*
X47000D02*
D03*
Y23200D02*
D03*
X46000D02*
D03*
X45000D02*
D03*
X44000D02*
D03*
Y24200D02*
D03*
X45000D02*
D03*
X46000D02*
D03*
X47000D02*
D03*
X55500Y14500D02*
D03*
X53500D02*
D03*
Y15500D02*
D03*
X54500Y18000D02*
D03*
Y17000D02*
D03*
Y16000D02*
D03*
Y15000D02*
D03*
X55500Y15500D02*
D03*
Y16500D02*
D03*
Y17500D02*
D03*
Y18500D02*
D03*
X52800Y23000D02*
D03*
Y22000D02*
D03*
X53700Y20500D02*
D03*
Y21500D02*
D03*
Y22500D02*
D03*
Y23500D02*
D03*
X54600Y23000D02*
D03*
Y22000D02*
D03*
Y21000D02*
D03*
Y20000D02*
D03*
X55500Y20500D02*
D03*
Y21500D02*
D03*
Y22500D02*
D03*
Y23500D02*
D03*
X19250Y9150D02*
D03*
X51500Y24100D02*
D03*
X48400D02*
D03*
X49400D02*
D03*
X50500D02*
D03*
X17000Y52600D02*
D03*
Y53600D02*
D03*
Y54600D02*
D03*
Y55600D02*
D03*
X33625Y46135D02*
D03*
X15000Y52600D02*
D03*
X16000D02*
D03*
Y53600D02*
D03*
X15000D02*
D03*
Y54600D02*
D03*
X16000D02*
D03*
Y55600D02*
D03*
X15000D02*
D03*
X14000D02*
D03*
Y54600D02*
D03*
Y53600D02*
D03*
Y52600D02*
D03*
X23500Y49000D02*
D03*
X25500Y48000D02*
D03*
X26500D02*
D03*
Y49000D02*
D03*
X25500D02*
D03*
X24500D02*
D03*
X26500Y50000D02*
D03*
X25500D02*
D03*
X24500D02*
D03*
X23500D02*
D03*
X24500Y51000D02*
D03*
X23500D02*
D03*
X21900Y48400D02*
D03*
Y47400D02*
D03*
Y49400D02*
D03*
Y50400D02*
D03*
Y51400D02*
D03*
X20900D02*
D03*
Y50400D02*
D03*
Y49400D02*
D03*
Y48400D02*
D03*
Y47400D02*
D03*
X19900D02*
D03*
Y48400D02*
D03*
Y49400D02*
D03*
Y50400D02*
D03*
Y51400D02*
D03*
X18900D02*
D03*
Y50400D02*
D03*
Y49400D02*
D03*
Y48400D02*
D03*
Y47400D02*
D03*
X17900D02*
D03*
Y48400D02*
D03*
Y49400D02*
D03*
Y50400D02*
D03*
Y51400D02*
D03*
X16900D02*
D03*
Y50400D02*
D03*
Y49400D02*
D03*
Y48400D02*
D03*
Y47400D02*
D03*
X15900D02*
D03*
Y48400D02*
D03*
Y49400D02*
D03*
Y50400D02*
D03*
Y51400D02*
D03*
X14900D02*
D03*
Y50400D02*
D03*
Y49400D02*
D03*
Y48400D02*
D03*
Y47400D02*
D03*
X13900Y51400D02*
D03*
Y50400D02*
D03*
Y49400D02*
D03*
Y48400D02*
D03*
Y47400D02*
D03*
X31000Y49700D02*
D03*
X31900Y47700D02*
D03*
Y48700D02*
D03*
Y49700D02*
D03*
Y50700D02*
D03*
X31000D02*
D03*
Y48700D02*
D03*
Y47700D02*
D03*
X30100D02*
D03*
Y48700D02*
D03*
Y49700D02*
D03*
X29200D02*
D03*
Y48700D02*
D03*
Y47700D02*
D03*
X28300D02*
D03*
Y48700D02*
D03*
Y49700D02*
D03*
X30100Y50700D02*
D03*
X29200D02*
D03*
X28300D02*
D03*
X50533Y62125D02*
D03*
X56550Y58050D02*
D03*
X10200Y32925D02*
D03*
M02*
