G04*
G04 #@! TF.GenerationSoftware,Altium Limited,Altium Designer,18.1.7 (191)*
G04*
G04 Layer_Color=16711935*
%FSLAX43Y43*%
%MOMM*%
G71*
G01*
G75*
%ADD58C,0.100*%
D58*
X66000Y48000D02*
G03*
X66000Y46000I0J-1000D01*
G01*
Y49000D02*
G03*
X65185Y48827I0J-2000D01*
G01*
X9776Y17545D02*
G03*
X8621Y15371I815J-1827D01*
G01*
X13633Y4219D02*
G03*
X11651Y3945I-991J-137D01*
G01*
X66000Y12460D02*
G03*
X65009Y11323I0J-1000D01*
G01*
X38066Y7598D02*
X34203Y7064D01*
X28457Y6269D02*
X13633Y4219D01*
X66000Y14300D02*
Y12460D01*
Y26100D02*
Y24500D01*
Y49000D02*
Y48000D01*
X65185Y48827D02*
X36873Y36200D01*
X38299Y33003D02*
X36873Y36200D01*
X38299Y33003D02*
X18000Y23950D01*
Y21213D01*
X9776Y17545D01*
X10659Y3808D02*
X8621Y15371D01*
X11651Y3945D02*
X10659Y3808D01*
X65009Y11323D02*
X48170Y8995D01*
X66000Y46000D02*
Y41000D01*
X33929Y9045D02*
X28183Y8250D01*
X34203Y7064D02*
X33929Y9045D01*
X38066Y7598D02*
X37792Y9579D01*
X47896Y10976D02*
X37792Y9579D01*
X48170Y8995D02*
X47896Y10976D01*
X66000Y14300D02*
X64000D01*
Y24500D02*
Y14300D01*
X66000Y24500D02*
X64000D01*
X66000Y26100D02*
X64000D01*
Y41000D02*
Y26100D01*
X66000Y41000D02*
X64000D01*
X28457Y6269D02*
X28183Y8250D01*
X56367Y66781D02*
G03*
X58349Y67055I991J137D01*
G01*
X60224Y53455D02*
G03*
X61379Y55629I-815J1827D01*
G01*
X4000Y22000D02*
G03*
X4815Y22173I0J2000D01*
G01*
X4000Y23000D02*
G03*
X4000Y25000I0J1000D01*
G01*
Y58540D02*
G03*
X4991Y59677I0J1000D01*
G01*
X41543Y64731D02*
X41817Y62750D01*
X41543Y64731D02*
X56368Y66781D01*
X58349Y67055D02*
X59341Y67192D01*
X61379Y55629D01*
X52000Y49787D02*
X60224Y53455D01*
X52000Y47050D02*
Y49787D01*
X31701Y37997D02*
X52000Y47050D01*
X31701Y37997D02*
X33127Y34800D01*
X4815Y22173D02*
X33127Y34800D01*
X4000Y22000D02*
Y23000D01*
Y25000D02*
Y30000D01*
X6000D01*
Y44900D01*
X4000D02*
X6000D01*
X4000D02*
Y46500D01*
X6000D01*
Y56700D01*
X4000D02*
X6000D01*
X4000D02*
Y58540D01*
X4991Y59677D02*
X35797Y63936D01*
X36071Y61955D01*
X41817Y62750D01*
M02*
