G04*
G04 #@! TF.GenerationSoftware,Altium Limited,Altium Designer,18.1.7 (191)*
G04*
G04 Layer_Color=16711935*
%FSLAX43Y43*%
%MOMM*%
G71*
G01*
G75*
G04:AMPARAMS|DCode=32|XSize=1.2mm|YSize=1.1mm|CornerRadius=0.213mm|HoleSize=0mm|Usage=FLASHONLY|Rotation=90.000|XOffset=0mm|YOffset=0mm|HoleType=Round|Shape=RoundedRectangle|*
%AMROUNDEDRECTD32*
21,1,1.200,0.675,0,0,90.0*
21,1,0.775,1.100,0,0,90.0*
1,1,0.425,0.338,0.388*
1,1,0.425,0.338,-0.388*
1,1,0.425,-0.338,-0.388*
1,1,0.425,-0.338,0.388*
%
%ADD32ROUNDEDRECTD32*%
%ADD36C,0.203*%
%ADD37C,0.200*%
%ADD38C,1.500*%
G04:AMPARAMS|DCode=39|XSize=4.7mm|YSize=4.7mm|CornerRadius=1.225mm|HoleSize=0mm|Usage=FLASHONLY|Rotation=180.000|XOffset=0mm|YOffset=0mm|HoleType=Round|Shape=RoundedRectangle|*
%AMROUNDEDRECTD39*
21,1,4.700,2.250,0,0,180.0*
21,1,2.250,4.700,0,0,180.0*
1,1,2.450,-1.125,1.125*
1,1,2.450,1.125,1.125*
1,1,2.450,1.125,-1.125*
1,1,2.450,-1.125,-1.125*
%
%ADD39ROUNDEDRECTD39*%
%ADD40C,2.640*%
G04:AMPARAMS|DCode=41|XSize=4.7mm|YSize=4.7mm|CornerRadius=1.225mm|HoleSize=0mm|Usage=FLASHONLY|Rotation=90.000|XOffset=0mm|YOffset=0mm|HoleType=Round|Shape=RoundedRectangle|*
%AMROUNDEDRECTD41*
21,1,4.700,2.250,0,0,90.0*
21,1,2.250,4.700,0,0,90.0*
1,1,2.450,1.125,1.125*
1,1,2.450,1.125,-1.125*
1,1,2.450,-1.125,-1.125*
1,1,2.450,-1.125,1.125*
%
%ADD41ROUNDEDRECTD41*%
%ADD42R,1.800X1.000*%
G04:AMPARAMS|DCode=43|XSize=1.2mm|YSize=1.1mm|CornerRadius=0.213mm|HoleSize=0mm|Usage=FLASHONLY|Rotation=360.000|XOffset=0mm|YOffset=0mm|HoleType=Round|Shape=RoundedRectangle|*
%AMROUNDEDRECTD43*
21,1,1.200,0.675,0,0,360.0*
21,1,0.775,1.100,0,0,360.0*
1,1,0.425,0.388,-0.338*
1,1,0.425,-0.388,-0.338*
1,1,0.425,-0.388,0.338*
1,1,0.425,0.388,0.338*
%
%ADD43ROUNDEDRECTD43*%
G36*
X39996Y23400D02*
X30404D01*
Y27996D01*
X39996D01*
Y23400D01*
D02*
G37*
G36*
Y18200D02*
X39996Y18200D01*
X30404D01*
Y23000D01*
X39996D01*
Y18200D01*
D02*
G37*
G36*
X14200Y12404D02*
X14200Y12404D01*
X9400D01*
Y21996D01*
X14200D01*
Y12404D01*
D02*
G37*
G36*
X9000Y12404D02*
X4404D01*
Y21996D01*
X9000D01*
Y12404D01*
D02*
G37*
D32*
X26550Y72125D02*
D03*
X28250D02*
D03*
D36*
X3000Y30000D02*
D03*
Y96000D02*
D03*
X77000D02*
D03*
X51000Y2000D02*
D03*
X3000Y3000D02*
D03*
D37*
X71958Y7745D02*
D03*
Y44745D02*
D03*
X7000Y84000D02*
D03*
Y47000D02*
D03*
X15620Y8170D02*
D03*
Y19170D02*
D03*
X20200Y14200D02*
D03*
X44230Y7620D02*
D03*
X33230D02*
D03*
X38200Y12200D02*
D03*
D38*
X66053Y52345D02*
D03*
X67323Y49805D02*
D03*
X68593Y52345D02*
D03*
X69863Y49805D02*
D03*
X71133Y52345D02*
D03*
X72403Y49805D02*
D03*
X12905Y41940D02*
D03*
X11635Y39400D02*
D03*
X10365Y41940D02*
D03*
X9095Y39400D02*
D03*
X61100Y67315D02*
D03*
X62370Y64775D02*
D03*
X63640Y67315D02*
D03*
X64910Y64775D02*
D03*
X71890Y72095D02*
D03*
X69350Y73365D02*
D03*
X71890Y74635D02*
D03*
X69350Y75905D02*
D03*
X71890Y77175D02*
D03*
X69350Y78445D02*
D03*
X38650Y74635D02*
D03*
X36110Y75905D02*
D03*
X38650Y77175D02*
D03*
X36110Y78445D02*
D03*
X23370Y7430D02*
D03*
X22100Y9970D02*
D03*
X20830Y7430D02*
D03*
X19560Y9970D02*
D03*
X18290Y7430D02*
D03*
X17020Y9970D02*
D03*
X23370Y18430D02*
D03*
X22100Y20970D02*
D03*
X20830Y18430D02*
D03*
X19560Y20970D02*
D03*
X18290Y18430D02*
D03*
X17020Y20970D02*
D03*
X44970Y15370D02*
D03*
X42430Y14100D02*
D03*
X44970Y12830D02*
D03*
X42430Y11560D02*
D03*
X44970Y10290D02*
D03*
X42430Y9020D02*
D03*
X33970Y15370D02*
D03*
X31430Y14100D02*
D03*
X33970Y12830D02*
D03*
X31430Y11560D02*
D03*
X33970Y10290D02*
D03*
X31430Y9020D02*
D03*
D39*
X6707Y68000D02*
D03*
Y73000D02*
D03*
Y78000D02*
D03*
X52000Y66545D02*
D03*
X42000D02*
D03*
X47000D02*
D03*
X11700Y19700D02*
D03*
X6700D02*
D03*
D40*
X27400Y75000D02*
D03*
X50500Y34725D02*
D03*
D41*
X32700Y20700D02*
D03*
Y25700D02*
D03*
D42*
X27400Y76700D02*
D03*
Y73300D02*
D03*
X50500Y33025D02*
D03*
Y36425D02*
D03*
D43*
X48450Y34375D02*
D03*
Y36075D02*
D03*
M02*
