M48
;Layer_Color=9474304
;FILE_FORMAT=4:3
METRIC,TZ
;TYPE=PLATED
T1F00S00C0.400
T2F00S00C0.500
T3F00S00C0.800
T5F00S00C3.000
T6F00S00C3.100
T7F00S00C3.300
;TYPE=NON_PLATED
T8F00S00C1.100
T9F00S00C1.500
T10F00S00C2.440
T11F00S00C3.000
%
T01
X40400Y86800
X43400Y88007
X57900Y90500
X61400Y90544
X40400Y90327
X37400Y90200
T02
X54516Y15841
X55033Y20445
X35733Y58795
X32228Y56595
T03
X18290Y7430
X20830
X23370
X31430Y9020
X42430
Y11560
Y14100
X44970Y15370
Y12830
Y10290
X33970
Y12830
Y15370
X31430Y14100
Y11560
X22100Y9970
X19560
X17020
X13200Y13200
X11700
Y14700
X13200
Y16200
X11700
X10200
Y14700
Y13200
X18290Y18430
X20830
X23370
X22100Y20970
X19560
X17020
X36200Y20700
Y19200
X37700
X39200
Y20700
Y22200
X37700
X36200
Y24200
X37700
Y25650
Y27200
X39200
Y25700
Y24200
X36200Y25700
Y27200
X37700Y20700
X11635Y39400
X12905Y41940
X10365
X9095Y39400
X8200Y16200
Y14700
Y13200
X6700
X5200
Y14700
X6650
X6700Y16200
X5200
X36110Y75905
Y78445
X38650Y77175
Y74635
X61100Y67315
X63640
X62370Y64775
X64910
X69350Y73365
Y75905
Y78445
X71890Y77175
Y74635
Y72095
X71133Y52345
X68593
X66053
X67323Y49805
X69863
X72403
T05
X20200Y14200
X38200Y12200
T06
X11700Y19700
X32700Y20700
Y25700
X6700Y19700
X6707Y68000
Y73000
Y78000
T07
X42000Y66545
X47000
X52000
T08
X38150Y91275
X42650
T09
X15620Y8170
X33230Y7620
X44230
X15620Y19170
T10
X50500Y34725
X27400Y75000
T11
X3000Y3000
X51000Y2000
X71958Y7745
Y44745
X7000Y47000
X3000Y30000
X7000Y84000
X77000Y96000
X3000
M30
