G04*
G04 #@! TF.GenerationSoftware,Altium Limited,Altium Designer,18.1.7 (191)*
G04*
G04 Layer_Physical_Order=1*
G04 Layer_Color=255*
%FSLAX43Y43*%
%MOMM*%
G71*
G01*
G75*
%ADD10R,3.000X4.000*%
%ADD11O,0.300X1.500*%
%ADD12R,0.300X1.500*%
%ADD13R,1.500X0.300*%
G04:AMPARAMS|DCode=14|XSize=1mm|YSize=0.9mm|CornerRadius=0.113mm|HoleSize=0mm|Usage=FLASHONLY|Rotation=0.000|XOffset=0mm|YOffset=0mm|HoleType=Round|Shape=RoundedRectangle|*
%AMROUNDEDRECTD14*
21,1,1.000,0.675,0,0,0.0*
21,1,0.775,0.900,0,0,0.0*
1,1,0.225,0.388,-0.338*
1,1,0.225,-0.388,-0.338*
1,1,0.225,-0.388,0.338*
1,1,0.225,0.388,0.338*
%
%ADD14ROUNDEDRECTD14*%
G04:AMPARAMS|DCode=15|XSize=1mm|YSize=0.9mm|CornerRadius=0.113mm|HoleSize=0mm|Usage=FLASHONLY|Rotation=135.000|XOffset=0mm|YOffset=0mm|HoleType=Round|Shape=RoundedRectangle|*
%AMROUNDEDRECTD15*
21,1,1.000,0.675,0,0,135.0*
21,1,0.775,0.900,0,0,135.0*
1,1,0.225,-0.035,0.513*
1,1,0.225,0.513,-0.035*
1,1,0.225,0.035,-0.513*
1,1,0.225,-0.513,0.035*
%
%ADD15ROUNDEDRECTD15*%
G04:AMPARAMS|DCode=16|XSize=1mm|YSize=0.9mm|CornerRadius=0.113mm|HoleSize=0mm|Usage=FLASHONLY|Rotation=90.000|XOffset=0mm|YOffset=0mm|HoleType=Round|Shape=RoundedRectangle|*
%AMROUNDEDRECTD16*
21,1,1.000,0.675,0,0,90.0*
21,1,0.775,0.900,0,0,90.0*
1,1,0.225,0.338,0.388*
1,1,0.225,0.338,-0.388*
1,1,0.225,-0.338,-0.388*
1,1,0.225,-0.338,0.388*
%
%ADD16ROUNDEDRECTD16*%
%ADD17R,0.600X1.550*%
%ADD18O,0.600X1.550*%
%ADD19R,1.000X0.900*%
%ADD20R,1.500X3.000*%
%ADD21R,1.000X0.900*%
G04:AMPARAMS|DCode=22|XSize=0.8mm|YSize=0.8mm|CornerRadius=0.1mm|HoleSize=0mm|Usage=FLASHONLY|Rotation=225.000|XOffset=0mm|YOffset=0mm|HoleType=Round|Shape=RoundedRectangle|*
%AMROUNDEDRECTD22*
21,1,0.800,0.600,0,0,225.0*
21,1,0.600,0.800,0,0,225.0*
1,1,0.200,-0.424,0.000*
1,1,0.200,0.000,0.424*
1,1,0.200,0.424,0.000*
1,1,0.200,0.000,-0.424*
%
%ADD22ROUNDEDRECTD22*%
G04:AMPARAMS|DCode=23|XSize=2.3mm|YSize=1.8mm|CornerRadius=0.225mm|HoleSize=0mm|Usage=FLASHONLY|Rotation=90.000|XOffset=0mm|YOffset=0mm|HoleType=Round|Shape=RoundedRectangle|*
%AMROUNDEDRECTD23*
21,1,2.300,1.350,0,0,90.0*
21,1,1.850,1.800,0,0,90.0*
1,1,0.450,0.675,0.925*
1,1,0.450,0.675,-0.925*
1,1,0.450,-0.675,-0.925*
1,1,0.450,-0.675,0.925*
%
%ADD23ROUNDEDRECTD23*%
G04:AMPARAMS|DCode=24|XSize=0.6mm|YSize=0.7mm|CornerRadius=0.075mm|HoleSize=0mm|Usage=FLASHONLY|Rotation=270.000|XOffset=0mm|YOffset=0mm|HoleType=Round|Shape=RoundedRectangle|*
%AMROUNDEDRECTD24*
21,1,0.600,0.550,0,0,270.0*
21,1,0.450,0.700,0,0,270.0*
1,1,0.150,-0.275,-0.225*
1,1,0.150,-0.275,0.225*
1,1,0.150,0.275,0.225*
1,1,0.150,0.275,-0.225*
%
%ADD24ROUNDEDRECTD24*%
%ADD25R,1.000X2.150*%
%ADD26R,3.250X2.150*%
G04:AMPARAMS|DCode=27|XSize=1.8mm|YSize=1.15mm|CornerRadius=0.144mm|HoleSize=0mm|Usage=FLASHONLY|Rotation=180.000|XOffset=0mm|YOffset=0mm|HoleType=Round|Shape=RoundedRectangle|*
%AMROUNDEDRECTD27*
21,1,1.800,0.863,0,0,180.0*
21,1,1.513,1.150,0,0,180.0*
1,1,0.288,-0.756,0.431*
1,1,0.288,0.756,0.431*
1,1,0.288,0.756,-0.431*
1,1,0.288,-0.756,-0.431*
%
%ADD27ROUNDEDRECTD27*%
G04:AMPARAMS|DCode=28|XSize=0.8mm|YSize=0.8mm|CornerRadius=0.1mm|HoleSize=0mm|Usage=FLASHONLY|Rotation=90.000|XOffset=0mm|YOffset=0mm|HoleType=Round|Shape=RoundedRectangle|*
%AMROUNDEDRECTD28*
21,1,0.800,0.600,0,0,90.0*
21,1,0.600,0.800,0,0,90.0*
1,1,0.200,0.300,0.300*
1,1,0.200,0.300,-0.300*
1,1,0.200,-0.300,-0.300*
1,1,0.200,-0.300,0.300*
%
%ADD28ROUNDEDRECTD28*%
G04:AMPARAMS|DCode=29|XSize=2.3mm|YSize=1.8mm|CornerRadius=0.225mm|HoleSize=0mm|Usage=FLASHONLY|Rotation=180.000|XOffset=0mm|YOffset=0mm|HoleType=Round|Shape=RoundedRectangle|*
%AMROUNDEDRECTD29*
21,1,2.300,1.350,0,0,180.0*
21,1,1.850,1.800,0,0,180.0*
1,1,0.450,-0.925,0.675*
1,1,0.450,0.925,0.675*
1,1,0.450,0.925,-0.675*
1,1,0.450,-0.925,-0.675*
%
%ADD29ROUNDEDRECTD29*%
%ADD30C,0.300*%
%ADD31C,0.500*%
%ADD32C,0.800*%
%ADD33C,0.200*%
%ADD34C,0.600*%
G04:AMPARAMS|DCode=35|XSize=4.5mm|YSize=4.5mm|CornerRadius=1.125mm|HoleSize=0mm|Usage=FLASHONLY|Rotation=0.000|XOffset=0mm|YOffset=0mm|HoleType=Round|Shape=RoundedRectangle|*
%AMROUNDEDRECTD35*
21,1,4.500,2.250,0,0,0.0*
21,1,2.250,4.500,0,0,0.0*
1,1,2.250,1.125,-1.125*
1,1,2.250,-1.125,-1.125*
1,1,2.250,-1.125,1.125*
1,1,2.250,1.125,1.125*
%
%ADD35ROUNDEDRECTD35*%
G04:AMPARAMS|DCode=36|XSize=4.5mm|YSize=4.5mm|CornerRadius=1.125mm|HoleSize=0mm|Usage=FLASHONLY|Rotation=90.000|XOffset=0mm|YOffset=0mm|HoleType=Round|Shape=RoundedRectangle|*
%AMROUNDEDRECTD36*
21,1,4.500,2.250,0,0,90.0*
21,1,2.250,4.500,0,0,90.0*
1,1,2.250,1.125,1.125*
1,1,2.250,1.125,-1.125*
1,1,2.250,-1.125,-1.125*
1,1,2.250,-1.125,1.125*
%
%ADD36ROUNDEDRECTD36*%
%ADD37C,0.900*%
%ADD38C,1.600*%
%ADD39C,1.300*%
%ADD40C,1.500*%
%ADD41C,0.600*%
G36*
X25303Y80100D02*
X25210Y79979D01*
X25114Y79748D01*
X25082Y79500D01*
X25114Y79252D01*
X25210Y79021D01*
X25362Y78822D01*
X25561Y78670D01*
X25792Y78574D01*
X26040Y78542D01*
X26288Y78574D01*
X26519Y78670D01*
X26718Y78822D01*
X26870Y79021D01*
X26966Y79252D01*
X26998Y79500D01*
X27124Y79643D01*
X29064D01*
Y79412D01*
X29084Y79314D01*
X29070Y79300D01*
Y78500D01*
X29270Y78300D01*
X30270D01*
X30313Y78343D01*
X30513Y78260D01*
Y77912D01*
X30537Y77791D01*
X30606Y77687D01*
X30710Y77618D01*
X30832Y77594D01*
X31507D01*
X31512Y77595D01*
X31712Y77463D01*
Y76917D01*
X30404Y75609D01*
X30400Y75610D01*
X30205Y75571D01*
X30039Y75460D01*
X29929Y75295D01*
X29890Y75100D01*
X29929Y74905D01*
X29984Y74822D01*
X29214Y74051D01*
X28614D01*
X28471Y74147D01*
X28276Y74186D01*
X28081Y74147D01*
X27916Y74036D01*
X27805Y73871D01*
X27766Y73676D01*
X27805Y73481D01*
X27916Y73315D01*
X28081Y73205D01*
X28276Y73166D01*
X28471Y73205D01*
X28637Y73315D01*
X28651Y73337D01*
X29362D01*
X29498Y73365D01*
X29614Y73442D01*
X30652Y74480D01*
X30730Y74596D01*
X30757Y74733D01*
Y74737D01*
X30760Y74739D01*
X30871Y74905D01*
X30910Y75100D01*
X30909Y75104D01*
X32321Y76517D01*
X32399Y76633D01*
X32426Y76769D01*
Y77411D01*
X32469Y77485D01*
X32692Y77537D01*
X32705Y77529D01*
X32900Y77490D01*
X33095Y77529D01*
X33192Y77594D01*
X33207D01*
X33299Y77612D01*
X33370Y77593D01*
X33515Y77502D01*
X33529Y77431D01*
X33640Y77265D01*
X33805Y77155D01*
X34000Y77116D01*
X34195Y77155D01*
X34360Y77265D01*
X34446Y77394D01*
X34688D01*
X34809Y77418D01*
X34913Y77487D01*
X34982Y77591D01*
X35006Y77713D01*
Y78387D01*
X34986Y78486D01*
X35000Y78500D01*
Y79300D01*
X35182Y79344D01*
X35356D01*
X37497Y77203D01*
X37539Y77139D01*
X37603Y77097D01*
X41500Y73200D01*
X41829D01*
X41999Y73166D01*
X42003Y73167D01*
X42483Y72687D01*
X42599Y72610D01*
X42736Y72583D01*
X43760D01*
X46375Y69968D01*
X46491Y69890D01*
X46628Y69863D01*
X47883D01*
X47935Y69811D01*
Y68544D01*
X47808Y68408D01*
X47745Y68400D01*
X46800D01*
X46600Y68200D01*
Y67400D01*
X46614Y67386D01*
X46594Y67287D01*
Y66613D01*
X46417Y66475D01*
X45950D01*
Y66173D01*
X45869Y66107D01*
X45331D01*
X45194Y66080D01*
X45078Y66002D01*
X44160Y65084D01*
X43943Y65123D01*
X44010Y65317D01*
X44175Y65428D01*
X44286Y65593D01*
X44325Y65788D01*
X44321Y65808D01*
X44415Y65993D01*
X44610Y66032D01*
X44775Y66143D01*
X44886Y66308D01*
X44925Y66503D01*
X44920Y66525D01*
X45084Y66725D01*
X45700D01*
Y68625D01*
X43878D01*
X43795Y68825D01*
X43845Y68875D01*
Y69875D01*
X43803Y69917D01*
X43932Y70071D01*
X44203D01*
X44240Y70016D01*
X44405Y69906D01*
X44600Y69867D01*
X44795Y69906D01*
X44960Y70016D01*
X45071Y70182D01*
X45110Y70377D01*
X45071Y70572D01*
X44960Y70737D01*
X44795Y70848D01*
X44600Y70886D01*
X44405Y70848D01*
X44240Y70737D01*
X44203Y70683D01*
X43788D01*
X43788Y70683D01*
X43684Y70662D01*
X43641Y70681D01*
X43500Y70785D01*
Y71700D01*
X43300Y71900D01*
X42500D01*
X42486Y71886D01*
X42388Y71906D01*
X41713D01*
X41591Y71882D01*
X41527Y71850D01*
X41526Y71850D01*
X40126D01*
Y70550D01*
X41527D01*
X41586Y70521D01*
X41591Y70518D01*
X41594Y70518D01*
X41693Y70469D01*
Y69831D01*
X41527Y69750D01*
X40126D01*
Y68450D01*
X40493D01*
Y67675D01*
X40500Y67641D01*
Y66725D01*
X40500D01*
X40486Y66587D01*
X40307Y66467D01*
X40232Y66482D01*
X39050D01*
X38959Y66682D01*
X38982Y66716D01*
X39006Y66837D01*
Y67612D01*
X38982Y67734D01*
X38913Y67838D01*
X38809Y67907D01*
X38688Y67931D01*
X38013D01*
X37914Y67911D01*
X37900Y67925D01*
X37100D01*
X36900Y67725D01*
Y66725D01*
X37100Y66525D01*
X37171D01*
X37350Y66475D01*
Y65482D01*
X36406D01*
Y65588D01*
X36382Y65709D01*
X36313Y65813D01*
X36209Y65882D01*
X36088Y65906D01*
X35312D01*
X35191Y65882D01*
X35087Y65813D01*
X35018Y65709D01*
X34994Y65588D01*
Y64912D01*
X35014Y64814D01*
X35000Y64800D01*
Y64000D01*
X35014Y63986D01*
X34994Y63888D01*
Y63213D01*
X35018Y63091D01*
X35087Y62987D01*
X35191Y62918D01*
X35312Y62894D01*
X36088D01*
X36209Y62918D01*
X36313Y62987D01*
X36316Y62992D01*
X36549Y63053D01*
X36575Y63047D01*
X36584Y63034D01*
X37159Y62459D01*
X37159Y62459D01*
X37258Y62392D01*
X37350Y62374D01*
Y61833D01*
X37214Y61758D01*
X37150Y61750D01*
X37100Y61800D01*
X36100D01*
X35900Y61600D01*
Y60800D01*
X35914Y60786D01*
X35894Y60688D01*
Y60013D01*
X35905Y59959D01*
X35804Y59792D01*
X35766Y59759D01*
X35370D01*
Y60308D01*
X32830D01*
Y59292D01*
X32830Y59292D01*
X32830D01*
X32794Y59225D01*
X32775Y59191D01*
X32761Y59121D01*
X32761Y59121D01*
X32760Y59118D01*
X32742Y59025D01*
Y58607D01*
X32447Y58312D01*
X26258D01*
Y60680D01*
X26308Y60801D01*
X26417Y60868D01*
X27010D01*
X27132Y60893D01*
X27236Y60962D01*
X27305Y61065D01*
X27329Y61187D01*
Y61371D01*
X27359Y61391D01*
X27470Y61556D01*
X27509Y61751D01*
X27470Y61946D01*
X27359Y62112D01*
X27194Y62222D01*
X27179Y62225D01*
X27132Y62256D01*
X27010Y62281D01*
X26335D01*
X26214Y62256D01*
X26110Y62187D01*
X26102Y62174D01*
X25544D01*
X25536Y62187D01*
X25432Y62256D01*
X25310Y62281D01*
X24635D01*
X24514Y62256D01*
X24410Y62187D01*
X24341Y62084D01*
X24317Y61962D01*
Y61187D01*
X24341Y61065D01*
X24346Y61058D01*
X24293Y60858D01*
X23625D01*
X23459Y60825D01*
X23319Y60731D01*
X23225Y60591D01*
X23192Y60425D01*
Y58575D01*
X23204Y58512D01*
X23068Y58312D01*
X20309D01*
X20257Y58399D01*
X20234Y58512D01*
X20555Y58833D01*
X20635Y58800D01*
Y58800D01*
X22535D01*
Y61827D01*
X22618Y61994D01*
X22735Y62017D01*
X22834Y62084D01*
X24095Y63344D01*
X24375D01*
Y63000D01*
X25775D01*
Y64194D01*
X29361D01*
X29533Y64022D01*
Y63712D01*
X29533Y63712D01*
X29556Y63595D01*
X29623Y63496D01*
X29995Y63124D01*
X29990Y63100D01*
X30029Y62905D01*
X30139Y62740D01*
X30305Y62629D01*
X30500Y62590D01*
X30695Y62629D01*
X30860Y62740D01*
X30971Y62905D01*
X31010Y63100D01*
X30971Y63295D01*
X30935Y63349D01*
X30876Y63500D01*
X30935Y63651D01*
X30971Y63705D01*
X31010Y63900D01*
X30971Y64095D01*
X30860Y64260D01*
X30695Y64371D01*
X30595Y64391D01*
X29869Y65116D01*
X29770Y65183D01*
X29653Y65206D01*
X29653Y65206D01*
X24050D01*
X24050Y65206D01*
X23933Y65183D01*
X23834Y65116D01*
X23834Y65116D01*
X22123Y63406D01*
X21265D01*
Y66700D01*
X19365D01*
Y63406D01*
X18977D01*
X18725Y63658D01*
Y66700D01*
X16825D01*
Y63506D01*
X16427D01*
X16185Y63748D01*
Y66700D01*
X14285D01*
Y63300D01*
X15767D01*
X16084Y62984D01*
X16084Y62984D01*
X16183Y62917D01*
X16300Y62894D01*
X17573D01*
X17689Y62778D01*
Y58876D01*
X17689Y58876D01*
X17712Y58759D01*
X17779Y58659D01*
X17926Y58512D01*
X17904Y58399D01*
X17852Y58312D01*
X12155D01*
Y58525D01*
X12134Y58632D01*
X12073Y58723D01*
X11982Y58784D01*
X11875Y58805D01*
X11633D01*
X9769Y60669D01*
X9731Y60694D01*
X9706Y60733D01*
X7529Y62909D01*
Y73218D01*
X8156D01*
X8290Y73245D01*
X8404Y73321D01*
X8454Y73396D01*
X8700D01*
Y73350D01*
X10100D01*
Y73396D01*
X11000D01*
X11078Y73412D01*
X11144Y73456D01*
X11188Y73522D01*
X11204Y73600D01*
Y75700D01*
X11188Y75778D01*
X11144Y75844D01*
X11078Y75888D01*
X11000Y75904D01*
X8000Y75904D01*
X7922Y75888D01*
X7856Y75844D01*
X7812Y75778D01*
X7796Y75700D01*
Y74782D01*
X6644D01*
X6510Y74755D01*
X6404Y74684D01*
X6357Y74694D01*
X6204Y74752D01*
Y77600D01*
X17200Y77600D01*
X19900Y80300D01*
X25205Y80300D01*
X25303Y80100D01*
D02*
G37*
G36*
X98694Y75700D02*
X87306D01*
Y80300D01*
X98694D01*
Y75700D01*
D02*
G37*
G36*
X11000Y73600D02*
X8000Y73600D01*
Y73941D01*
X8012Y74000D01*
X8000Y74059D01*
Y75700D01*
X11000Y75700D01*
Y73600D01*
D02*
G37*
G36*
X70694Y72700D02*
X59306D01*
Y77300D01*
X70694D01*
Y72700D01*
D02*
G37*
G36*
X98694Y70708D02*
X87306D01*
Y75292D01*
X98694D01*
Y70708D01*
D02*
G37*
G36*
X55796Y57204D02*
X47946D01*
X47946Y57204D01*
X47857Y57404D01*
X47882Y57441D01*
X47906Y57562D01*
Y57898D01*
X48044Y57966D01*
X48096Y57981D01*
X48191Y57918D01*
X48312Y57894D01*
X49088D01*
X49209Y57918D01*
X49313Y57987D01*
X49382Y58091D01*
X49406Y58213D01*
Y58376D01*
X49583Y58488D01*
X49606Y58490D01*
X49713Y58469D01*
X50487D01*
X50609Y58493D01*
X50713Y58562D01*
X50782Y58666D01*
X50806Y58787D01*
Y59463D01*
X50805Y59468D01*
X50937Y59668D01*
X52775D01*
X52788Y59468D01*
X52692Y59456D01*
X52461Y59360D01*
X52262Y59208D01*
X52110Y59009D01*
X52014Y58778D01*
X51982Y58530D01*
X52014Y58282D01*
X52110Y58051D01*
X52262Y57852D01*
X52461Y57700D01*
X52692Y57604D01*
X52940Y57572D01*
X53188Y57604D01*
X53419Y57700D01*
X53618Y57852D01*
X53770Y58051D01*
X53866Y58282D01*
X53898Y58530D01*
X53866Y58778D01*
X53770Y59009D01*
X53618Y59208D01*
X53419Y59360D01*
X53188Y59456D01*
X53092Y59468D01*
X53105Y59668D01*
X53928D01*
X53998Y59501D01*
X54134Y59324D01*
X54311Y59188D01*
X54518Y59102D01*
X54740Y59073D01*
X54962Y59102D01*
X55169Y59188D01*
X55346Y59324D01*
X55482Y59501D01*
X55568Y59708D01*
X55597Y59930D01*
X55568Y60152D01*
X55482Y60359D01*
X55346Y60536D01*
X55169Y60672D01*
X54962Y60758D01*
X54740Y60787D01*
X54518Y60758D01*
X54311Y60672D01*
X54134Y60536D01*
X54015Y60382D01*
X52859D01*
X52791Y60582D01*
X52806Y60594D01*
X52942Y60771D01*
X53028Y60978D01*
X53057Y61200D01*
X53028Y61422D01*
X52942Y61629D01*
X52806Y61806D01*
X52629Y61942D01*
X52422Y62028D01*
X52200Y62057D01*
X51978Y62028D01*
X51771Y61942D01*
X51594Y61806D01*
X51458Y61629D01*
X51372Y61422D01*
X51357Y61307D01*
X50767D01*
X50713Y61388D01*
X50609Y61457D01*
X50487Y61481D01*
X49929D01*
X49925Y61482D01*
X46900D01*
X46866Y61475D01*
X45950D01*
Y60431D01*
X43076D01*
X42959Y60408D01*
X42859Y60341D01*
X42859Y60341D01*
X42634Y60116D01*
X42573Y60025D01*
X41899D01*
X41839Y60225D01*
X41860Y60240D01*
X41971Y60405D01*
X42010Y60600D01*
X41971Y60795D01*
X41925Y60864D01*
X41877Y61011D01*
X41925Y61158D01*
X41971Y61227D01*
X42010Y61422D01*
X41971Y61617D01*
X41860Y61782D01*
X41695Y61893D01*
X41500Y61932D01*
X41305Y61893D01*
X41139Y61782D01*
X41029Y61617D01*
X40990Y61422D01*
X40999Y61380D01*
X40731Y61112D01*
X40484Y61127D01*
X40477Y61132D01*
X40460Y61157D01*
X40295Y61268D01*
X40100Y61306D01*
X39905Y61268D01*
X39740Y61157D01*
X39629Y60992D01*
X39590Y60797D01*
X39629Y60602D01*
X39740Y60436D01*
X39905Y60326D01*
X39973Y60312D01*
X39977Y60304D01*
X39997Y60190D01*
X39850Y60032D01*
X39713Y60005D01*
X39598Y59927D01*
X39520Y59812D01*
X39493Y59675D01*
Y58475D01*
X39516Y58359D01*
X39509Y58321D01*
X39400Y58159D01*
X35458D01*
Y58841D01*
X36437D01*
X36455Y58829D01*
X36650Y58790D01*
X36845Y58829D01*
X37010Y58940D01*
X37121Y59105D01*
X37160Y59300D01*
X37121Y59495D01*
X37109Y59513D01*
Y59718D01*
X37109Y59718D01*
X37213Y59787D01*
X37282Y59891D01*
X37306Y60013D01*
Y60268D01*
X38300D01*
X38334Y60275D01*
X39250D01*
Y60975D01*
X38334D01*
X38300Y60982D01*
X37446D01*
X37389Y61075D01*
X37500Y61275D01*
X39250D01*
Y61692D01*
X39323Y61756D01*
X39409Y61811D01*
X39450Y61820D01*
X39600Y61790D01*
X39795Y61829D01*
X39960Y61940D01*
X39960Y61940D01*
X40140D01*
X40305Y61829D01*
X40500Y61790D01*
X40695Y61829D01*
X40860Y61940D01*
X40971Y62105D01*
X41010Y62300D01*
X40971Y62495D01*
X40860Y62660D01*
X40695Y62771D01*
X40500Y62810D01*
X40448Y62799D01*
X39656Y63592D01*
Y64399D01*
X39656Y64399D01*
X39633Y64516D01*
X39566Y64616D01*
X39566Y64616D01*
X39391Y64791D01*
X39291Y64858D01*
X39250Y64866D01*
Y65768D01*
X40084D01*
X41595Y64257D01*
Y63606D01*
X41622Y63470D01*
X41699Y63354D01*
X42080Y62973D01*
X42196Y62896D01*
X42333Y62868D01*
X42871D01*
X43008Y62896D01*
X43123Y62973D01*
X43504Y63354D01*
X43581Y63470D01*
X43588Y63503D01*
X44881Y64796D01*
X45099Y64742D01*
X45124Y64637D01*
X45029Y64495D01*
X44990Y64300D01*
X45029Y64105D01*
X45140Y63940D01*
X45305Y63829D01*
X45500Y63790D01*
X45660Y63822D01*
X45675Y63819D01*
X45950D01*
Y63775D01*
X47850D01*
X47878Y63752D01*
Y63656D01*
X47687Y63475D01*
X46934D01*
X46900Y63482D01*
X46000D01*
X45966Y63475D01*
X45950D01*
Y63472D01*
X45863Y63455D01*
X45748Y63377D01*
X45667Y63296D01*
X45600Y63310D01*
X45405Y63271D01*
X45239Y63160D01*
X45129Y62995D01*
X45090Y62800D01*
X45129Y62605D01*
X45239Y62440D01*
X45405Y62329D01*
X45600Y62290D01*
X45750Y62320D01*
X45792Y62311D01*
X45877Y62257D01*
X45950Y62192D01*
Y61775D01*
X46866D01*
X46900Y61768D01*
X49875D01*
X50004Y61794D01*
X50487D01*
X50609Y61818D01*
X50713Y61887D01*
X50782Y61991D01*
X50806Y62112D01*
Y62343D01*
X53899D01*
X53912Y62248D01*
X53998Y62041D01*
X54134Y61864D01*
X54311Y61728D01*
X54518Y61642D01*
X54740Y61613D01*
X54962Y61642D01*
X55169Y61728D01*
X55346Y61864D01*
X55482Y62041D01*
X55568Y62248D01*
X55597Y62470D01*
X55568Y62692D01*
X55482Y62899D01*
X55346Y63076D01*
X55169Y63212D01*
X54962Y63298D01*
X54740Y63327D01*
X54518Y63298D01*
X54311Y63212D01*
X54134Y63076D01*
X54119Y63057D01*
X52999D01*
X52901Y63257D01*
X52942Y63311D01*
X53028Y63518D01*
X53057Y63740D01*
X53028Y63962D01*
X52942Y64169D01*
X52806Y64346D01*
X52629Y64482D01*
X52422Y64568D01*
X52200Y64597D01*
X51978Y64568D01*
X51771Y64482D01*
X51594Y64346D01*
X51458Y64169D01*
X51372Y63962D01*
X51343Y63740D01*
X51226Y63607D01*
X50937D01*
X50805Y63807D01*
X50806Y63812D01*
Y64488D01*
X50782Y64609D01*
X50713Y64713D01*
X50609Y64782D01*
X50487Y64806D01*
X49713D01*
X49606Y64785D01*
X49583Y64787D01*
X49406Y64899D01*
Y64988D01*
X49382Y65109D01*
X49378Y65115D01*
X49329Y65262D01*
X49378Y65410D01*
X49382Y65416D01*
X49406Y65537D01*
Y66213D01*
X49386Y66311D01*
X49400Y66325D01*
Y67125D01*
X49200Y67325D01*
X48200D01*
X48040Y67371D01*
X48000Y67408D01*
Y68200D01*
X47975Y68225D01*
X48058Y68425D01*
X48935D01*
Y68900D01*
X48960Y69025D01*
X48935Y69150D01*
Y70234D01*
X49135Y70267D01*
X49190Y70200D01*
X49225Y70025D01*
X49195Y69875D01*
Y68925D01*
X49234Y68730D01*
X49345Y68565D01*
X49510Y68454D01*
X49705Y68415D01*
X49900Y68454D01*
X50065Y68565D01*
X50176Y68730D01*
X50215Y68925D01*
Y69875D01*
X50181Y70044D01*
X50193Y70062D01*
X50352Y70149D01*
X50441Y70110D01*
X50458Y70025D01*
X50487Y69982D01*
X50465Y69875D01*
Y68925D01*
X50504Y68730D01*
X50615Y68565D01*
X50780Y68454D01*
X50975Y68415D01*
X51170Y68454D01*
X51335Y68565D01*
X51446Y68730D01*
X51485Y68925D01*
Y69875D01*
X51446Y70070D01*
X51426Y70100D01*
X51457Y70242D01*
X51505Y70300D01*
X55796D01*
Y57204D01*
D02*
G37*
G36*
X70694Y67708D02*
X59306D01*
Y72292D01*
X70694D01*
Y67708D01*
D02*
G37*
G36*
X98694Y65700D02*
X87306D01*
Y70300D01*
X98694D01*
Y65700D01*
D02*
G37*
G36*
X70694Y62700D02*
X59306D01*
Y67300D01*
X70694D01*
Y62700D01*
D02*
G37*
G36*
X6485Y62223D02*
X8294Y60414D01*
Y59763D01*
X8314Y59664D01*
X8300Y59650D01*
Y58850D01*
X8282Y58840D01*
X8158Y58826D01*
X8000Y58983D01*
Y59750D01*
X7000D01*
Y58927D01*
X6984Y58916D01*
X6917Y58817D01*
X6894Y58700D01*
Y58100D01*
X6917Y57983D01*
X6984Y57884D01*
X7083Y57817D01*
X7200Y57794D01*
X7800D01*
X7917Y57817D01*
X8016Y57884D01*
X8083Y57983D01*
X8095Y58043D01*
X8298D01*
X8318Y57941D01*
X8387Y57837D01*
X8491Y57768D01*
X8613Y57744D01*
X9387D01*
X9509Y57768D01*
X9613Y57837D01*
X9682Y57941D01*
X9706Y58062D01*
Y58719D01*
X9749Y58755D01*
X9895Y58813D01*
X11304Y57404D01*
X11221Y57204D01*
X6204D01*
Y62283D01*
X6404Y62344D01*
X6485Y62223D01*
D02*
G37*
G36*
X80694Y47700D02*
X69306D01*
Y52300D01*
X80694D01*
Y47700D01*
D02*
G37*
G36*
X63000Y47204D02*
X41565Y47204D01*
X41552Y47201D01*
X41539Y47202D01*
X41500Y47197D01*
X41461Y47202D01*
X41448Y47201D01*
X41435Y47204D01*
X40066D01*
X40052Y47201D01*
X40039Y47202D01*
X40000Y47197D01*
X39961Y47202D01*
X39948Y47201D01*
X39935Y47204D01*
X38566D01*
X38552Y47201D01*
X38539Y47202D01*
X38500Y47197D01*
X38461Y47202D01*
X38448Y47201D01*
X38435Y47204D01*
X31565Y47204D01*
X31552Y47201D01*
X31539Y47202D01*
X31500Y47197D01*
X31461Y47202D01*
X31448Y47201D01*
X31434Y47204D01*
X27565D01*
X27552Y47201D01*
X27539Y47202D01*
X27500Y47197D01*
X27461Y47202D01*
X27448Y47201D01*
X27434Y47204D01*
X23566D01*
X23552Y47201D01*
X23539Y47202D01*
X23500Y47197D01*
X23461Y47202D01*
X23448Y47201D01*
X23434Y47204D01*
X19566D01*
X19552Y47201D01*
X19539Y47202D01*
X19500Y47197D01*
X19461Y47202D01*
X19448Y47201D01*
X19434Y47204D01*
X15566D01*
X15552Y47201D01*
X15539Y47202D01*
X15500Y47197D01*
X15461Y47202D01*
X15448Y47201D01*
X15434Y47204D01*
X14066D01*
X14052Y47201D01*
X14039Y47202D01*
X14000Y47197D01*
X13961Y47202D01*
X13948Y47201D01*
X13934Y47204D01*
X12566D01*
X12552Y47201D01*
X12539Y47202D01*
X12500Y47197D01*
X12461Y47202D01*
X12448Y47201D01*
X12434Y47204D01*
X6000D01*
Y53000D01*
X63000D01*
Y47204D01*
D02*
G37*
G36*
X98694Y43700D02*
X87306D01*
Y48300D01*
X98694D01*
Y43700D01*
D02*
G37*
G36*
X80694Y42708D02*
X69306D01*
Y47292D01*
X80694D01*
Y42708D01*
D02*
G37*
G36*
X12434Y47000D02*
X12500Y46991D01*
X12566Y47000D01*
X13934D01*
X14000Y46991D01*
X14066Y47000D01*
X15434D01*
X15500Y46991D01*
X15566Y47000D01*
X19434D01*
X19500Y46991D01*
X19566Y47000D01*
X23434D01*
X23500Y46991D01*
X23566Y47000D01*
X27434D01*
X27500Y46991D01*
X27565Y47000D01*
X31434D01*
X31500Y46991D01*
X31565Y47000D01*
X38435Y47000D01*
X38500Y46991D01*
X38566Y47000D01*
X39935D01*
X40000Y46991D01*
X40066Y47000D01*
X41435D01*
X41500Y46991D01*
X41565Y47000D01*
X63000Y47000D01*
Y41000D01*
X55066D01*
X55000Y41009D01*
X54934Y41000D01*
X53566D01*
X53500Y41009D01*
X53434Y41000D01*
X52066D01*
X52000Y41009D01*
X51934Y41000D01*
X49066D01*
X49000Y41009D01*
X48934Y41000D01*
X47566D01*
X47500Y41009D01*
X47434Y41000D01*
X46066D01*
X46000Y41009D01*
X45934Y41000D01*
X43066D01*
X43000Y41009D01*
X42934Y41000D01*
X41566D01*
X41500Y41009D01*
X41434Y41000D01*
X40066D01*
X40000Y41009D01*
X39934Y41000D01*
X29066Y41000D01*
X29000Y41009D01*
X28934Y41000D01*
X27566D01*
X27500Y41009D01*
X27434Y41000D01*
X26066D01*
X26000Y41009D01*
X25934Y41000D01*
X23066D01*
X23000Y41009D01*
X22934Y41000D01*
X21566D01*
X21500Y41009D01*
X21434Y41000D01*
X20066D01*
X20000Y41009D01*
X19934Y41000D01*
X17066D01*
X17000Y41009D01*
X16934Y41000D01*
X15566D01*
X15500Y41009D01*
X15434Y41000D01*
X14066D01*
X14000Y41009D01*
X13934Y41000D01*
X6000D01*
Y47000D01*
X12434D01*
D02*
G37*
G36*
X14039Y40798D02*
X14052Y40799D01*
X14066Y40796D01*
X15434D01*
X15448Y40799D01*
X15461Y40798D01*
X15500Y40803D01*
X15539Y40798D01*
X15552Y40799D01*
X15566Y40796D01*
X16934D01*
X16948Y40799D01*
X16961Y40798D01*
X17000Y40803D01*
X17039Y40798D01*
X17052Y40799D01*
X17066Y40796D01*
X18000D01*
Y31000D01*
X13000D01*
Y40796D01*
X13934D01*
X13948Y40799D01*
X13961Y40798D01*
X14000Y40803D01*
X14039Y40798D01*
D02*
G37*
G36*
X29039Y40798D02*
X29052Y40799D01*
X29066Y40796D01*
X30000D01*
Y31000D01*
X25000D01*
Y40796D01*
X25934D01*
X25948Y40799D01*
X25961Y40798D01*
X26000Y40803D01*
X26039Y40798D01*
X26052Y40799D01*
X26066Y40796D01*
X27434D01*
X27448Y40799D01*
X27461Y40798D01*
X27500Y40803D01*
X27539Y40798D01*
X27552Y40799D01*
X27566Y40796D01*
X28934D01*
X28948Y40799D01*
X28961Y40798D01*
X29000Y40803D01*
X29039Y40798D01*
D02*
G37*
G36*
X23039D02*
X23052Y40799D01*
X23066Y40796D01*
X24000D01*
Y31000D01*
X19000D01*
Y40796D01*
X19934D01*
X19948Y40799D01*
X19961Y40798D01*
X20000Y40803D01*
X20039Y40798D01*
X20052Y40799D01*
X20066Y40796D01*
X21434D01*
X21448Y40799D01*
X21461Y40798D01*
X21500Y40803D01*
X21539Y40798D01*
X21552Y40799D01*
X21566Y40796D01*
X22934D01*
X22948Y40799D01*
X22961Y40798D01*
X23000Y40803D01*
X23039Y40798D01*
D02*
G37*
G36*
X52039Y40798D02*
X52052Y40799D01*
X52066Y40796D01*
X53434D01*
X53448Y40799D01*
X53461Y40798D01*
X53500Y40803D01*
X53539Y40798D01*
X53552Y40799D01*
X53566Y40796D01*
X54934D01*
X54948Y40799D01*
X54961Y40798D01*
X55000Y40803D01*
X55039Y40798D01*
X55052Y40799D01*
X55066Y40796D01*
X56000D01*
Y31000D01*
X51000D01*
Y40796D01*
X51934D01*
X51948Y40799D01*
X51961Y40798D01*
X52000Y40803D01*
X52039Y40798D01*
D02*
G37*
G36*
X49039D02*
X49052Y40799D01*
X49066Y40796D01*
X50000D01*
Y31000D01*
X45000D01*
Y40796D01*
X45934D01*
X45948Y40799D01*
X45961Y40798D01*
X46000Y40803D01*
X46039Y40798D01*
X46052Y40799D01*
X46066Y40796D01*
X47434D01*
X47448Y40799D01*
X47461Y40798D01*
X47500Y40803D01*
X47539Y40798D01*
X47552Y40799D01*
X47566Y40796D01*
X48934D01*
X48948Y40799D01*
X48961Y40798D01*
X49000Y40803D01*
X49039Y40798D01*
D02*
G37*
G36*
X43039D02*
X43052Y40799D01*
X43066Y40796D01*
X44000D01*
Y31000D01*
X39000D01*
Y40796D01*
X39934D01*
X39948Y40799D01*
X39961Y40798D01*
X40000Y40803D01*
X40039Y40798D01*
X40052Y40799D01*
X40066Y40796D01*
X41434D01*
X41448Y40799D01*
X41461Y40798D01*
X41500Y40803D01*
X41539Y40798D01*
X41552Y40799D01*
X41566Y40796D01*
X42934D01*
X42948Y40799D01*
X42961Y40798D01*
X43000Y40803D01*
X43039Y40798D01*
D02*
G37*
G36*
X98694Y38708D02*
X87306D01*
Y43292D01*
X98694D01*
Y38708D01*
D02*
G37*
G36*
X80694Y37700D02*
X69306D01*
Y42300D01*
X80694D01*
Y37700D01*
D02*
G37*
G36*
X98694Y33700D02*
X87306D01*
Y38300D01*
X98694D01*
Y33700D01*
D02*
G37*
G36*
X73500Y27800D02*
Y22204D01*
X72565D01*
X72552Y22201D01*
X72539Y22202D01*
X72500Y22197D01*
X72461Y22202D01*
X72448Y22201D01*
X72435Y22204D01*
X71065D01*
X71052Y22201D01*
X71039Y22202D01*
X71000Y22197D01*
X70961Y22202D01*
X70948Y22201D01*
X70935Y22204D01*
X69565D01*
X69552Y22201D01*
X69539Y22202D01*
X69500Y22197D01*
X69461Y22202D01*
X69448Y22201D01*
X69435Y22204D01*
X60566D01*
X60552Y22201D01*
X60539Y22202D01*
X60500Y22197D01*
X60461Y22202D01*
X60448Y22201D01*
X60435Y22204D01*
X56566D01*
X56552Y22201D01*
X56539Y22202D01*
X56500Y22197D01*
X56461Y22202D01*
X56448Y22201D01*
X56435Y22204D01*
X52566D01*
X52552Y22201D01*
X52539Y22202D01*
X52500Y22197D01*
X52461Y22202D01*
X52448Y22201D01*
X52435Y22204D01*
X48566D01*
X48552Y22201D01*
X48539Y22202D01*
X48500Y22197D01*
X48461Y22202D01*
X48448Y22201D01*
X48435Y22204D01*
X46566D01*
X46552Y22201D01*
X46539Y22202D01*
X46500Y22197D01*
X46461Y22202D01*
X46448Y22201D01*
X46435Y22204D01*
X45066D01*
X45052Y22201D01*
X45039Y22202D01*
X45000Y22197D01*
X44961Y22202D01*
X44948Y22201D01*
X44935Y22204D01*
X43566D01*
X43552Y22201D01*
X43539Y22202D01*
X43500Y22197D01*
X43461Y22202D01*
X43448Y22201D01*
X43435Y22204D01*
X34566Y22204D01*
X34552Y22201D01*
X34539Y22202D01*
X34500Y22197D01*
X34461Y22202D01*
X34448Y22201D01*
X34434Y22204D01*
X30566D01*
X30552Y22201D01*
X30539Y22202D01*
X30500Y22197D01*
X30461Y22202D01*
X30448Y22201D01*
X30434Y22204D01*
X26566D01*
X26552Y22201D01*
X26539Y22202D01*
X26500Y22197D01*
X26461Y22202D01*
X26448Y22201D01*
X26434Y22204D01*
X22566D01*
X22552Y22201D01*
X22539Y22202D01*
X22500Y22197D01*
X22461Y22202D01*
X22448Y22201D01*
X22434Y22204D01*
X20566D01*
X20552Y22201D01*
X20539Y22202D01*
X20500Y22197D01*
X20461Y22202D01*
X20448Y22201D01*
X20434Y22204D01*
X19066D01*
X19052Y22201D01*
X19039Y22202D01*
X19000Y22197D01*
X18961Y22202D01*
X18948Y22201D01*
X18934Y22204D01*
X17566D01*
X17552Y22201D01*
X17539Y22202D01*
X17500Y22197D01*
X17461Y22202D01*
X17448Y22201D01*
X17434Y22204D01*
X6000D01*
X6000Y22204D01*
Y27800D01*
X73500Y27800D01*
D02*
G37*
G36*
X17434Y22000D02*
X17500Y21991D01*
X17566Y22000D01*
X18934D01*
X19000Y21991D01*
X19066Y22000D01*
X20434D01*
X20500Y21991D01*
X20566Y22000D01*
X22434D01*
X22500Y21991D01*
X22566Y22000D01*
X26434D01*
X26500Y21991D01*
X26566Y22000D01*
X30434D01*
X30500Y21991D01*
X30566Y22000D01*
X34434D01*
X34500Y21991D01*
X34566Y22000D01*
X43435Y22000D01*
X43500Y21991D01*
X43566Y22000D01*
X44935D01*
X45000Y21991D01*
X45066Y22000D01*
X46435D01*
X46500Y21991D01*
X46566Y22000D01*
X48435D01*
X48500Y21991D01*
X48566Y22000D01*
X52435D01*
X52500Y21991D01*
X52566Y22000D01*
X56435D01*
X56500Y21991D01*
X56566Y22000D01*
X60435D01*
X60500Y21991D01*
X60566Y22000D01*
X69435D01*
X69500Y21991D01*
X69565Y22000D01*
X70935D01*
X71000Y21991D01*
X71065Y22000D01*
X72435D01*
X72500Y21991D01*
X72565Y22000D01*
X73500D01*
X73500Y16000D01*
X72566D01*
X72500Y16009D01*
X72434Y16000D01*
X71066D01*
X71000Y16009D01*
X70934Y16000D01*
X60066D01*
X60000Y16009D01*
X59934Y16000D01*
X58566D01*
X58500Y16009D01*
X58434Y16000D01*
X57066D01*
X57000Y16009D01*
X56934Y16000D01*
X54066D01*
X54000Y16009D01*
X53934Y16000D01*
X52566D01*
X52500Y16009D01*
X52434Y16000D01*
X51066D01*
X51000Y16009D01*
X50934Y16000D01*
X48066D01*
X48000Y16009D01*
X47934Y16000D01*
X46566D01*
X46500Y16009D01*
X46434Y16000D01*
X45066D01*
X45000Y16009D01*
X44934Y16000D01*
X34066Y16000D01*
X34000Y16009D01*
X33934Y16000D01*
X32566D01*
X32500Y16009D01*
X32434Y16000D01*
X31066D01*
X31000Y16009D01*
X30934Y16000D01*
X28066D01*
X28000Y16009D01*
X27934Y16000D01*
X26566D01*
X26500Y16009D01*
X26434Y16000D01*
X25066D01*
X25000Y16009D01*
X24934Y16000D01*
X22066D01*
X22000Y16009D01*
X21934Y16000D01*
X20566D01*
X20500Y16009D01*
X20434Y16000D01*
X19066D01*
X19000Y16009D01*
X18934Y16000D01*
X6000D01*
X6000Y22000D01*
X17434D01*
D02*
G37*
G36*
X34039Y15798D02*
X34052Y15799D01*
X34066Y15796D01*
X35000D01*
Y6000D01*
X30000D01*
Y15796D01*
X30934D01*
X30948Y15799D01*
X30961Y15798D01*
X31000Y15803D01*
X31039Y15798D01*
X31052Y15799D01*
X31066Y15796D01*
X32434D01*
X32448Y15799D01*
X32461Y15798D01*
X32500Y15803D01*
X32539Y15798D01*
X32552Y15799D01*
X32566Y15796D01*
X33934D01*
X33948Y15799D01*
X33961Y15798D01*
X34000Y15803D01*
X34039Y15798D01*
D02*
G37*
G36*
X28039D02*
X28052Y15799D01*
X28066Y15796D01*
X29000D01*
Y6000D01*
X24000D01*
Y15796D01*
X24934D01*
X24948Y15799D01*
X24961Y15798D01*
X25000Y15803D01*
X25039Y15798D01*
X25052Y15799D01*
X25066Y15796D01*
X26434D01*
X26448Y15799D01*
X26461Y15798D01*
X26500Y15803D01*
X26539Y15798D01*
X26552Y15799D01*
X26566Y15796D01*
X27934D01*
X27948Y15799D01*
X27961Y15798D01*
X28000Y15803D01*
X28039Y15798D01*
D02*
G37*
G36*
X22039D02*
X22052Y15799D01*
X22066Y15796D01*
X23000D01*
Y6000D01*
X18000D01*
Y15796D01*
X18934D01*
X18948Y15799D01*
X18961Y15798D01*
X19000Y15803D01*
X19039Y15798D01*
X19052Y15799D01*
X19066Y15796D01*
X20434D01*
X20448Y15799D01*
X20461Y15798D01*
X20500Y15803D01*
X20539Y15798D01*
X20552Y15799D01*
X20566Y15796D01*
X21934D01*
X21948Y15799D01*
X21961Y15798D01*
X22000Y15803D01*
X22039Y15798D01*
D02*
G37*
G36*
X60039Y15798D02*
X60052Y15799D01*
X60066Y15796D01*
X61000D01*
Y6000D01*
X56000D01*
Y15796D01*
X56934D01*
X56948Y15799D01*
X56961Y15798D01*
X57000Y15803D01*
X57039Y15798D01*
X57052Y15799D01*
X57066Y15796D01*
X58434D01*
X58448Y15799D01*
X58461Y15798D01*
X58500Y15803D01*
X58539Y15798D01*
X58552Y15799D01*
X58566Y15796D01*
X59934D01*
X59948Y15799D01*
X59961Y15798D01*
X60000Y15803D01*
X60039Y15798D01*
D02*
G37*
G36*
X54039D02*
X54052Y15799D01*
X54066Y15796D01*
X55000D01*
Y6000D01*
X50000D01*
Y15796D01*
X50934D01*
X50948Y15799D01*
X50961Y15798D01*
X51000Y15803D01*
X51039Y15798D01*
X51052Y15799D01*
X51066Y15796D01*
X52434D01*
X52448Y15799D01*
X52461Y15798D01*
X52500Y15803D01*
X52539Y15798D01*
X52552Y15799D01*
X52566Y15796D01*
X53934D01*
X53948Y15799D01*
X53961Y15798D01*
X54000Y15803D01*
X54039Y15798D01*
D02*
G37*
G36*
X48039D02*
X48052Y15799D01*
X48066Y15796D01*
X49000D01*
Y6000D01*
X44000D01*
Y15796D01*
X44934D01*
X44948Y15799D01*
X44961Y15798D01*
X45000Y15803D01*
X45039Y15798D01*
X45052Y15799D01*
X45066Y15796D01*
X46434D01*
X46448Y15799D01*
X46461Y15798D01*
X46500Y15803D01*
X46539Y15798D01*
X46552Y15799D01*
X46566Y15796D01*
X47934D01*
X47948Y15799D01*
X47961Y15798D01*
X48000Y15803D01*
X48039Y15798D01*
D02*
G37*
G36*
X75000Y6000D02*
X70000D01*
Y15796D01*
X70934D01*
X70948Y15799D01*
X70961Y15798D01*
X71000Y15803D01*
X71039Y15798D01*
X71052Y15799D01*
X71066Y15796D01*
X72434D01*
X72448Y15799D01*
X72461Y15798D01*
X72500Y15803D01*
X72539Y15798D01*
X72552Y15799D01*
X72566Y15796D01*
X73500D01*
X73578Y15812D01*
X73644Y15856D01*
X73688Y15922D01*
X73704Y16000D01*
Y16000D01*
X75000D01*
Y6000D01*
D02*
G37*
G36*
X87000D02*
X82000D01*
Y16000D01*
X87000D01*
Y6000D01*
D02*
G37*
G36*
X81000D02*
X76000D01*
Y16000D01*
X81000D01*
Y6000D01*
D02*
G37*
%LPC*%
G36*
X15500Y76569D02*
X12500D01*
X12422Y76553D01*
X12356Y76509D01*
X12312Y76443D01*
X12296Y76365D01*
Y74850D01*
X12312Y74772D01*
X12356Y74706D01*
X12422Y74662D01*
X12500Y74646D01*
X13300D01*
Y73350D01*
X14700D01*
Y74646D01*
X15308D01*
X15310Y74645D01*
X15444Y74618D01*
X16956D01*
X17090Y74645D01*
X17204Y74721D01*
X17280Y74835D01*
X17307Y74969D01*
Y75831D01*
X17280Y75965D01*
X17204Y76079D01*
X17090Y76155D01*
X16956Y76182D01*
X15704D01*
Y76365D01*
X15688Y76443D01*
X15644Y76509D01*
X15578Y76553D01*
X15500Y76569D01*
D02*
G37*
G36*
X35066Y76932D02*
X34944Y76908D01*
X34840Y76839D01*
X34363Y76362D01*
X34307Y76278D01*
X34288D01*
X33722Y75712D01*
Y75693D01*
X33638Y75637D01*
X33161Y75160D01*
X33092Y75056D01*
X33068Y74934D01*
X33089Y74829D01*
X32984Y74808D01*
X32885Y74742D01*
X32460Y74317D01*
X32394Y74218D01*
X32371Y74101D01*
X32375Y74082D01*
X31793Y73500D01*
X32500Y72793D01*
X33082Y73375D01*
X33101Y73371D01*
X33218Y73394D01*
X33317Y73460D01*
X33742Y73885D01*
X33808Y73984D01*
X33829Y74089D01*
X33934Y74068D01*
X34056Y74092D01*
X34160Y74161D01*
X34637Y74638D01*
X34693Y74722D01*
X34712D01*
X35278Y75288D01*
Y75307D01*
X35362Y75363D01*
X35503Y75504D01*
X35628Y75529D01*
X35794Y75640D01*
X35904Y75805D01*
X35943Y76000D01*
X35931Y76060D01*
X35932Y76066D01*
X35908Y76188D01*
X35905Y76193D01*
X35904Y76195D01*
X35794Y76360D01*
X35721Y76409D01*
X35291Y76839D01*
X35188Y76908D01*
X35066Y76932D01*
D02*
G37*
G36*
X36566Y75432D02*
X36444Y75408D01*
X36340Y75339D01*
X36203Y75201D01*
X36100Y75181D01*
X35935Y75070D01*
X35824Y74905D01*
X35799Y74778D01*
X35788D01*
X35222Y74212D01*
Y74193D01*
X35138Y74137D01*
X34661Y73660D01*
X34592Y73556D01*
X34568Y73434D01*
X34589Y73329D01*
X34484Y73308D01*
X34385Y73242D01*
X33960Y72817D01*
X33894Y72718D01*
X33871Y72601D01*
X33875Y72582D01*
X33293Y72000D01*
X34000Y71293D01*
X34582Y71875D01*
X34601Y71871D01*
X34718Y71894D01*
X34817Y71960D01*
X35242Y72385D01*
X35308Y72484D01*
X35329Y72589D01*
X35434Y72568D01*
X35556Y72592D01*
X35660Y72661D01*
X36137Y73138D01*
X36193Y73222D01*
X36212D01*
X36778Y73788D01*
Y73807D01*
X36862Y73863D01*
X37339Y74340D01*
X37408Y74444D01*
X37432Y74566D01*
X37408Y74688D01*
X37339Y74791D01*
X36791Y75339D01*
X36688Y75408D01*
X36566Y75432D01*
D02*
G37*
G36*
X38066Y73932D02*
X37944Y73908D01*
X37840Y73839D01*
X37363Y73362D01*
X37307Y73278D01*
X37288D01*
X36722Y72712D01*
Y72693D01*
X36638Y72637D01*
X36161Y72160D01*
X36092Y72056D01*
X36068Y71934D01*
X36089Y71829D01*
X35984Y71808D01*
X35885Y71742D01*
X35460Y71317D01*
X35394Y71218D01*
X35371Y71101D01*
X35375Y71082D01*
X34793Y70500D01*
X35500Y69793D01*
X36082Y70375D01*
X36101Y70371D01*
X36218Y70394D01*
X36317Y70460D01*
X36742Y70885D01*
X36808Y70984D01*
X36829Y71089D01*
X36934Y71068D01*
X37056Y71092D01*
X37160Y71161D01*
X37637Y71638D01*
X37693Y71722D01*
X37712D01*
X38278Y72288D01*
Y72307D01*
X38362Y72363D01*
X38839Y72840D01*
X38908Y72944D01*
X38932Y73066D01*
X38908Y73188D01*
X38839Y73291D01*
X38665Y73465D01*
X38645Y73566D01*
X38534Y73731D01*
X38369Y73842D01*
X38253Y73865D01*
X38188Y73908D01*
X38066Y73932D01*
D02*
G37*
G36*
X39182Y72328D02*
X38986Y72289D01*
X38821Y72179D01*
X38711Y72014D01*
X38678Y71850D01*
X38227D01*
Y70550D01*
X39626D01*
Y71584D01*
X39653Y71623D01*
X39691Y71818D01*
X39653Y72014D01*
X39542Y72179D01*
X39377Y72289D01*
X39182Y72328D01*
D02*
G37*
G36*
X25775Y68400D02*
X24375D01*
Y67100D01*
X25775D01*
Y68400D01*
D02*
G37*
G36*
X17455Y62200D02*
X15555D01*
Y58800D01*
X17455D01*
Y62200D01*
D02*
G37*
G36*
X14915D02*
X13015D01*
Y61412D01*
X11600D01*
X11366Y61365D01*
X11256Y61292D01*
X11218Y61284D01*
X11127Y61223D01*
X11066Y61132D01*
X11051Y61059D01*
X11035Y61034D01*
X10988Y60800D01*
X11035Y60566D01*
X11051Y60541D01*
X11066Y60468D01*
X11127Y60377D01*
X11218Y60316D01*
X11256Y60308D01*
X11366Y60235D01*
X11600Y60188D01*
X13015D01*
Y58800D01*
X14915D01*
Y62200D01*
D02*
G37*
%LPD*%
G36*
X15500Y74850D02*
X12500D01*
Y76365D01*
X15500D01*
Y74850D01*
D02*
G37*
D10*
X89000Y36000D02*
D03*
Y41000D02*
D03*
Y46000D02*
D03*
X71000Y40000D02*
D03*
Y45000D02*
D03*
Y50000D02*
D03*
X89000Y68000D02*
D03*
Y73000D02*
D03*
Y78000D02*
D03*
X69000Y75000D02*
D03*
Y70000D02*
D03*
Y65000D02*
D03*
D11*
X39850Y59075D02*
D03*
D12*
X40350D02*
D03*
X40850D02*
D03*
X41350D02*
D03*
X41850D02*
D03*
X42350D02*
D03*
X42850D02*
D03*
X43350D02*
D03*
X43850D02*
D03*
X44350D02*
D03*
X44850D02*
D03*
X45350D02*
D03*
Y67675D02*
D03*
X44850D02*
D03*
X44350D02*
D03*
X43850D02*
D03*
X43350D02*
D03*
X42850D02*
D03*
X42350D02*
D03*
X41850D02*
D03*
X41350D02*
D03*
X40850D02*
D03*
X40350D02*
D03*
X39850D02*
D03*
D13*
X46900Y60625D02*
D03*
Y61125D02*
D03*
Y61625D02*
D03*
Y62125D02*
D03*
Y62625D02*
D03*
Y63125D02*
D03*
Y63625D02*
D03*
Y64125D02*
D03*
Y64625D02*
D03*
Y65125D02*
D03*
Y65625D02*
D03*
Y66125D02*
D03*
X38300D02*
D03*
Y65625D02*
D03*
Y65125D02*
D03*
Y64625D02*
D03*
Y64125D02*
D03*
Y63625D02*
D03*
Y63125D02*
D03*
Y62625D02*
D03*
Y62125D02*
D03*
Y61625D02*
D03*
Y61125D02*
D03*
Y60625D02*
D03*
D14*
X29770Y78050D02*
D03*
Y79750D02*
D03*
X44271Y74450D02*
D03*
Y76150D02*
D03*
X47100Y73465D02*
D03*
Y75165D02*
D03*
X47200Y57900D02*
D03*
Y59600D02*
D03*
X48700Y65875D02*
D03*
Y67575D02*
D03*
X45729Y74450D02*
D03*
Y76150D02*
D03*
X34300Y78050D02*
D03*
Y79750D02*
D03*
X9000Y58400D02*
D03*
Y60100D02*
D03*
X36600Y60350D02*
D03*
Y62050D02*
D03*
X35700Y63550D02*
D03*
Y65250D02*
D03*
X48700Y62950D02*
D03*
Y64650D02*
D03*
X50100Y64150D02*
D03*
Y62450D02*
D03*
Y60825D02*
D03*
Y59125D02*
D03*
X47300Y66950D02*
D03*
Y68650D02*
D03*
X48700Y58550D02*
D03*
Y60250D02*
D03*
D15*
X36899Y71899D02*
D03*
X38101Y73101D02*
D03*
X35101Y76101D02*
D03*
X33899Y74899D02*
D03*
X36601Y74601D02*
D03*
X35399Y73399D02*
D03*
D16*
X31150Y79700D02*
D03*
X32850D02*
D03*
X32869Y78300D02*
D03*
X31169D02*
D03*
X41250Y76100D02*
D03*
X42950D02*
D03*
X26673Y61574D02*
D03*
X24973D02*
D03*
X42050Y71200D02*
D03*
X43750D02*
D03*
X38350Y67225D02*
D03*
X36650D02*
D03*
X42395Y69375D02*
D03*
X44095D02*
D03*
D17*
X48435Y69400D02*
D03*
D18*
X49705D02*
D03*
X50975D02*
D03*
X52245D02*
D03*
X48435Y74800D02*
D03*
X49705D02*
D03*
X50975D02*
D03*
X52245D02*
D03*
D19*
X40826Y71200D02*
D03*
Y69100D02*
D03*
X38926D02*
D03*
Y71200D02*
D03*
D20*
X16505Y60500D02*
D03*
X15235Y65000D02*
D03*
X13965Y60500D02*
D03*
X12695Y65000D02*
D03*
X17775D02*
D03*
X19045Y60500D02*
D03*
X20315Y65000D02*
D03*
X21585Y60500D02*
D03*
D21*
X26675Y67750D02*
D03*
Y63650D02*
D03*
X25075Y67750D02*
D03*
Y63650D02*
D03*
D22*
X36101Y71101D02*
D03*
X34899Y69899D02*
D03*
X33399Y71399D02*
D03*
X34601Y72601D02*
D03*
X31899Y72899D02*
D03*
X33101Y74101D02*
D03*
D23*
X27200Y59500D02*
D03*
X24300D02*
D03*
D24*
X11600Y60800D02*
D03*
Y58300D02*
D03*
D25*
X14000Y74625D02*
D03*
X11700D02*
D03*
X9400D02*
D03*
D26*
X11700Y68775D02*
D03*
D27*
X7400Y77000D02*
D03*
Y74000D02*
D03*
X16200Y72400D02*
D03*
Y75400D02*
D03*
D28*
X7500Y60100D02*
D03*
Y58400D02*
D03*
D29*
X34100Y58350D02*
D03*
Y61250D02*
D03*
D30*
X49300Y64050D02*
X50100D01*
X34300Y79701D02*
X36049D01*
X45331Y65750D02*
X45869D01*
X43252Y63671D02*
X45331Y65750D01*
X43252Y63606D02*
Y63671D01*
X40232Y66125D02*
X41952Y64405D01*
X38300Y66125D02*
X40232D01*
X42333Y63225D02*
X42871D01*
X41952Y63606D02*
X42333Y63225D01*
X41952Y63606D02*
Y64405D01*
X42871Y63225D02*
X43252Y63606D01*
X41850Y65991D02*
X42353Y65488D01*
X41850Y65991D02*
Y67675D01*
X44950Y63069D02*
X45506Y63625D01*
X44950Y62100D02*
Y63069D01*
X45600Y62800D02*
X45675D01*
X45506Y63625D02*
X46900D01*
X46000Y63125D02*
X46900D01*
X45675Y62800D02*
X46000Y63125D01*
X26500Y80000D02*
X30850D01*
X45994Y65625D02*
X46900D01*
X45869Y65750D02*
X45994Y65625D01*
X51710Y63250D02*
X52200Y63740D01*
X49000Y63250D02*
X51710D01*
X48700Y62950D02*
X49000Y63250D01*
X50100Y60950D02*
X50200D01*
X51950D02*
X52200Y61200D01*
X50200Y60950D02*
X51950D01*
X48525Y60625D02*
X49125Y60025D01*
X54645D02*
X54740Y59930D01*
X49125Y60025D02*
X54645D01*
X50100Y60850D02*
X50200Y60950D01*
X54510Y62700D02*
X54740Y62470D01*
X50450Y62700D02*
X54510D01*
X50100Y62350D02*
X50450Y62700D01*
X30850Y80000D02*
X31150Y79700D01*
X30400Y75100D02*
X32069Y76769D01*
Y78919D01*
X29362Y73694D02*
X30400Y74733D01*
Y75100D01*
X32069Y78919D02*
X32850Y79700D01*
X42100Y75250D02*
X47100D01*
X28360Y73694D02*
X29362D01*
X28276Y73676D02*
X28342D01*
X28360Y73694D01*
X33101Y74101D02*
X33899Y74899D01*
X36101Y71101D02*
X36899Y71899D01*
X34601Y72601D02*
X35399Y73399D01*
X46628Y70220D02*
X48031D01*
X43908Y72939D02*
X46628Y70220D01*
X42736Y72939D02*
X43908D01*
X41999Y73676D02*
X42736Y72939D01*
X48031Y70220D02*
X48435Y69816D01*
X40721Y75250D02*
X41393D01*
X48435Y69400D02*
Y69816D01*
X42050Y69720D02*
Y71200D01*
X31150Y79700D02*
X31188Y79662D01*
Y78350D02*
Y79662D01*
X32850Y79700D02*
X32900Y79750D01*
X34300D01*
X34000Y77792D02*
X34041Y77750D01*
X34000Y77626D02*
Y77792D01*
X36049Y79351D02*
Y79701D01*
X42050Y69720D02*
X42395Y69375D01*
X7500Y58400D02*
X7500Y58400D01*
X9000D01*
X49700Y69800D02*
Y70100D01*
X50929Y69846D02*
Y70220D01*
X36049Y79351D02*
X37800Y77600D01*
X38926Y69100D02*
X39850Y68176D01*
Y67675D02*
Y68176D01*
X50929Y69846D02*
X50975Y69800D01*
X35700Y65250D02*
X35825Y65125D01*
X21675Y59800D02*
X22011D01*
X21375Y60100D02*
X21675Y59800D01*
X47100Y75165D02*
X48070D01*
X49600Y73300D02*
X51185D01*
X52245Y74360D01*
Y74800D01*
X51100Y75200D02*
X51200Y75100D01*
X50800Y74500D02*
X50800D01*
X51100Y74800D01*
X43971Y74750D02*
X44271Y74450D01*
X41893Y74750D02*
X43971D01*
X41393Y75250D02*
X41893Y74750D01*
X40400Y75571D02*
X40721Y75250D01*
X40400Y75571D02*
Y77385D01*
X39675Y78110D02*
X40400Y77385D01*
X40945Y76405D02*
X41250Y76100D01*
X40945Y76405D02*
Y80650D01*
X43901Y76520D02*
X44271Y76150D01*
X44755Y78110D02*
X45729Y77136D01*
Y76150D02*
Y77136D01*
X42215Y76835D02*
Y78110D01*
Y76835D02*
X42950Y76100D01*
X49435Y73465D02*
X49600Y73300D01*
X47100Y73465D02*
X49435D01*
X46115Y74450D02*
X47100Y73465D01*
X45729Y74450D02*
X46115D01*
X44271D02*
X45729D01*
X41250Y76100D02*
X42100Y75250D01*
X47100Y75165D02*
Y75250D01*
X47300Y66950D02*
Y67150D01*
Y66136D02*
Y66950D01*
X47289Y66125D02*
X47300Y66136D01*
X46900Y66125D02*
X47289D01*
X44950Y62100D02*
X45425Y61625D01*
X48375Y64650D02*
X48700D01*
X47900Y65125D02*
X48375Y64650D01*
X46900Y65125D02*
X47900D01*
X48700Y64650D02*
X49300Y64050D01*
X35825Y65125D02*
X38300D01*
X45425Y61625D02*
X46900D01*
X41850Y68830D02*
X42395Y69375D01*
X41850Y67675D02*
Y68830D01*
X39850Y67675D02*
X40350D01*
X40826Y69100D02*
X40850Y69076D01*
Y67675D02*
Y69076D01*
X38300Y67175D02*
X38350Y67225D01*
X38300Y66125D02*
Y67175D01*
X36600Y61930D02*
Y62050D01*
Y61930D02*
X37405Y61125D01*
X38300D01*
X36600Y60350D02*
X36875Y60625D01*
X38300D01*
X48450Y65625D02*
X48700Y65875D01*
X46900Y65625D02*
X48450D01*
X48375Y62625D02*
X48700Y62950D01*
X46900Y62625D02*
X48375D01*
X49875Y62125D02*
X50100Y62350D01*
X46900Y62125D02*
X49875D01*
X49925Y61125D02*
X50100Y60950D01*
X46900Y61125D02*
X49925D01*
X46900Y60625D02*
X48525D01*
D31*
X49400Y59250D02*
X50100D01*
X36600Y60350D02*
X36650Y60300D01*
Y59300D02*
Y60300D01*
X34100Y58350D02*
X35050Y59300D01*
X36650D01*
X40826Y71200D02*
X42050D01*
X34100Y58350D02*
X34750Y57700D01*
X47000D01*
X47200Y57900D01*
X47850Y58550D01*
X48700D01*
X49400Y59250D01*
D32*
X6917Y62656D02*
X9273Y60300D01*
X9336Y60236D02*
X11873Y57700D01*
X17600Y81300D02*
X40295D01*
X14800Y78500D02*
X17600Y81300D01*
X6917Y73517D02*
X7400Y74000D01*
X6917Y62656D02*
Y73517D01*
X11600Y60800D02*
X13665D01*
X13965Y60500D01*
X11873Y57700D02*
X24200D01*
X13965Y60500D02*
Y61209D01*
X24300Y59500D02*
X24973Y60173D01*
Y61574D01*
X24200Y57700D02*
X32700D01*
X24200D02*
X24300Y57800D01*
Y59500D01*
X13100Y78500D02*
X13975D01*
X14800D01*
X32700Y57700D02*
X33350Y58350D01*
X40295Y81300D02*
X40945Y80650D01*
X33350Y58350D02*
X34100D01*
D33*
X40850Y66143D02*
X42619Y64374D01*
X40850Y66143D02*
Y67675D01*
X42619Y63893D02*
Y64374D01*
X43245Y66445D02*
X43290Y66400D01*
X43155Y66445D02*
X43245D01*
X43400Y64800D02*
Y65316D01*
X42350Y66366D02*
X43400Y65316D01*
X43815Y66599D02*
Y67640D01*
Y66599D02*
X43815Y66599D01*
Y65788D02*
Y66599D01*
X44400Y66518D02*
X44415Y66503D01*
X42850Y66750D02*
X43155Y66445D01*
X45600Y65100D02*
X45601D01*
X45500Y64300D02*
X45675Y64125D01*
X46026Y64675D02*
X46900D01*
X45601Y65100D02*
X46026Y64675D01*
X42350Y66366D02*
Y67675D01*
X43290Y66400D02*
X43300D01*
X44400Y66518D02*
Y67625D01*
X18850Y63100D02*
X22250D01*
X17775Y64175D02*
X18850Y63100D01*
X17775Y64175D02*
Y64600D01*
X43815Y67640D02*
X43850Y67675D01*
X30451Y63100D02*
X30500D01*
X29839Y63712D02*
X30451Y63100D01*
X30500Y63900D02*
Y64053D01*
X29488Y64500D02*
X29839Y64149D01*
Y63712D02*
Y64149D01*
X29653Y64900D02*
X30500Y64053D01*
X43788Y70377D02*
X44600D01*
X43345Y69933D02*
X43788Y70377D01*
X43345Y67680D02*
Y69933D01*
X41473Y61422D02*
X41500D01*
X40850Y60799D02*
X41473Y61422D01*
X40850Y59075D02*
Y60799D01*
X40400Y59125D02*
Y60497D01*
X40100Y60797D02*
X40400Y60497D01*
X41400Y59075D02*
Y60500D01*
X39350Y63465D02*
X40500Y62315D01*
Y62300D02*
Y62315D01*
X39174Y64575D02*
X39350Y64399D01*
X38350Y64575D02*
X39174D01*
X39350Y63465D02*
Y64399D01*
X17995Y58876D02*
Y62905D01*
X17700Y63200D02*
X17995Y62905D01*
X16300Y63200D02*
X17700D01*
X15235Y64265D02*
Y65000D01*
Y64265D02*
X16300Y63200D01*
X20500Y62700D02*
X22452D01*
X19045Y61245D02*
X20500Y62700D01*
X19045Y60500D02*
Y61245D01*
X20500Y62089D02*
X20711Y62300D01*
X20500Y59210D02*
Y62089D01*
X19990Y58700D02*
X20500Y59210D01*
X20711Y62300D02*
X22618D01*
X18171Y58700D02*
X19990D01*
X17995Y58876D02*
X18171Y58700D01*
X24252Y64500D02*
X29488D01*
X22452Y62700D02*
X24252Y64500D01*
X24050Y64900D02*
X29653D01*
X22250Y63100D02*
X24050Y64900D01*
X25075Y63650D02*
X25200D01*
X23968D02*
X25075D01*
X22618Y62300D02*
X23968Y63650D01*
X19045Y60100D02*
Y60500D01*
X39350Y62550D02*
X39600Y62300D01*
X41400Y60500D02*
X41500Y60600D01*
X43076Y60125D02*
X46675D01*
X42850Y59899D02*
X43076Y60125D01*
X42850Y59075D02*
Y59899D01*
X40350Y59075D02*
X40400Y59125D01*
X37375Y62675D02*
X38300D01*
X36800Y63250D02*
X37375Y62675D01*
X36800Y63250D02*
Y63500D01*
X37225Y64125D02*
X38300D01*
X37050Y64300D02*
X37225Y64125D01*
X38300Y63125D02*
X39124D01*
X39350Y62899D01*
Y62550D02*
Y62899D01*
X38300Y62625D02*
Y62675D01*
Y64625D02*
X38350Y64575D01*
X42850Y66750D02*
Y67675D01*
X44350D02*
X44400Y67625D01*
X45675Y64125D02*
X46900D01*
Y64625D02*
Y64675D01*
X46675Y60125D02*
X47200Y59600D01*
X41350Y59075D02*
X41400D01*
X43345Y67680D02*
X43350Y67675D01*
D34*
X47300Y68650D02*
X47403D01*
X48478Y67575D01*
X48700D01*
D35*
X16000Y90600D02*
D03*
X21000D02*
D03*
X26000D02*
D03*
X43000D02*
D03*
X48000D02*
D03*
X53000D02*
D03*
X70000D02*
D03*
X75000D02*
D03*
X80000D02*
D03*
X60500Y49500D02*
D03*
Y43500D02*
D03*
X8500Y24500D02*
D03*
Y18500D02*
D03*
X65975D02*
D03*
Y24500D02*
D03*
X34975Y43500D02*
D03*
X8975Y49500D02*
D03*
X39975Y18500D02*
D03*
Y24500D02*
D03*
X8975Y43500D02*
D03*
X34975Y49500D02*
D03*
X13975Y18500D02*
D03*
Y24500D02*
D03*
X27500Y34000D02*
D03*
X53500D02*
D03*
X32500Y9000D02*
D03*
X58500D02*
D03*
X84500D02*
D03*
X21500Y34000D02*
D03*
X47500D02*
D03*
X26500Y9000D02*
D03*
X52500D02*
D03*
X78500D02*
D03*
X15500Y34000D02*
D03*
X41500D02*
D03*
X20500Y9000D02*
D03*
X46500D02*
D03*
X72500D02*
D03*
D36*
X79600Y68000D02*
D03*
Y73000D02*
D03*
Y78000D02*
D03*
X96000Y36000D02*
D03*
Y41000D02*
D03*
Y46000D02*
D03*
X78000Y40000D02*
D03*
Y45000D02*
D03*
Y50000D02*
D03*
X96000Y68000D02*
D03*
Y73000D02*
D03*
Y78000D02*
D03*
X62000Y75000D02*
D03*
Y70000D02*
D03*
Y65000D02*
D03*
D37*
X88000Y47500D02*
D03*
X89000D02*
D03*
X90000D02*
D03*
Y46500D02*
D03*
Y45500D02*
D03*
Y44500D02*
D03*
X89000D02*
D03*
X88000D02*
D03*
Y45500D02*
D03*
Y46500D02*
D03*
X89000D02*
D03*
Y45500D02*
D03*
X88000Y42500D02*
D03*
X89000D02*
D03*
X90000D02*
D03*
Y41500D02*
D03*
Y40500D02*
D03*
Y39500D02*
D03*
X89000D02*
D03*
X88000D02*
D03*
Y40500D02*
D03*
Y41500D02*
D03*
X89000D02*
D03*
Y40500D02*
D03*
Y36500D02*
D03*
Y35500D02*
D03*
X88000Y37500D02*
D03*
X90000D02*
D03*
Y34500D02*
D03*
X88000D02*
D03*
Y35500D02*
D03*
X90000D02*
D03*
Y36500D02*
D03*
X88000D02*
D03*
X89000Y37500D02*
D03*
Y34500D02*
D03*
X70000Y51500D02*
D03*
X71000D02*
D03*
X72000D02*
D03*
Y50500D02*
D03*
Y49500D02*
D03*
Y48500D02*
D03*
X71000D02*
D03*
X70000D02*
D03*
Y49500D02*
D03*
Y50500D02*
D03*
X71000D02*
D03*
Y49500D02*
D03*
X70000Y46500D02*
D03*
X71000D02*
D03*
X72000D02*
D03*
Y45500D02*
D03*
Y44500D02*
D03*
Y43500D02*
D03*
X71000D02*
D03*
X70000D02*
D03*
Y44500D02*
D03*
Y45500D02*
D03*
X71000D02*
D03*
Y44500D02*
D03*
Y40500D02*
D03*
Y39500D02*
D03*
X70000Y41500D02*
D03*
X72000D02*
D03*
Y38500D02*
D03*
X70000D02*
D03*
Y39500D02*
D03*
X72000D02*
D03*
Y40500D02*
D03*
X70000D02*
D03*
X71000Y41500D02*
D03*
Y38500D02*
D03*
X88000Y79500D02*
D03*
X89000D02*
D03*
X90000D02*
D03*
Y78500D02*
D03*
Y77500D02*
D03*
Y76500D02*
D03*
X89000D02*
D03*
X88000D02*
D03*
Y77500D02*
D03*
Y78500D02*
D03*
X89000D02*
D03*
Y77500D02*
D03*
X88000Y74500D02*
D03*
X89000D02*
D03*
X90000D02*
D03*
Y73500D02*
D03*
Y72500D02*
D03*
Y71500D02*
D03*
X89000D02*
D03*
X88000D02*
D03*
Y72500D02*
D03*
Y73500D02*
D03*
X89000D02*
D03*
Y72500D02*
D03*
Y68500D02*
D03*
Y67500D02*
D03*
X88000Y69500D02*
D03*
X90000D02*
D03*
Y66500D02*
D03*
X88000D02*
D03*
Y67500D02*
D03*
X90000D02*
D03*
Y68500D02*
D03*
X88000D02*
D03*
X89000Y69500D02*
D03*
Y66500D02*
D03*
X70000Y63500D02*
D03*
X69000D02*
D03*
X68000D02*
D03*
Y64500D02*
D03*
Y65500D02*
D03*
Y66500D02*
D03*
X69000D02*
D03*
X70000D02*
D03*
Y65500D02*
D03*
Y64500D02*
D03*
X69000D02*
D03*
Y65500D02*
D03*
X70000Y68500D02*
D03*
X69000D02*
D03*
X68000D02*
D03*
Y69500D02*
D03*
Y70500D02*
D03*
Y71500D02*
D03*
X69000D02*
D03*
X70000D02*
D03*
Y70500D02*
D03*
Y69500D02*
D03*
X69000D02*
D03*
Y70500D02*
D03*
Y74500D02*
D03*
Y75500D02*
D03*
X70000Y73500D02*
D03*
X68000D02*
D03*
Y76500D02*
D03*
X70000D02*
D03*
Y75500D02*
D03*
X68000D02*
D03*
Y74500D02*
D03*
X70000D02*
D03*
X69000Y73500D02*
D03*
Y76500D02*
D03*
X9175Y60200D02*
D03*
D38*
X51500Y44000D02*
D03*
X43500Y50000D02*
D03*
X45500Y48000D02*
D03*
Y52000D02*
D03*
X47500Y50000D02*
D03*
X49500Y48000D02*
D03*
Y52000D02*
D03*
X51500Y50000D02*
D03*
X49500Y46000D02*
D03*
Y42000D02*
D03*
X47500Y44000D02*
D03*
X45500Y46000D02*
D03*
Y42000D02*
D03*
X43500Y44000D02*
D03*
X54000Y45000D02*
D03*
X55500D02*
D03*
X57000D02*
D03*
Y43500D02*
D03*
X55500D02*
D03*
X54000D02*
D03*
Y42000D02*
D03*
X55500D02*
D03*
X57000D02*
D03*
X54000Y51000D02*
D03*
X55500D02*
D03*
X57000D02*
D03*
Y49500D02*
D03*
X55500D02*
D03*
X54000D02*
D03*
Y48000D02*
D03*
X55500D02*
D03*
X57000D02*
D03*
X62500Y19000D02*
D03*
Y25000D02*
D03*
X36500Y19000D02*
D03*
Y25000D02*
D03*
X32500D02*
D03*
Y19000D02*
D03*
X34500Y27000D02*
D03*
Y23000D02*
D03*
Y17000D02*
D03*
Y21000D02*
D03*
X43500Y17000D02*
D03*
X46500Y18500D02*
D03*
X43500D02*
D03*
Y20000D02*
D03*
X45000D02*
D03*
Y18500D02*
D03*
X46500Y20000D02*
D03*
Y17000D02*
D03*
X45000D02*
D03*
X43500Y23000D02*
D03*
X46500Y24500D02*
D03*
X43500D02*
D03*
Y26000D02*
D03*
X45000D02*
D03*
Y24500D02*
D03*
X46500Y26000D02*
D03*
Y23000D02*
D03*
X45000D02*
D03*
X30500Y21000D02*
D03*
Y17000D02*
D03*
Y23000D02*
D03*
Y27000D02*
D03*
X69500Y17000D02*
D03*
X72500Y18500D02*
D03*
X69500D02*
D03*
Y20000D02*
D03*
X71000D02*
D03*
Y18500D02*
D03*
X72500Y20000D02*
D03*
Y17000D02*
D03*
X71000D02*
D03*
X69500Y23000D02*
D03*
X72500Y24500D02*
D03*
X69500D02*
D03*
Y26000D02*
D03*
X71000D02*
D03*
Y24500D02*
D03*
X72500Y26000D02*
D03*
Y23000D02*
D03*
X71000D02*
D03*
X12500Y42000D02*
D03*
Y43500D02*
D03*
X14000Y42000D02*
D03*
Y43500D02*
D03*
X15500Y42000D02*
D03*
Y43500D02*
D03*
Y45000D02*
D03*
Y48000D02*
D03*
X14000D02*
D03*
X15500Y49500D02*
D03*
X14000D02*
D03*
X12500Y48000D02*
D03*
Y49500D02*
D03*
X15500Y51000D02*
D03*
X14000Y45000D02*
D03*
X12500D02*
D03*
X14000Y51000D02*
D03*
X12500D02*
D03*
X40000Y49500D02*
D03*
X58500Y25000D02*
D03*
X60500Y27000D02*
D03*
Y23000D02*
D03*
Y21000D02*
D03*
X58500Y19000D02*
D03*
X60500Y17000D02*
D03*
X41500Y49500D02*
D03*
X17500Y44000D02*
D03*
X19500Y42000D02*
D03*
Y46000D02*
D03*
X21500Y44000D02*
D03*
X23500Y42000D02*
D03*
Y46000D02*
D03*
X25500Y44000D02*
D03*
X27500Y42000D02*
D03*
Y46000D02*
D03*
X29500Y44000D02*
D03*
X31500Y46000D02*
D03*
Y42000D02*
D03*
Y52000D02*
D03*
Y48000D02*
D03*
X29500Y50000D02*
D03*
X27500Y52000D02*
D03*
Y48000D02*
D03*
X25500Y50000D02*
D03*
X23500Y52000D02*
D03*
Y48000D02*
D03*
X21500Y50000D02*
D03*
X19500Y52000D02*
D03*
Y48000D02*
D03*
X17500Y50000D02*
D03*
X17500Y20000D02*
D03*
X22500Y17000D02*
D03*
Y21000D02*
D03*
X24500Y19000D02*
D03*
X26500Y17000D02*
D03*
Y21000D02*
D03*
X28500Y19000D02*
D03*
X48500Y21000D02*
D03*
Y17000D02*
D03*
X50500Y19000D02*
D03*
X52500Y17000D02*
D03*
Y21000D02*
D03*
X54500Y19000D02*
D03*
X56500Y21000D02*
D03*
X22500Y23000D02*
D03*
Y27000D02*
D03*
X24500Y25000D02*
D03*
X26500Y23000D02*
D03*
Y27000D02*
D03*
X28500Y25000D02*
D03*
X48500Y27000D02*
D03*
Y23000D02*
D03*
X56500Y27000D02*
D03*
Y23000D02*
D03*
X54500Y25000D02*
D03*
X52500Y23000D02*
D03*
Y27000D02*
D03*
X38500Y43500D02*
D03*
X41500Y42000D02*
D03*
X40000D02*
D03*
X38500D02*
D03*
X40000Y43500D02*
D03*
X41500D02*
D03*
Y45000D02*
D03*
X40000D02*
D03*
X38500D02*
D03*
X41500Y48000D02*
D03*
X40000D02*
D03*
X38500D02*
D03*
Y49500D02*
D03*
X41500Y51000D02*
D03*
X40000D02*
D03*
X38500D02*
D03*
X20500Y20000D02*
D03*
X19000D02*
D03*
X17500Y18500D02*
D03*
X19000D02*
D03*
X20500D02*
D03*
Y17000D02*
D03*
X19000D02*
D03*
X17500D02*
D03*
X19000Y23000D02*
D03*
X20500D02*
D03*
Y26000D02*
D03*
X19000Y24500D02*
D03*
Y26000D02*
D03*
X17500D02*
D03*
Y24500D02*
D03*
X20500D02*
D03*
X17500Y23000D02*
D03*
X50500Y25000D02*
D03*
X56500Y17000D02*
D03*
X55000Y37000D02*
D03*
X53500D02*
D03*
X52000D02*
D03*
Y38500D02*
D03*
X53500D02*
D03*
X55000D02*
D03*
Y40000D02*
D03*
X53500D02*
D03*
X52000D02*
D03*
X47500Y37000D02*
D03*
Y38500D02*
D03*
Y40000D02*
D03*
X49000Y37000D02*
D03*
Y38500D02*
D03*
Y40000D02*
D03*
X46000D02*
D03*
X46000Y38500D02*
D03*
Y37000D02*
D03*
X43000D02*
D03*
X41500D02*
D03*
X40000D02*
D03*
Y38500D02*
D03*
X41500D02*
D03*
X43000D02*
D03*
Y40000D02*
D03*
X41500D02*
D03*
X40000D02*
D03*
X26000D02*
D03*
X27500D02*
D03*
X29000D02*
D03*
Y38500D02*
D03*
X27500D02*
D03*
X26000D02*
D03*
Y37000D02*
D03*
X27500D02*
D03*
X29000D02*
D03*
X20000Y40000D02*
D03*
X21500D02*
D03*
X23000D02*
D03*
Y38500D02*
D03*
X21500D02*
D03*
X20000D02*
D03*
Y37000D02*
D03*
X21500D02*
D03*
X23000D02*
D03*
X14000Y40000D02*
D03*
X15500D02*
D03*
X17000D02*
D03*
Y38500D02*
D03*
X15500D02*
D03*
X14000D02*
D03*
Y37000D02*
D03*
X15500D02*
D03*
X17000D02*
D03*
X83000Y15000D02*
D03*
X84500D02*
D03*
X86000D02*
D03*
Y13500D02*
D03*
X84500D02*
D03*
X83000D02*
D03*
Y12000D02*
D03*
X84500D02*
D03*
X86000D02*
D03*
X77000Y15000D02*
D03*
X78500D02*
D03*
X80000D02*
D03*
Y13500D02*
D03*
X78500D02*
D03*
X77000D02*
D03*
Y12000D02*
D03*
X78500D02*
D03*
X80000D02*
D03*
X71000Y15000D02*
D03*
X72500D02*
D03*
X74000D02*
D03*
Y13500D02*
D03*
X72500D02*
D03*
X71000D02*
D03*
Y12000D02*
D03*
X72500D02*
D03*
X74000D02*
D03*
X57000Y15000D02*
D03*
X58500D02*
D03*
X60000D02*
D03*
Y13500D02*
D03*
X58500D02*
D03*
X57000D02*
D03*
Y12000D02*
D03*
X58500D02*
D03*
X60000D02*
D03*
X51000Y15000D02*
D03*
X52500D02*
D03*
X54000D02*
D03*
Y13500D02*
D03*
X52500D02*
D03*
X51000D02*
D03*
Y12000D02*
D03*
X52500D02*
D03*
X54000D02*
D03*
X45000Y15000D02*
D03*
X46500D02*
D03*
X48000D02*
D03*
Y13500D02*
D03*
X46500D02*
D03*
X45000D02*
D03*
Y12000D02*
D03*
X46500D02*
D03*
X48000D02*
D03*
X31000Y15000D02*
D03*
X32500D02*
D03*
X34000D02*
D03*
Y13500D02*
D03*
X32500D02*
D03*
X31000D02*
D03*
Y12000D02*
D03*
X32500D02*
D03*
X34000D02*
D03*
X25000Y15000D02*
D03*
X26500D02*
D03*
X28000D02*
D03*
Y13500D02*
D03*
X26500D02*
D03*
X25000D02*
D03*
Y12000D02*
D03*
X26500D02*
D03*
X28000D02*
D03*
X19000Y15000D02*
D03*
X20500D02*
D03*
X22000D02*
D03*
Y13500D02*
D03*
X20500D02*
D03*
X19000D02*
D03*
Y12000D02*
D03*
X20500D02*
D03*
X22000D02*
D03*
D39*
X46025Y80650D02*
D03*
X44755Y78110D02*
D03*
X43485Y80650D02*
D03*
X42215Y78110D02*
D03*
X40945Y80650D02*
D03*
X39675Y78110D02*
D03*
X52200Y63740D02*
D03*
X54740Y62470D02*
D03*
X52200Y61200D02*
D03*
X54740Y59930D02*
D03*
D40*
X20960Y79500D02*
D03*
X26040D02*
D03*
D41*
X48450Y69025D02*
D03*
X43400Y64800D02*
D03*
X42602Y63875D02*
D03*
X42353Y65488D02*
D03*
X43215Y66350D02*
D03*
X44415Y66503D02*
D03*
X43815Y65788D02*
D03*
X45600Y62800D02*
D03*
X45600Y65100D02*
D03*
X45500Y64300D02*
D03*
X22800Y58650D02*
D03*
X26300Y58618D02*
D03*
X32900Y78000D02*
D03*
X45129Y69300D02*
D03*
X30500Y63100D02*
D03*
Y63900D02*
D03*
X28276Y73676D02*
D03*
X30400Y75100D02*
D03*
X35433Y76000D02*
D03*
X38174Y73371D02*
D03*
X36295Y74710D02*
D03*
X44600Y70377D02*
D03*
X43300Y72289D02*
D03*
X41999Y73676D02*
D03*
X41500Y61422D02*
D03*
X40100Y60797D02*
D03*
X39300Y66800D02*
D03*
X39182Y71818D02*
D03*
X34000Y77626D02*
D03*
X29500Y74752D02*
D03*
X23441Y73001D02*
D03*
X34363Y76900D02*
D03*
X34480Y61706D02*
D03*
X33595D02*
D03*
X6700Y61125D02*
D03*
X38500Y68321D02*
D03*
X50100Y64050D02*
D03*
X49700Y70200D02*
D03*
X50929Y70220D02*
D03*
X53600Y65700D02*
D03*
X53618Y66625D02*
D03*
X53600Y67568D02*
D03*
X36049Y79701D02*
D03*
X48700Y65900D02*
D03*
X40500Y62300D02*
D03*
X10600Y76500D02*
D03*
X9500D02*
D03*
X8400D02*
D03*
Y77200D02*
D03*
X9500D02*
D03*
X10600D02*
D03*
X15000Y75600D02*
D03*
X14000D02*
D03*
X13100Y75600D02*
D03*
X10500Y74275D02*
D03*
X9400D02*
D03*
X8400D02*
D03*
X37900Y77500D02*
D03*
X52200Y68900D02*
D03*
X35900Y63550D02*
D03*
X36650Y59300D02*
D03*
X23400Y61400D02*
D03*
X24973Y61574D02*
D03*
X26999Y61751D02*
D03*
X28000Y60800D02*
D03*
X29239Y63900D02*
D03*
X25075Y63650D02*
D03*
X14800Y78500D02*
D03*
X13100D02*
D03*
X20700Y63700D02*
D03*
X22011Y59800D02*
D03*
X48400Y75300D02*
D03*
X50800Y74500D02*
D03*
X43901Y76520D02*
D03*
X49600Y73300D02*
D03*
X49900Y74400D02*
D03*
X13975Y78500D02*
D03*
X39600Y62300D02*
D03*
X41500Y60600D02*
D03*
X37050Y64300D02*
D03*
X36800Y63500D02*
D03*
X44350Y61700D02*
D03*
X45300Y60849D02*
D03*
X50100Y59250D02*
D03*
M02*
