G04*
G04 #@! TF.GenerationSoftware,Altium Limited,Altium Designer,18.1.7 (191)*
G04*
G04 Layer_Color=32896*
%FSLAX43Y43*%
%MOMM*%
G71*
G01*
G75*
%ADD33C,0.200*%
%ADD52C,0.127*%
%ADD89C,0.254*%
D33*
X49775Y75350D02*
G03*
X50025Y75350I125J0D01*
G01*
X32227Y60765D02*
X34045D01*
X42491Y69211D01*
X33136Y78566D02*
X42491Y69211D01*
X23781D02*
X33136Y78566D01*
X23781Y69211D02*
X32227Y60765D01*
X50025Y75350D02*
X50540D01*
X49260D02*
X49775D01*
X49260Y72850D02*
Y75350D01*
Y72850D02*
X50540D01*
Y75350D01*
D52*
X36288Y78789D02*
X36961Y79462D01*
X36539Y78538D02*
X37212Y79211D01*
X27138Y60939D02*
X27811Y61613D01*
X27389Y60688D02*
X28062Y61361D01*
X49078Y75824D02*
Y76776D01*
X48722Y75824D02*
Y76776D01*
X53394Y74398D02*
Y74702D01*
X54206Y74398D02*
Y74702D01*
X54794Y73548D02*
Y73852D01*
X55606Y73548D02*
Y73852D01*
X50519Y68224D02*
Y69176D01*
X50163Y68224D02*
Y69176D01*
X42389Y72739D02*
X43062Y73412D01*
X42138Y72990D02*
X42811Y73663D01*
X46348Y65906D02*
X46652D01*
X46348Y65094D02*
X46652D01*
X46348Y64506D02*
X46652D01*
X46348Y63694D02*
X46652D01*
X48224Y63978D02*
X49176D01*
X48224Y63622D02*
X49176D01*
X49624Y60278D02*
X50576D01*
X49624Y59922D02*
X50576D01*
X49624Y63378D02*
X50576D01*
X49624Y63022D02*
X50576D01*
X45748Y75894D02*
X46052D01*
X45748Y76706D02*
X46052D01*
X42769D02*
X43073D01*
X42769Y75894D02*
X43073D01*
X47448Y77294D02*
X47752D01*
X47448Y78106D02*
X47752D01*
X25105Y62280D02*
X25320Y62495D01*
X25680Y61705D02*
X25895Y61920D01*
X24038Y63311D02*
X24711Y62638D01*
X24289Y63562D02*
X24962Y62889D01*
X46322Y62242D02*
Y63194D01*
X46678Y62242D02*
Y63194D01*
X22378Y72611D02*
X23051Y71938D01*
X22629Y72862D02*
X23302Y72189D01*
X37678Y58824D02*
Y59776D01*
X37322Y58824D02*
Y59776D01*
X21989Y61638D02*
X22662Y62311D01*
X21738Y61889D02*
X22411Y62562D01*
X21589Y68862D02*
X22262Y68189D01*
X21338Y68611D02*
X22011Y67938D01*
X49075Y68125D02*
X51675D01*
X49075D02*
Y68425D01*
Y64825D02*
Y65125D01*
X51675D01*
X49175Y64825D02*
Y65125D01*
X49275Y64825D02*
Y65125D01*
X49075Y64825D02*
X49275D01*
X49075Y68425D02*
X49275D01*
Y68125D02*
Y68425D01*
X49175Y68125D02*
Y68425D01*
D89*
X51000Y48262D02*
X52016D01*
X52000Y45762D02*
X50984D01*
X51492Y46270D02*
Y45254D01*
X23000Y18762D02*
X21984D01*
X22492Y19270D02*
Y18254D01*
X23000Y24762D02*
X21984D01*
M02*
