G04*
G04 #@! TF.GenerationSoftware,Altium Limited,Altium Designer,18.1.7 (191)*
G04*
G04 Layer_Physical_Order=2*
G04 Layer_Color=16711680*
%FSLAX43Y43*%
%MOMM*%
G71*
G01*
G75*
G04:AMPARAMS|DCode=14|XSize=1mm|YSize=0.9mm|CornerRadius=0.113mm|HoleSize=0mm|Usage=FLASHONLY|Rotation=0.000|XOffset=0mm|YOffset=0mm|HoleType=Round|Shape=RoundedRectangle|*
%AMROUNDEDRECTD14*
21,1,1.000,0.675,0,0,0.0*
21,1,0.775,0.900,0,0,0.0*
1,1,0.225,0.388,-0.338*
1,1,0.225,-0.388,-0.338*
1,1,0.225,-0.388,0.338*
1,1,0.225,0.388,0.338*
%
%ADD14ROUNDEDRECTD14*%
G04:AMPARAMS|DCode=15|XSize=1mm|YSize=0.9mm|CornerRadius=0.113mm|HoleSize=0mm|Usage=FLASHONLY|Rotation=135.000|XOffset=0mm|YOffset=0mm|HoleType=Round|Shape=RoundedRectangle|*
%AMROUNDEDRECTD15*
21,1,1.000,0.675,0,0,135.0*
21,1,0.775,0.900,0,0,135.0*
1,1,0.225,-0.035,0.513*
1,1,0.225,0.513,-0.035*
1,1,0.225,0.035,-0.513*
1,1,0.225,-0.513,0.035*
%
%ADD15ROUNDEDRECTD15*%
G04:AMPARAMS|DCode=16|XSize=1mm|YSize=0.9mm|CornerRadius=0.113mm|HoleSize=0mm|Usage=FLASHONLY|Rotation=90.000|XOffset=0mm|YOffset=0mm|HoleType=Round|Shape=RoundedRectangle|*
%AMROUNDEDRECTD16*
21,1,1.000,0.675,0,0,90.0*
21,1,0.775,0.900,0,0,90.0*
1,1,0.225,0.338,0.388*
1,1,0.225,0.338,-0.388*
1,1,0.225,-0.338,-0.388*
1,1,0.225,-0.338,0.388*
%
%ADD16ROUNDEDRECTD16*%
G04:AMPARAMS|DCode=23|XSize=2.3mm|YSize=1.8mm|CornerRadius=0.225mm|HoleSize=0mm|Usage=FLASHONLY|Rotation=90.000|XOffset=0mm|YOffset=0mm|HoleType=Round|Shape=RoundedRectangle|*
%AMROUNDEDRECTD23*
21,1,2.300,1.350,0,0,90.0*
21,1,1.850,1.800,0,0,90.0*
1,1,0.450,0.675,0.925*
1,1,0.450,0.675,-0.925*
1,1,0.450,-0.675,-0.925*
1,1,0.450,-0.675,0.925*
%
%ADD23ROUNDEDRECTD23*%
%ADD30C,0.300*%
%ADD32C,0.800*%
%ADD33C,0.200*%
G04:AMPARAMS|DCode=35|XSize=4.5mm|YSize=4.5mm|CornerRadius=1.125mm|HoleSize=0mm|Usage=FLASHONLY|Rotation=0.000|XOffset=0mm|YOffset=0mm|HoleType=Round|Shape=RoundedRectangle|*
%AMROUNDEDRECTD35*
21,1,4.500,2.250,0,0,0.0*
21,1,2.250,4.500,0,0,0.0*
1,1,2.250,1.125,-1.125*
1,1,2.250,-1.125,-1.125*
1,1,2.250,-1.125,1.125*
1,1,2.250,1.125,1.125*
%
%ADD35ROUNDEDRECTD35*%
G04:AMPARAMS|DCode=36|XSize=4.5mm|YSize=4.5mm|CornerRadius=1.125mm|HoleSize=0mm|Usage=FLASHONLY|Rotation=90.000|XOffset=0mm|YOffset=0mm|HoleType=Round|Shape=RoundedRectangle|*
%AMROUNDEDRECTD36*
21,1,4.500,2.250,0,0,90.0*
21,1,2.250,4.500,0,0,90.0*
1,1,2.250,1.125,1.125*
1,1,2.250,1.125,-1.125*
1,1,2.250,-1.125,-1.125*
1,1,2.250,-1.125,1.125*
%
%ADD36ROUNDEDRECTD36*%
%ADD37C,0.900*%
%ADD38C,1.600*%
%ADD39C,1.300*%
%ADD40C,1.500*%
%ADD41C,0.600*%
%ADD42R,4.600X4.000*%
G04:AMPARAMS|DCode=43|XSize=0.3mm|YSize=1.5mm|CornerRadius=0mm|HoleSize=0mm|Usage=FLASHONLY|Rotation=45.000|XOffset=0mm|YOffset=0mm|HoleType=Round|Shape=Rectangle|*
%AMROTATEDRECTD43*
4,1,4,0.424,-0.636,-0.636,0.424,-0.424,0.636,0.636,-0.424,0.424,-0.636,0.0*
%
%ADD43ROTATEDRECTD43*%

G04:AMPARAMS|DCode=44|XSize=0.3mm|YSize=1.5mm|CornerRadius=0mm|HoleSize=0mm|Usage=FLASHONLY|Rotation=315.000|XOffset=0mm|YOffset=0mm|HoleType=Round|Shape=Rectangle|*
%AMROTATEDRECTD44*
4,1,4,-0.636,-0.424,0.424,0.636,0.636,0.424,-0.424,-0.636,-0.636,-0.424,0.0*
%
%ADD44ROTATEDRECTD44*%

G04:AMPARAMS|DCode=45|XSize=1mm|YSize=0.9mm|CornerRadius=0.113mm|HoleSize=0mm|Usage=FLASHONLY|Rotation=225.000|XOffset=0mm|YOffset=0mm|HoleType=Round|Shape=RoundedRectangle|*
%AMROUNDEDRECTD45*
21,1,1.000,0.675,0,0,225.0*
21,1,0.775,0.900,0,0,225.0*
1,1,0.225,-0.513,-0.035*
1,1,0.225,0.035,0.513*
1,1,0.225,0.513,0.035*
1,1,0.225,-0.035,-0.513*
%
%ADD45ROUNDEDRECTD45*%
%ADD46R,1.450X0.300*%
%ADD47O,1.450X0.300*%
G04:AMPARAMS|DCode=48|XSize=1.3mm|YSize=1.05mm|CornerRadius=0mm|HoleSize=0mm|Usage=FLASHONLY|Rotation=315.000|XOffset=0mm|YOffset=0mm|HoleType=Round|Shape=Rectangle|*
%AMROTATEDRECTD48*
4,1,4,-0.831,0.088,-0.088,0.831,0.831,-0.088,0.088,-0.831,-0.831,0.088,0.0*
%
%ADD48ROTATEDRECTD48*%

%ADD49R,3.000X1.500*%
G36*
X25303Y80100D02*
X25210Y79979D01*
X25114Y79748D01*
X25082Y79500D01*
X25114Y79252D01*
X25210Y79021D01*
X25362Y78822D01*
X25561Y78670D01*
X25792Y78574D01*
X26040Y78542D01*
X26156Y78557D01*
X26251Y78388D01*
X26177Y78296D01*
X21642D01*
X21525Y78273D01*
X21426Y78206D01*
X21426Y78206D01*
X15925Y72706D01*
X15675D01*
Y73995D01*
X12275D01*
Y72095D01*
X12081Y72081D01*
X11175D01*
Y72725D01*
X7775D01*
Y70825D01*
X11175D01*
Y71469D01*
X12081D01*
X12275Y71455D01*
Y69555D01*
X12081Y69541D01*
X11175D01*
Y70185D01*
X7775D01*
Y68285D01*
X11175D01*
Y68929D01*
X12081D01*
X12275Y68915D01*
Y67015D01*
X12081Y67001D01*
X11175D01*
Y67645D01*
X7775D01*
Y65745D01*
X11175D01*
Y66389D01*
X12081D01*
X12275Y66375D01*
Y64497D01*
X11175D01*
Y65105D01*
X7775D01*
Y63205D01*
X11175D01*
Y63885D01*
X12096D01*
X12275Y63835D01*
Y61935D01*
X12081Y61921D01*
X11175D01*
Y62565D01*
X7775D01*
Y60665D01*
X8460D01*
X8502Y60626D01*
X8581Y60465D01*
X8542Y60370D01*
X8519Y60200D01*
X8542Y60030D01*
X8607Y59872D01*
X8711Y59736D01*
X8847Y59632D01*
X9005Y59567D01*
X9175Y59544D01*
X9345Y59567D01*
X9503Y59632D01*
X9639Y59736D01*
X9743Y59872D01*
X9808Y60030D01*
X9813Y60068D01*
X11002D01*
X12078Y58993D01*
X12193Y58915D01*
X12330Y58888D01*
X15620D01*
X15757Y58915D01*
X15872Y58993D01*
X16077Y59198D01*
X16155Y59313D01*
X16182Y59450D01*
Y60711D01*
X16877Y61406D01*
X16955Y61522D01*
X16982Y61659D01*
Y62919D01*
X17702Y63640D01*
X17780Y63756D01*
X17807Y63892D01*
Y65137D01*
X18477Y65808D01*
X18555Y65924D01*
X18582Y66060D01*
Y67312D01*
X19302Y68033D01*
X19380Y68149D01*
X19407Y68285D01*
Y68957D01*
X21780Y71330D01*
X22049Y71061D01*
X22152Y70992D01*
X22274Y70968D01*
X22274Y70968D01*
X22388Y70979D01*
X23732Y69635D01*
X24441Y70345D01*
X24511Y70299D01*
X24647Y70272D01*
X24937D01*
X25074Y70299D01*
X25189Y70377D01*
X28043Y73230D01*
X28081Y73205D01*
X28276Y73166D01*
X28471Y73205D01*
X28637Y73315D01*
X28705Y73418D01*
X28793Y73481D01*
X28951Y73481D01*
X28969Y73469D01*
X29086Y73446D01*
X29086Y73446D01*
X30466D01*
X30466Y73446D01*
X30583Y73469D01*
X30682Y73536D01*
X31741Y74594D01*
X33433D01*
X37425Y70602D01*
X37524Y70536D01*
X37641Y70513D01*
X39958D01*
X41869Y68602D01*
X41968Y68536D01*
X42000Y68529D01*
X42076Y68322D01*
X41338Y67585D01*
X40631Y66878D01*
X39924Y66171D01*
X41121Y64973D01*
X40914Y64766D01*
X40389Y65292D01*
X39753Y65927D01*
X39724Y65947D01*
X39712Y65959D01*
X39710Y65956D01*
X39637Y66005D01*
X39501Y66032D01*
X39200D01*
X39063Y66005D01*
X38948Y65927D01*
X38102Y65082D01*
X37692D01*
X37572Y65202D01*
X37456Y65280D01*
X37319Y65307D01*
X36781D01*
X36644Y65280D01*
X36528Y65202D01*
X36148Y64822D01*
X36070Y64706D01*
X36043Y64569D01*
Y64198D01*
X35904Y64059D01*
X35900Y64060D01*
X35705Y64021D01*
X35540Y63910D01*
X35429Y63745D01*
X35390Y63550D01*
X35429Y63355D01*
X35540Y63190D01*
X35543Y63187D01*
Y62518D01*
X35009Y61983D01*
X34931Y61867D01*
X34904Y61731D01*
Y61430D01*
X34931Y61293D01*
X34977Y61224D01*
X34974Y61221D01*
X34989Y61206D01*
X35009Y61177D01*
X35641Y60544D01*
X36054Y60131D01*
X36064Y60067D01*
X36014Y60010D01*
X35766Y60005D01*
X35349Y60422D01*
X35332Y60447D01*
X35332Y60447D01*
X34906Y60873D01*
X34794Y60985D01*
X34762Y61009D01*
X34761Y61007D01*
X34695Y61051D01*
X34578Y61075D01*
X34578Y61075D01*
X33588D01*
X31406Y63257D01*
Y63413D01*
X31406Y63413D01*
X31383Y63530D01*
X31316Y63629D01*
X31316Y63629D01*
X31001Y63945D01*
X30971Y64095D01*
X30860Y64260D01*
X30695Y64371D01*
X30500Y64410D01*
X30305Y64371D01*
X30139Y64260D01*
X30029Y64095D01*
X29990Y63900D01*
X30029Y63705D01*
X30065Y63651D01*
X30124Y63500D01*
X30065Y63349D01*
X30029Y63295D01*
X29990Y63100D01*
X30029Y62905D01*
X30139Y62740D01*
X30305Y62629D01*
X30500Y62590D01*
X30618Y62614D01*
X33079Y60153D01*
X33079Y60153D01*
X33179Y60086D01*
X33296Y60063D01*
X33555D01*
X33632Y59878D01*
X33560Y59807D01*
X34904Y58463D01*
X35809Y59369D01*
X35994Y59292D01*
Y58912D01*
X36018Y58791D01*
X36087Y58687D01*
X36191Y58618D01*
X36312Y58594D01*
X36987D01*
X37086Y58614D01*
X37100Y58600D01*
X37900D01*
X38100Y58800D01*
Y59800D01*
X38119Y59847D01*
X39203D01*
X39470Y59580D01*
X39470Y59580D01*
X39569Y59514D01*
X39686Y59491D01*
X41545D01*
X41545Y59491D01*
X41662Y59514D01*
X41761Y59580D01*
X42316Y60135D01*
X42316Y60135D01*
X42383Y60234D01*
X42406Y60351D01*
X42406Y60351D01*
Y60849D01*
X42406Y60849D01*
X42383Y60966D01*
X42316Y61065D01*
X42316Y61065D01*
X42001Y61380D01*
X42010Y61422D01*
X41971Y61617D01*
X41860Y61782D01*
X41695Y61893D01*
X41500Y61932D01*
X41305Y61893D01*
X41139Y61782D01*
X41029Y61617D01*
X40990Y61422D01*
X41029Y61227D01*
X41075Y61158D01*
X41123Y61011D01*
X41075Y60864D01*
X41029Y60795D01*
X40990Y60600D01*
X40806Y60503D01*
X40727D01*
X40591Y60703D01*
X40610Y60797D01*
X40571Y60992D01*
X40460Y61157D01*
X40295Y61268D01*
X40159Y61295D01*
X40084Y61458D01*
X40080Y61499D01*
X40393Y61812D01*
X40500Y61790D01*
X40695Y61829D01*
X40860Y61940D01*
X40971Y62105D01*
X41010Y62300D01*
X40987Y62412D01*
X41115Y62612D01*
X41538D01*
X41538Y62612D01*
X41655Y62635D01*
X41754Y62702D01*
X42448Y63396D01*
X42602Y63366D01*
X42797Y63404D01*
X42962Y63515D01*
X43073Y63680D01*
X43112Y63875D01*
X43090Y63983D01*
X43089Y64087D01*
X43150Y64150D01*
X43217Y64214D01*
X43305Y64272D01*
X43336Y64303D01*
X43400Y64290D01*
X43595Y64329D01*
X43760Y64440D01*
X43871Y64605D01*
X43910Y64800D01*
X43871Y64995D01*
X43808Y65089D01*
X43809Y65097D01*
X43893Y65294D01*
X43893Y65294D01*
X44010Y65317D01*
X44175Y65428D01*
X44286Y65593D01*
X44325Y65788D01*
X44321Y65808D01*
X44415Y65993D01*
X44610Y66032D01*
X44775Y66143D01*
X44886Y66308D01*
X44925Y66503D01*
X44886Y66698D01*
X44775Y66864D01*
X44610Y66974D01*
X44607Y66975D01*
Y67733D01*
X44607Y67733D01*
X44584Y67850D01*
X44517Y67950D01*
X43277Y69190D01*
X43235Y69402D01*
X43903Y70071D01*
X44203D01*
X44240Y70016D01*
X44405Y69906D01*
X44600Y69867D01*
X44795Y69906D01*
X44811Y69916D01*
X44817Y69917D01*
X44916Y69984D01*
X44920Y69989D01*
X44960Y70016D01*
X45071Y70182D01*
X45087Y70260D01*
X45286Y70284D01*
X45485Y70085D01*
X45601Y70008D01*
X45737Y69981D01*
X49245D01*
X49340Y69840D01*
X49505Y69729D01*
X49700Y69690D01*
X49895Y69729D01*
X50060Y69840D01*
X50171Y70005D01*
X50395Y70107D01*
X50446Y70087D01*
X50458Y70025D01*
X50569Y69859D01*
X50734Y69749D01*
X50929Y69710D01*
X51124Y69749D01*
X51290Y69859D01*
X51400Y70025D01*
X51439Y70220D01*
X51505Y70300D01*
X55796D01*
Y57204D01*
X6204D01*
Y77600D01*
X12275D01*
Y77175D01*
X15675D01*
Y77600D01*
X17200D01*
X19900Y80300D01*
X25205D01*
X25303Y80100D01*
D02*
G37*
G36*
X36590Y78110D02*
X35328Y76848D01*
X35470Y76706D01*
X35454Y76621D01*
X35392Y76502D01*
X35238Y76471D01*
X35073Y76360D01*
X34962Y76195D01*
X34923Y76000D01*
X34936Y75936D01*
X34752Y75837D01*
X34273Y76316D01*
X34174Y76383D01*
X34057Y76406D01*
X34057Y76406D01*
X31709D01*
X31633Y76591D01*
X32625Y77583D01*
X32705Y77529D01*
X32900Y77490D01*
X33095Y77529D01*
X33260Y77640D01*
X33301Y77700D01*
X33484Y77628D01*
X33491Y77624D01*
X33529Y77431D01*
X33640Y77265D01*
X33805Y77155D01*
X34000Y77116D01*
X34195Y77155D01*
X34360Y77265D01*
X34412Y77343D01*
X34554D01*
X34690Y77370D01*
X34759Y77417D01*
X35116Y77060D01*
X35763Y77707D01*
X35793Y77727D01*
X36383Y78317D01*
X36590Y78110D01*
D02*
G37*
G36*
X98694Y75708D02*
X87306D01*
Y80300D01*
X98694D01*
Y75708D01*
D02*
G37*
G36*
X70694Y72700D02*
X59306D01*
Y77300D01*
X70694D01*
Y72700D01*
D02*
G37*
G36*
X24884Y73475D02*
X24509Y73100D01*
X25707Y71903D01*
X25494Y71691D01*
X24297Y72888D01*
X23818Y72409D01*
X23745Y72417D01*
X23618Y72470D01*
Y72471D01*
X22915Y73174D01*
X23401Y73660D01*
X24808D01*
X24884Y73475D01*
D02*
G37*
G36*
X98694Y70708D02*
X87306D01*
Y75300D01*
X98694D01*
Y70708D01*
D02*
G37*
G36*
X70694Y67700D02*
X59306D01*
Y72292D01*
X70694D01*
Y67700D01*
D02*
G37*
G36*
X98694Y65700D02*
X87306D01*
Y70300D01*
X98694D01*
Y65700D01*
D02*
G37*
G36*
X70694Y62700D02*
X59306D01*
Y67292D01*
X70694D01*
Y62700D01*
D02*
G37*
G36*
X80694Y47708D02*
X69306D01*
Y52300D01*
X80694D01*
Y47708D01*
D02*
G37*
G36*
X63000Y47204D02*
X41566D01*
X41552Y47201D01*
X41539Y47202D01*
X41500Y47197D01*
X41461Y47202D01*
X41448Y47201D01*
X41435Y47204D01*
X40066D01*
X40052Y47201D01*
X40039Y47202D01*
X40000Y47197D01*
X39961Y47202D01*
X39948Y47201D01*
X39935Y47204D01*
X38566D01*
X38552Y47201D01*
X38539Y47202D01*
X38500Y47197D01*
X38461Y47202D01*
X38448Y47201D01*
X38435Y47204D01*
X31566D01*
X31552Y47201D01*
X31539Y47202D01*
X31500Y47197D01*
X31461Y47202D01*
X31448Y47201D01*
X31434Y47204D01*
X27566D01*
X27552Y47201D01*
X27539Y47202D01*
X27500Y47197D01*
X27461Y47202D01*
X27448Y47201D01*
X27434Y47204D01*
X23566D01*
X23552Y47201D01*
X23539Y47202D01*
X23500Y47197D01*
X23461Y47202D01*
X23448Y47201D01*
X23434Y47204D01*
X19566D01*
X19552Y47201D01*
X19539Y47202D01*
X19500Y47197D01*
X19461Y47202D01*
X19448Y47201D01*
X19434Y47204D01*
X15566D01*
X15552Y47201D01*
X15539Y47202D01*
X15500Y47197D01*
X15461Y47202D01*
X15448Y47201D01*
X15434Y47204D01*
X14066D01*
X14052Y47201D01*
X14039Y47202D01*
X14000Y47197D01*
X13961Y47202D01*
X13948Y47201D01*
X13934Y47204D01*
X12566D01*
X12552Y47201D01*
X12539Y47202D01*
X12500Y47197D01*
X12461Y47202D01*
X12448Y47201D01*
X12434Y47204D01*
X6000D01*
Y53000D01*
X63000D01*
Y47204D01*
D02*
G37*
G36*
Y41000D02*
X55066D01*
X55000Y41009D01*
X54934Y41000D01*
X53566D01*
X53500Y41009D01*
X53434Y41000D01*
X52066D01*
X52000Y41009D01*
X51934Y41000D01*
X49066D01*
X49000Y41009D01*
X48934Y41000D01*
X47566D01*
X47500Y41009D01*
X47434Y41000D01*
X46066D01*
X46000Y41009D01*
X45934Y41000D01*
X43066D01*
X43000Y41009D01*
X42934Y41000D01*
X41566D01*
X41500Y41009D01*
X41434Y41000D01*
X40066D01*
X40000Y41009D01*
X39934Y41000D01*
X29066D01*
X29000Y41009D01*
X28934Y41000D01*
X27566D01*
X27500Y41009D01*
X27434Y41000D01*
X26066D01*
X26000Y41009D01*
X25934Y41000D01*
X23066D01*
X23000Y41009D01*
X22934Y41000D01*
X21566D01*
X21500Y41009D01*
X21434Y41000D01*
X20066D01*
X20000Y41009D01*
X19934Y41000D01*
X17066D01*
X17000Y41009D01*
X16934Y41000D01*
X15566D01*
X15500Y41009D01*
X15434Y41000D01*
X14066D01*
X14000Y41009D01*
X13934Y41000D01*
X6000D01*
Y47000D01*
X12434D01*
X12500Y46991D01*
X12566Y47000D01*
X13934D01*
X14000Y46991D01*
X14066Y47000D01*
X15434D01*
X15500Y46991D01*
X15566Y47000D01*
X19434D01*
X19500Y46991D01*
X19566Y47000D01*
X23434D01*
X23500Y46991D01*
X23566Y47000D01*
X27434D01*
X27500Y46991D01*
X27566Y47000D01*
X31434D01*
X31500Y46991D01*
X31566Y47000D01*
X38435D01*
X38500Y46991D01*
X38566Y47000D01*
X39935D01*
X40000Y46991D01*
X40066Y47000D01*
X41435D01*
X41500Y46991D01*
X41566Y47000D01*
X63000D01*
Y41000D01*
D02*
G37*
G36*
X98694Y43708D02*
X87306D01*
Y48300D01*
X98694D01*
Y43708D01*
D02*
G37*
G36*
X80694Y42708D02*
X69306D01*
Y47300D01*
X80694D01*
Y42708D01*
D02*
G37*
G36*
X55039Y40798D02*
X55052Y40799D01*
X55066Y40796D01*
X56000D01*
Y31000D01*
X51000D01*
Y40796D01*
X51934D01*
X51948Y40799D01*
X51961Y40798D01*
X52000Y40803D01*
X52039Y40798D01*
X52052Y40799D01*
X52066Y40796D01*
X53434D01*
X53448Y40799D01*
X53461Y40798D01*
X53500Y40803D01*
X53539Y40798D01*
X53552Y40799D01*
X53566Y40796D01*
X54934D01*
X54948Y40799D01*
X54961Y40798D01*
X55000Y40803D01*
X55039Y40798D01*
D02*
G37*
G36*
X49039D02*
X49052Y40799D01*
X49066Y40796D01*
X50000D01*
Y31000D01*
X45000D01*
Y40796D01*
X45934D01*
X45948Y40799D01*
X45961Y40798D01*
X46000Y40803D01*
X46039Y40798D01*
X46052Y40799D01*
X46066Y40796D01*
X47434D01*
X47448Y40799D01*
X47461Y40798D01*
X47500Y40803D01*
X47539Y40798D01*
X47552Y40799D01*
X47566Y40796D01*
X48934D01*
X48948Y40799D01*
X48961Y40798D01*
X49000Y40803D01*
X49039Y40798D01*
D02*
G37*
G36*
X43039D02*
X43052Y40799D01*
X43066Y40796D01*
X44000D01*
Y31000D01*
X39000D01*
Y40796D01*
X39934D01*
X39948Y40799D01*
X39961Y40798D01*
X40000Y40803D01*
X40039Y40798D01*
X40052Y40799D01*
X40066Y40796D01*
X41434D01*
X41448Y40799D01*
X41461Y40798D01*
X41500Y40803D01*
X41539Y40798D01*
X41552Y40799D01*
X41566Y40796D01*
X42934D01*
X42948Y40799D01*
X42961Y40798D01*
X43000Y40803D01*
X43039Y40798D01*
D02*
G37*
G36*
X29039D02*
X29052Y40799D01*
X29066Y40796D01*
X30000D01*
Y31000D01*
X25000D01*
Y40796D01*
X25934D01*
X25948Y40799D01*
X25961Y40798D01*
X26000Y40803D01*
X26039Y40798D01*
X26052Y40799D01*
X26066Y40796D01*
X27434D01*
X27448Y40799D01*
X27461Y40798D01*
X27500Y40803D01*
X27539Y40798D01*
X27552Y40799D01*
X27566Y40796D01*
X28934D01*
X28948Y40799D01*
X28961Y40798D01*
X29000Y40803D01*
X29039Y40798D01*
D02*
G37*
G36*
X23039D02*
X23052Y40799D01*
X23066Y40796D01*
X24000D01*
Y31000D01*
X19000D01*
Y40796D01*
X19934D01*
X19948Y40799D01*
X19961Y40798D01*
X20000Y40803D01*
X20039Y40798D01*
X20052Y40799D01*
X20066Y40796D01*
X21434D01*
X21448Y40799D01*
X21461Y40798D01*
X21500Y40803D01*
X21539Y40798D01*
X21552Y40799D01*
X21566Y40796D01*
X22934D01*
X22948Y40799D01*
X22961Y40798D01*
X23000Y40803D01*
X23039Y40798D01*
D02*
G37*
G36*
X17039D02*
X17052Y40799D01*
X17066Y40796D01*
X18000D01*
Y31000D01*
X13000D01*
Y40796D01*
X13934D01*
X13948Y40799D01*
X13961Y40798D01*
X14000Y40803D01*
X14039Y40798D01*
X14052Y40799D01*
X14066Y40796D01*
X15434D01*
X15448Y40799D01*
X15461Y40798D01*
X15500Y40803D01*
X15539Y40798D01*
X15552Y40799D01*
X15566Y40796D01*
X16934D01*
X16948Y40799D01*
X16961Y40798D01*
X17000Y40803D01*
X17039Y40798D01*
D02*
G37*
G36*
X98694Y38708D02*
X87306D01*
Y43300D01*
X98694D01*
Y38708D01*
D02*
G37*
G36*
X80694Y37700D02*
X69306D01*
Y42300D01*
X80694D01*
Y37700D01*
D02*
G37*
G36*
X98694Y33700D02*
X87306D01*
Y38300D01*
X98694D01*
Y33700D01*
D02*
G37*
G36*
X73500Y27800D02*
Y22204D01*
X72565D01*
X72552Y22201D01*
X72539Y22202D01*
X72500Y22197D01*
X72461Y22202D01*
X72448Y22201D01*
X72435Y22204D01*
X71065D01*
X71052Y22201D01*
X71039Y22202D01*
X71000Y22197D01*
X70961Y22202D01*
X70948Y22201D01*
X70935Y22204D01*
X69565D01*
X69552Y22201D01*
X69539Y22202D01*
X69500Y22197D01*
X69461Y22202D01*
X69448Y22201D01*
X69435Y22204D01*
X60566D01*
X60552Y22201D01*
X60539Y22202D01*
X60500Y22197D01*
X60461Y22202D01*
X60448Y22201D01*
X60435Y22204D01*
X56566D01*
X56552Y22201D01*
X56539Y22202D01*
X56500Y22197D01*
X56461Y22202D01*
X56448Y22201D01*
X56435Y22204D01*
X52566D01*
X52552Y22201D01*
X52539Y22202D01*
X52500Y22197D01*
X52461Y22202D01*
X52448Y22201D01*
X52435Y22204D01*
X48566D01*
X48552Y22201D01*
X48539Y22202D01*
X48500Y22197D01*
X48461Y22202D01*
X48448Y22201D01*
X48435Y22204D01*
X46566D01*
X46552Y22201D01*
X46539Y22202D01*
X46500Y22197D01*
X46461Y22202D01*
X46448Y22201D01*
X46435Y22204D01*
X45066D01*
X45052Y22201D01*
X45039Y22202D01*
X45000Y22197D01*
X44961Y22202D01*
X44948Y22201D01*
X44935Y22204D01*
X43566D01*
X43552Y22201D01*
X43539Y22202D01*
X43500Y22197D01*
X43461Y22202D01*
X43448Y22201D01*
X43435Y22204D01*
X34566Y22204D01*
X34552Y22201D01*
X34539Y22202D01*
X34500Y22197D01*
X34461Y22202D01*
X34448Y22201D01*
X34434Y22204D01*
X30566D01*
X30552Y22201D01*
X30539Y22202D01*
X30500Y22197D01*
X30461Y22202D01*
X30448Y22201D01*
X30434Y22204D01*
X26566D01*
X26552Y22201D01*
X26539Y22202D01*
X26500Y22197D01*
X26461Y22202D01*
X26448Y22201D01*
X26434Y22204D01*
X22566D01*
X22552Y22201D01*
X22539Y22202D01*
X22500Y22197D01*
X22461Y22202D01*
X22448Y22201D01*
X22434Y22204D01*
X20566D01*
X20552Y22201D01*
X20539Y22202D01*
X20500Y22197D01*
X20461Y22202D01*
X20448Y22201D01*
X20434Y22204D01*
X19066D01*
X19052Y22201D01*
X19039Y22202D01*
X19000Y22197D01*
X18961Y22202D01*
X18948Y22201D01*
X18934Y22204D01*
X17566D01*
X17552Y22201D01*
X17539Y22202D01*
X17500Y22197D01*
X17461Y22202D01*
X17448Y22201D01*
X17434Y22204D01*
X6000D01*
X6000Y22204D01*
Y27800D01*
X73500Y27800D01*
D02*
G37*
G36*
X17434Y22000D02*
X17500Y21991D01*
X17566Y22000D01*
X18934D01*
X19000Y21991D01*
X19066Y22000D01*
X20434D01*
X20500Y21991D01*
X20566Y22000D01*
X22434D01*
X22500Y21991D01*
X22566Y22000D01*
X26434D01*
X26500Y21991D01*
X26566Y22000D01*
X30434D01*
X30500Y21991D01*
X30566Y22000D01*
X34434D01*
X34500Y21991D01*
X34566Y22000D01*
X43435Y22000D01*
X43500Y21991D01*
X43566Y22000D01*
X44935D01*
X45000Y21991D01*
X45066Y22000D01*
X46435D01*
X46500Y21991D01*
X46566Y22000D01*
X48435D01*
X48500Y21991D01*
X48566Y22000D01*
X52435D01*
X52500Y21991D01*
X52566Y22000D01*
X56435D01*
X56500Y21991D01*
X56566Y22000D01*
X60435D01*
X60500Y21991D01*
X60566Y22000D01*
X69435D01*
X69500Y21991D01*
X69565Y22000D01*
X70935D01*
X71000Y21991D01*
X71065Y22000D01*
X72435D01*
X72500Y21991D01*
X72565Y22000D01*
X73500D01*
X73500Y16000D01*
X72566D01*
X72500Y16009D01*
X72434Y16000D01*
X71066D01*
X71000Y16009D01*
X70934Y16000D01*
X60066D01*
X60000Y16009D01*
X59934Y16000D01*
X58566D01*
X58500Y16009D01*
X58434Y16000D01*
X57066D01*
X57000Y16009D01*
X56934Y16000D01*
X54066D01*
X54000Y16009D01*
X53934Y16000D01*
X52566D01*
X52500Y16009D01*
X52434Y16000D01*
X51066D01*
X51000Y16009D01*
X50934Y16000D01*
X48066D01*
X48000Y16009D01*
X47934Y16000D01*
X46566D01*
X46500Y16009D01*
X46434Y16000D01*
X45066D01*
X45000Y16009D01*
X44934Y16000D01*
X34066Y16000D01*
X34000Y16009D01*
X33934Y16000D01*
X32566D01*
X32500Y16009D01*
X32434Y16000D01*
X31066D01*
X31000Y16009D01*
X30934Y16000D01*
X28066D01*
X28000Y16009D01*
X27934Y16000D01*
X26566D01*
X26500Y16009D01*
X26434Y16000D01*
X25066D01*
X25000Y16009D01*
X24934Y16000D01*
X22066D01*
X22000Y16009D01*
X21934Y16000D01*
X20566D01*
X20500Y16009D01*
X20434Y16000D01*
X19066D01*
X19000Y16009D01*
X18934Y16000D01*
X6000D01*
X6000Y22000D01*
X17434D01*
D02*
G37*
G36*
X34039Y15798D02*
X34052Y15799D01*
X34066Y15796D01*
X35000D01*
Y6000D01*
X30000D01*
Y15796D01*
X30934D01*
X30948Y15799D01*
X30961Y15798D01*
X31000Y15803D01*
X31039Y15798D01*
X31052Y15799D01*
X31066Y15796D01*
X32434D01*
X32448Y15799D01*
X32461Y15798D01*
X32500Y15803D01*
X32539Y15798D01*
X32552Y15799D01*
X32566Y15796D01*
X33934D01*
X33948Y15799D01*
X33961Y15798D01*
X34000Y15803D01*
X34039Y15798D01*
D02*
G37*
G36*
X28039D02*
X28052Y15799D01*
X28066Y15796D01*
X29000D01*
Y6000D01*
X24000D01*
Y15796D01*
X24934D01*
X24948Y15799D01*
X24961Y15798D01*
X25000Y15803D01*
X25039Y15798D01*
X25052Y15799D01*
X25066Y15796D01*
X26434D01*
X26448Y15799D01*
X26461Y15798D01*
X26500Y15803D01*
X26539Y15798D01*
X26552Y15799D01*
X26566Y15796D01*
X27934D01*
X27948Y15799D01*
X27961Y15798D01*
X28000Y15803D01*
X28039Y15798D01*
D02*
G37*
G36*
X22039D02*
X22052Y15799D01*
X22066Y15796D01*
X23000D01*
Y6000D01*
X18000D01*
Y15796D01*
X18934D01*
X18948Y15799D01*
X18961Y15798D01*
X19000Y15803D01*
X19039Y15798D01*
X19052Y15799D01*
X19066Y15796D01*
X20434D01*
X20448Y15799D01*
X20461Y15798D01*
X20500Y15803D01*
X20539Y15798D01*
X20552Y15799D01*
X20566Y15796D01*
X21934D01*
X21948Y15799D01*
X21961Y15798D01*
X22000Y15803D01*
X22039Y15798D01*
D02*
G37*
G36*
X60039Y15798D02*
X60052Y15799D01*
X60066Y15796D01*
X61000D01*
Y6000D01*
X56000D01*
Y15796D01*
X56934D01*
X56948Y15799D01*
X56961Y15798D01*
X57000Y15803D01*
X57039Y15798D01*
X57052Y15799D01*
X57066Y15796D01*
X58434D01*
X58448Y15799D01*
X58461Y15798D01*
X58500Y15803D01*
X58539Y15798D01*
X58552Y15799D01*
X58566Y15796D01*
X59934D01*
X59948Y15799D01*
X59961Y15798D01*
X60000Y15803D01*
X60039Y15798D01*
D02*
G37*
G36*
X54039D02*
X54052Y15799D01*
X54066Y15796D01*
X55000D01*
Y6000D01*
X50000D01*
Y15796D01*
X50934D01*
X50948Y15799D01*
X50961Y15798D01*
X51000Y15803D01*
X51039Y15798D01*
X51052Y15799D01*
X51066Y15796D01*
X52434D01*
X52448Y15799D01*
X52461Y15798D01*
X52500Y15803D01*
X52539Y15798D01*
X52552Y15799D01*
X52566Y15796D01*
X53934D01*
X53948Y15799D01*
X53961Y15798D01*
X54000Y15803D01*
X54039Y15798D01*
D02*
G37*
G36*
X48039D02*
X48052Y15799D01*
X48066Y15796D01*
X49000D01*
Y6000D01*
X44000D01*
Y15796D01*
X44934D01*
X44948Y15799D01*
X44961Y15798D01*
X45000Y15803D01*
X45039Y15798D01*
X45052Y15799D01*
X45066Y15796D01*
X46434D01*
X46448Y15799D01*
X46461Y15798D01*
X46500Y15803D01*
X46539Y15798D01*
X46552Y15799D01*
X46566Y15796D01*
X47934D01*
X47948Y15799D01*
X47961Y15798D01*
X48000Y15803D01*
X48039Y15798D01*
D02*
G37*
G36*
X75000Y6000D02*
X70000D01*
Y15796D01*
X70934D01*
X70948Y15799D01*
X70961Y15798D01*
X71000Y15803D01*
X71039Y15798D01*
X71052Y15799D01*
X71066Y15796D01*
X72434D01*
X72448Y15799D01*
X72461Y15798D01*
X72500Y15803D01*
X72539Y15798D01*
X72552Y15799D01*
X72566Y15796D01*
X73500D01*
X73578Y15812D01*
X73644Y15856D01*
X73688Y15922D01*
X73704Y16000D01*
Y16000D01*
X75000D01*
Y6000D01*
D02*
G37*
G36*
X87000D02*
X82000D01*
Y16000D01*
X87000D01*
Y6000D01*
D02*
G37*
G36*
X81000D02*
X76000D01*
Y16000D01*
X81000D01*
Y6000D01*
D02*
G37*
%LPC*%
G36*
X15675Y76535D02*
X12275D01*
Y74635D01*
X15675D01*
Y76535D01*
D02*
G37*
G36*
X11175Y75265D02*
X7775D01*
Y73365D01*
X11175D01*
Y75265D01*
D02*
G37*
G36*
X48450Y69535D02*
X48255Y69496D01*
X48090Y69385D01*
X47979Y69220D01*
X47940Y69025D01*
X47979Y68830D01*
X48090Y68665D01*
X48255Y68554D01*
X48450Y68515D01*
X48635Y68552D01*
X48647Y68553D01*
X48835Y68440D01*
Y68312D01*
X48859Y68191D01*
X48864Y68183D01*
X48757Y67983D01*
X48450D01*
X48284Y67950D01*
X48144Y67856D01*
X48050Y67716D01*
X48017Y67550D01*
Y66982D01*
X46925D01*
X46788Y66955D01*
X46673Y66877D01*
X46198Y66402D01*
X46120Y66287D01*
X46103Y66200D01*
X46100D01*
X46086Y66186D01*
X45987Y66206D01*
X45312D01*
X45191Y66182D01*
X45087Y66113D01*
X45018Y66009D01*
X44994Y65887D01*
Y65113D01*
X45018Y64991D01*
X45087Y64887D01*
Y64713D01*
X45018Y64609D01*
X44994Y64488D01*
Y64318D01*
X44990Y64300D01*
X44994Y64282D01*
Y63713D01*
X45018Y63591D01*
X45087Y63487D01*
Y63331D01*
X45018Y63227D01*
X44994Y63105D01*
Y62330D01*
X45018Y62209D01*
X45087Y62105D01*
X45191Y62036D01*
X45312Y62012D01*
X45987D01*
X46086Y62032D01*
X46100Y62018D01*
X46900D01*
X47100Y62218D01*
Y63218D01*
X47207Y63394D01*
X47688D01*
X47800Y63416D01*
X47817Y63417D01*
X48000Y63400D01*
X48200Y63200D01*
X49200D01*
X49215Y63215D01*
X49400Y63139D01*
Y62800D01*
X49600Y62600D01*
X50593D01*
Y60700D01*
X49600D01*
X49400Y60500D01*
Y59700D01*
X49414Y59686D01*
X49394Y59588D01*
Y58912D01*
X49418Y58791D01*
X49487Y58687D01*
X49591Y58618D01*
X49713Y58594D01*
X50487D01*
X50609Y58618D01*
X50713Y58687D01*
X50782Y58791D01*
X50806Y58912D01*
Y59451D01*
X51202Y59848D01*
X51280Y59963D01*
X51307Y60100D01*
Y60639D01*
X51507Y60707D01*
X51594Y60594D01*
X51771Y60458D01*
X51978Y60372D01*
X52200Y60343D01*
X52422Y60372D01*
X52629Y60458D01*
X52806Y60594D01*
X52942Y60771D01*
X53028Y60978D01*
X53057Y61200D01*
X53028Y61422D01*
X52942Y61629D01*
X52806Y61806D01*
X52629Y61942D01*
X52422Y62028D01*
X52200Y62057D01*
X51978Y62028D01*
X51771Y61942D01*
X51594Y61806D01*
X51507Y61693D01*
X51307Y61761D01*
Y63179D01*
X51507Y63247D01*
X51594Y63134D01*
X51771Y62998D01*
X51978Y62912D01*
X52200Y62883D01*
X52422Y62912D01*
X52629Y62998D01*
X52806Y63134D01*
X52942Y63311D01*
X53028Y63518D01*
X53057Y63740D01*
X53028Y63962D01*
X52942Y64169D01*
X52806Y64346D01*
X52629Y64482D01*
X52422Y64568D01*
X52200Y64597D01*
X51978Y64568D01*
X51771Y64482D01*
X51594Y64346D01*
X51458Y64169D01*
X51372Y63962D01*
X51343Y63740D01*
X51345Y63724D01*
X51155Y63633D01*
X50806Y63982D01*
Y64387D01*
X50782Y64509D01*
X50713Y64613D01*
X50609Y64682D01*
X50487Y64706D01*
X49713D01*
X49606Y64685D01*
X49583Y64687D01*
X49406Y64799D01*
Y64988D01*
X49390Y65067D01*
X49468Y65209D01*
X49517Y65267D01*
X49800D01*
X49966Y65300D01*
X50067Y65355D01*
Y65355D01*
X50067Y65355D01*
X51083D01*
Y67895D01*
X50919D01*
X50836Y68095D01*
X50941Y68200D01*
Y69200D01*
X50741Y69400D01*
X49941D01*
X49928Y69386D01*
X49829Y69406D01*
X49154D01*
X49032Y69382D01*
X49032Y69382D01*
X48813D01*
X48810Y69385D01*
X48645Y69496D01*
X48450Y69535D01*
D02*
G37*
G36*
X21871Y69178D02*
X21588D01*
X21022Y68612D01*
Y68593D01*
X20938Y68537D01*
X20461Y68060D01*
X20392Y67956D01*
X20368Y67834D01*
X20392Y67712D01*
X20461Y67609D01*
X21009Y67061D01*
X21112Y66992D01*
X21234Y66968D01*
X21356Y66992D01*
X21478Y66833D01*
X21260Y66615D01*
X22462Y65413D01*
X22440Y65383D01*
X22362Y65268D01*
X22362Y65268D01*
X22360Y65255D01*
X22354Y65227D01*
X22337Y65200D01*
X22139Y65170D01*
X22056Y65253D01*
X20977Y66332D01*
X19952Y65307D01*
X20881Y64378D01*
X20782Y64193D01*
X20700Y64210D01*
X20505Y64171D01*
X20340Y64060D01*
X20229Y63895D01*
X20190Y63700D01*
X20197Y63665D01*
X20194Y63660D01*
X20167Y63524D01*
Y62574D01*
X20194Y62438D01*
X20271Y62322D01*
X22065Y60528D01*
X22067Y60454D01*
X22054Y60385D01*
X22002Y60308D01*
X21816Y60271D01*
X21650Y60160D01*
X21540Y59995D01*
X21501Y59800D01*
X21540Y59605D01*
X21650Y59440D01*
X21816Y59329D01*
X22011Y59290D01*
X22206Y59329D01*
X22371Y59440D01*
X22482Y59605D01*
X22489Y59638D01*
X25960D01*
X26777Y58822D01*
X26892Y58744D01*
X27029Y58717D01*
X30070D01*
X30206Y58744D01*
X30322Y58822D01*
X30666Y59165D01*
X31368Y58463D01*
X32712Y59807D01*
X31863Y60655D01*
X31156Y61362D01*
X30449Y62069D01*
X29742Y62777D01*
X29035Y63484D01*
X28387Y62836D01*
X28358Y62817D01*
X27893Y62351D01*
X27786Y62366D01*
X27715Y62578D01*
X28156Y63019D01*
X28175Y63048D01*
X28823Y63696D01*
X28328Y64191D01*
X27621Y64898D01*
X26296Y63573D01*
X26164Y63568D01*
X26058Y63713D01*
X26089Y63791D01*
X27408Y65110D01*
X26560Y65959D01*
X25853Y66666D01*
X25146Y67373D01*
X24439Y68080D01*
X23732Y68787D01*
X22535Y67590D01*
X22335D01*
X22285Y67640D01*
X22191Y67801D01*
X22578Y68188D01*
Y68471D01*
X21871Y69178D01*
D02*
G37*
G36*
X54740Y63327D02*
X54518Y63298D01*
X54311Y63212D01*
X54134Y63076D01*
X53998Y62899D01*
X53912Y62692D01*
X53883Y62470D01*
X53912Y62248D01*
X53998Y62041D01*
X54134Y61864D01*
X54311Y61728D01*
X54518Y61642D01*
X54740Y61613D01*
X54962Y61642D01*
X55169Y61728D01*
X55346Y61864D01*
X55482Y62041D01*
X55568Y62248D01*
X55597Y62470D01*
X55568Y62692D01*
X55482Y62899D01*
X55346Y63076D01*
X55169Y63212D01*
X54962Y63298D01*
X54740Y63327D01*
D02*
G37*
G36*
Y60787D02*
X54518Y60758D01*
X54311Y60672D01*
X54134Y60536D01*
X53998Y60359D01*
X53912Y60152D01*
X53883Y59930D01*
X53912Y59708D01*
X53998Y59501D01*
X54134Y59324D01*
X54311Y59188D01*
X54518Y59102D01*
X54740Y59073D01*
X54962Y59102D01*
X55169Y59188D01*
X55346Y59324D01*
X55482Y59501D01*
X55568Y59708D01*
X55597Y59930D01*
X55568Y60152D01*
X55482Y60359D01*
X55346Y60536D01*
X55169Y60672D01*
X54962Y60758D01*
X54740Y60787D01*
D02*
G37*
G36*
X52940Y59488D02*
X52692Y59456D01*
X52461Y59360D01*
X52262Y59208D01*
X52110Y59009D01*
X52014Y58778D01*
X51982Y58530D01*
X52014Y58282D01*
X52110Y58051D01*
X52262Y57852D01*
X52461Y57700D01*
X52692Y57604D01*
X52940Y57572D01*
X53188Y57604D01*
X53419Y57700D01*
X53618Y57852D01*
X53770Y58051D01*
X53866Y58282D01*
X53898Y58530D01*
X53866Y58778D01*
X53770Y59009D01*
X53618Y59208D01*
X53419Y59360D01*
X53188Y59456D01*
X52940Y59488D01*
D02*
G37*
%LPD*%
G36*
X23722Y63137D02*
Y63029D01*
X24429Y62322D01*
X24441D01*
X24524Y62122D01*
X24161Y61760D01*
X24092Y61656D01*
X24068Y61534D01*
X24092Y61412D01*
X24161Y61309D01*
X24405Y61065D01*
X24328Y60881D01*
X22722D01*
X22276Y61327D01*
X22978Y62029D01*
Y62312D01*
X22796Y62494D01*
X23522Y63220D01*
X23722Y63137D01*
D02*
G37*
G36*
X26051Y61596D02*
X26222Y61549D01*
X26261Y61491D01*
X26738Y61013D01*
X26822Y60957D01*
Y60938D01*
X27388Y60372D01*
X27671D01*
X28378Y61080D01*
Y61171D01*
X28439Y61216D01*
X28578Y61254D01*
X29454Y60377D01*
X29008Y59931D01*
X27384D01*
X26539Y60776D01*
X26423Y60854D01*
X26286Y60881D01*
X25541D01*
X25464Y61065D01*
X25637Y61238D01*
X25693Y61322D01*
X25712D01*
X25987Y61597D01*
X26051Y61596D01*
D02*
G37*
D14*
X53800Y75400D02*
D03*
Y73700D02*
D03*
X55200Y74550D02*
D03*
Y72850D02*
D03*
X48700Y62950D02*
D03*
Y64650D02*
D03*
X50100Y59250D02*
D03*
Y60950D02*
D03*
Y62350D02*
D03*
Y64050D02*
D03*
D15*
X26101Y62701D02*
D03*
X24899Y61499D02*
D03*
X25101Y63701D02*
D03*
X23899Y62499D02*
D03*
X23441Y73001D02*
D03*
X22239Y71799D02*
D03*
X21199Y67799D02*
D03*
X22401Y69001D02*
D03*
D16*
X48050Y76300D02*
D03*
X49750D02*
D03*
X49491Y68700D02*
D03*
X51191D02*
D03*
X47350Y65500D02*
D03*
X45650D02*
D03*
X47350Y64100D02*
D03*
X45650D02*
D03*
X45050Y76300D02*
D03*
X46750D02*
D03*
X43771D02*
D03*
X42071D02*
D03*
X46750Y77700D02*
D03*
X48450D02*
D03*
X47350Y62718D02*
D03*
X45650D02*
D03*
X36650Y59300D02*
D03*
X38350D02*
D03*
D23*
X49125Y66625D02*
D03*
X52025D02*
D03*
D30*
X41273Y73802D02*
X41999D01*
X42183Y72602D02*
Y73676D01*
X37718Y77357D02*
X41273Y73802D01*
X36049Y79200D02*
Y79701D01*
X11150Y60425D02*
X12330Y59245D01*
X9400Y60425D02*
X11150D01*
X9175Y60200D02*
X9400Y60425D01*
X48450Y69025D02*
X49166D01*
X49491Y68700D01*
X45600Y62800D02*
X45729D01*
X42141Y65488D02*
X42353D01*
X41053Y64400D02*
X42141Y65488D01*
X40776Y64400D02*
X41053D01*
X40136Y65039D02*
X40776Y64400D01*
X39501Y65675D02*
X40136Y65039D01*
X39200Y65675D02*
X39501D01*
X38250Y64725D02*
X39200Y65675D01*
X37544Y64725D02*
X38250D01*
X37319Y64950D02*
X37544Y64725D01*
X36781Y64950D02*
X37319D01*
X36400Y64569D02*
X36781Y64950D01*
X36400Y64050D02*
Y64569D01*
X35900Y63550D02*
X36400Y64050D01*
X35900Y62370D02*
Y63550D01*
X35261Y61731D02*
X35900Y62370D01*
X35261Y61430D02*
Y61731D01*
Y61430D02*
X35894Y60797D01*
X50100Y64050D02*
X50375Y64325D01*
X50233Y64050D02*
X50950Y63333D01*
Y60100D02*
Y63333D01*
X50100Y59250D02*
X50950Y60100D01*
X12330Y59245D02*
X15620D01*
X15825Y59450D01*
Y60859D01*
X16625Y61659D01*
Y63067D01*
X17450Y63892D01*
Y65285D01*
X18225Y66060D01*
Y67460D01*
X19050Y68285D01*
Y69105D01*
X21744Y71799D01*
X22239D01*
X27029Y59074D02*
X30070D01*
X26108Y59995D02*
X27029Y59074D01*
X22206Y59995D02*
X26108D01*
X27236Y59574D02*
X29156D01*
X26286Y60524D02*
X27236Y59574D01*
X22574Y60524D02*
X26286D01*
X43300Y72400D02*
X43401D01*
X43089D02*
X43300D01*
Y72299D02*
X43401Y72400D01*
X42889Y72600D02*
X43089Y72400D01*
X27145Y60372D02*
X28024D01*
X22899Y61499D02*
X23899Y62499D01*
X28024Y60372D02*
X28201Y60549D01*
X26024Y61493D02*
X27145Y60372D01*
X22011Y59800D02*
X22206Y59995D01*
X26024Y61493D02*
Y61575D01*
X20524Y62574D02*
X22574Y60524D01*
X25100Y62499D02*
X26024Y61575D01*
X23899Y62499D02*
X25100D01*
X29156Y59574D02*
X30378Y60797D01*
X30070Y59074D02*
X31085Y60090D01*
X32538Y78000D02*
X32900D01*
X31088Y76550D02*
X32538Y78000D01*
X50050Y76031D02*
Y76300D01*
X49000Y74981D02*
X50050Y76031D01*
X48350Y75350D02*
Y77600D01*
X29500Y74752D02*
Y74969D01*
X28611Y75858D02*
X29500Y74969D01*
X27984Y73676D02*
X28276D01*
X24937Y70629D02*
X27984Y73676D01*
X30076Y75100D02*
X30400D01*
X28964Y76212D02*
X30076Y75100D01*
X30747Y76550D02*
X31088D01*
X30025Y77272D02*
X30747Y76550D01*
X35501Y75932D02*
X36322D01*
X35433Y76000D02*
X35501Y75932D01*
X37000Y74700D02*
X38174Y73526D01*
Y73371D02*
Y73526D01*
X36295Y74710D02*
X36300Y74715D01*
X37000Y75196D02*
X37661Y75858D01*
X37000Y74700D02*
Y75196D01*
X36300Y74715D02*
Y75204D01*
X37308Y76212D01*
X36322Y75932D02*
X36954Y76565D01*
X45048Y71027D02*
X45737Y70338D01*
X43437Y71027D02*
X45048D01*
X42965Y70555D02*
X43437Y71027D01*
X45737Y70338D02*
X49462D01*
X45943Y70882D02*
X50267D01*
X45225Y71600D02*
X45943Y70882D01*
X43303Y71600D02*
X45225D01*
X50267Y70882D02*
X50929Y70220D01*
X49462Y70338D02*
X49700Y70100D01*
X43300Y72289D02*
Y72299D01*
X41999Y73676D02*
Y73802D01*
X41904Y71615D02*
X42889Y72600D01*
X42611Y70908D02*
X43303Y71600D01*
X43201Y72600D02*
X43401Y72400D01*
X46450Y66150D02*
X46925Y66625D01*
X46450Y63521D02*
Y66150D01*
X36300Y78739D02*
Y78949D01*
X35540Y77979D02*
X36300Y78739D01*
X36049Y79200D02*
X36300Y78949D01*
X34074Y77700D02*
X34554D01*
X34000Y77626D02*
X34074Y77700D01*
X24196Y73201D02*
X25075Y72322D01*
X23641Y73201D02*
X24196D01*
X23441Y73001D02*
X23641Y73201D01*
X22239Y71799D02*
X22409Y71969D01*
X23307D01*
X24014Y71262D01*
X24647Y70629D01*
X24937D01*
X34554Y77700D02*
X35187Y78333D01*
X25101Y63701D02*
X26101Y62701D01*
X52100Y69000D02*
X52200Y68900D01*
X36767Y78499D02*
X37251D01*
X35894Y77626D02*
X36767Y78499D01*
X36650Y59300D02*
Y60040D01*
X35894Y60797D02*
X36650Y60040D01*
X26999Y61751D02*
Y62367D01*
X27903Y63272D01*
X26999Y61751D02*
X27179Y61932D01*
X27978D01*
X28257Y62918D02*
X29239Y63900D01*
X22801Y61499D02*
X22899D01*
X21801Y62701D02*
X22692Y63592D01*
X21599Y62701D02*
X21801D01*
X22692Y63592D02*
Y65131D01*
X24368Y66807D01*
X22274Y66626D02*
X22372Y66528D01*
X23382D01*
X24014Y67161D01*
X22274Y66626D02*
Y66724D01*
X21199Y67799D02*
X22274Y66724D01*
X41551Y71969D02*
X42183Y72602D01*
X20524Y62574D02*
Y63524D01*
X20700Y63700D01*
X48350Y77600D02*
X48450Y77700D01*
X53600Y75600D02*
X53800Y75400D01*
X51829Y75600D02*
X53600D01*
X49729Y77700D02*
X51829Y75600D01*
X48450Y77700D02*
X49729D01*
X48350Y75350D02*
X48400Y75300D01*
X49000Y73900D02*
Y74981D01*
Y73900D02*
X49600Y73300D01*
X51200Y75100D02*
X52100D01*
X50800Y74700D02*
X51200Y75100D01*
X50800Y74500D02*
Y74700D01*
X49900Y74400D02*
X50700Y73600D01*
X52600D01*
X43485Y75693D02*
Y80650D01*
X43901Y76520D02*
Y76565D01*
X45525Y75075D02*
Y77340D01*
X42404Y76067D02*
Y77921D01*
X46425Y74875D02*
Y80750D01*
X42404Y76067D02*
X45371Y73100D01*
X47700D01*
X43485Y75693D02*
X45578Y73600D01*
X47700D01*
X45525Y75075D02*
X45925Y74675D01*
Y74668D02*
Y74675D01*
Y74668D02*
X46493Y74100D01*
X47700D01*
X46425Y74875D02*
X46700Y74600D01*
X47700D01*
X49800Y73100D02*
X52100D01*
X49600Y73300D02*
X49800Y73100D01*
X52100D02*
X53021D01*
X53271Y72850D01*
X55200D01*
X53400Y74100D02*
X53800Y73700D01*
X52100Y74100D02*
X53400D01*
X55150Y74600D02*
X55200Y74550D01*
X52100Y74600D02*
X55150D01*
X52100Y75100D02*
X52600D01*
X42215Y78110D02*
X42404Y77921D01*
X44755Y78110D02*
X45525Y77340D01*
X25001Y63801D02*
Y63905D01*
X26136Y65039D01*
X27978Y61932D02*
X28611Y62564D01*
X50100Y60950D02*
Y62350D01*
X49300D02*
X50100D01*
X48700Y62950D02*
X49300Y62350D01*
X48468Y62718D02*
X48700Y62950D01*
X47350Y62718D02*
X48468D01*
X50100Y64050D02*
X50233D01*
X49300D02*
X50100D01*
X48700Y64650D02*
X49300Y64050D01*
X48150Y64100D02*
X48700Y64650D01*
X47350Y64100D02*
X48150D01*
X47350D02*
Y65500D01*
X46925Y66625D02*
X49125D01*
X45729Y62800D02*
X46450Y63521D01*
D32*
X17602Y81300D02*
X38895D01*
X16002Y79700D02*
X17602Y81300D01*
X9780Y79700D02*
X16002D01*
X13100Y78500D02*
X13100Y78500D01*
X39675Y78110D02*
Y80520D01*
X38895Y81300D02*
X39675Y80520D01*
X9475Y79395D02*
X9780Y79700D01*
D33*
X43300Y66350D02*
Y66400D01*
X39500Y64191D02*
Y64332D01*
X42602Y64888D02*
X42953Y65240D01*
X42177Y64888D02*
X42602D01*
X42953Y65240D02*
Y66088D01*
X43088Y64488D02*
X43400Y64800D01*
X42343Y64488D02*
X43088D01*
X42953Y66088D02*
X43215Y66350D01*
X42495Y63875D02*
X42602D01*
X41538Y62918D02*
X42495Y63875D01*
X42602D02*
X42802D01*
X41173Y63318D02*
X42343Y64488D01*
X41038Y63749D02*
X42177Y64888D01*
X39941Y63749D02*
X41038D01*
X44301Y66617D02*
X44415Y66503D01*
X39429Y62918D02*
X41538D01*
X39736Y63318D02*
X41173D01*
X40250Y71218D02*
X42251Y69218D01*
X39616Y72418D02*
X42416Y69618D01*
X40085Y70818D02*
X42085Y68818D01*
X37641Y70818D02*
X40085D01*
X44523Y70377D02*
X44700Y70200D01*
X37738Y72418D02*
X39616D01*
X37807Y71218D02*
X40250D01*
X43815Y65788D02*
Y66599D01*
X45600Y65100D02*
Y65450D01*
X45500Y64200D02*
Y64300D01*
X43815Y66599D02*
Y67233D01*
Y66599D02*
X43815Y66599D01*
X43815Y67233D02*
X43901Y67319D01*
Y67568D01*
X44301Y66617D02*
Y67733D01*
X42816Y69218D02*
X44301Y67733D01*
X18200Y69457D02*
X23109Y74366D01*
X18200Y68637D02*
Y69457D01*
X17375Y67812D02*
X18200Y68637D01*
X17375Y66412D02*
Y67812D01*
X17800Y69623D02*
X22967Y74790D01*
X17800Y68803D02*
Y69623D01*
X16975Y67978D02*
X17800Y68803D01*
X16975Y66578D02*
Y67978D01*
X17400Y69788D02*
X22802Y75190D01*
X17400Y68969D02*
Y69788D01*
X16575Y68144D02*
X17400Y68969D01*
X16575Y66744D02*
Y68144D01*
X15775Y65944D02*
X16575Y66744D01*
X17000Y69954D02*
X22636Y75590D01*
X17000Y69134D02*
Y69954D01*
X16175Y68309D02*
X17000Y69134D01*
X16175Y66909D02*
Y68309D01*
X14691Y65425D02*
X16175Y66909D01*
X16600Y70120D02*
X22470Y75990D01*
X16600Y69300D02*
Y70120D01*
X15775Y68475D02*
X16600Y69300D01*
X15775Y67075D02*
Y68475D01*
X15395Y66695D02*
X15775Y67075D01*
X9475Y66695D02*
X15395D01*
X16200Y70285D02*
X22305Y76390D01*
X16200Y69490D02*
Y70285D01*
X15310Y68600D02*
X16200Y69490D01*
X14610Y68600D02*
X15310D01*
X15800Y70451D02*
X22139Y76790D01*
X15800Y69656D02*
Y70451D01*
X15379Y69235D02*
X15800Y69656D01*
X9475Y69235D02*
X15379D01*
X15883Y71100D02*
X21973Y77190D01*
X14570Y71100D02*
X15883D01*
X15992Y71775D02*
X21808Y77590D01*
X9475Y71775D02*
X15992D01*
X16052Y72400D02*
X21642Y77990D01*
X14620Y72400D02*
X16052D01*
X17775Y67647D02*
X18600Y68472D01*
X35116Y60090D02*
Y60231D01*
X32810Y78659D02*
X34098D01*
X31210Y80259D02*
X32810Y78659D01*
X28672Y80259D02*
X31210D01*
X34057Y76100D02*
X37738Y72418D01*
X30613Y63900D02*
X31100Y63413D01*
Y63130D02*
Y63413D01*
Y63130D02*
X33461Y60769D01*
X30500Y63100D02*
X30565D01*
X33296Y60369D01*
X30500Y63900D02*
X30613D01*
X28500Y74338D02*
X29086Y73752D01*
X30466D01*
X28500Y74338D02*
Y74484D01*
X29251Y74152D02*
X30300D01*
X28900Y74503D02*
Y74791D01*
Y74503D02*
X29251Y74152D01*
X31614Y74900D02*
X33559D01*
X30466Y73752D02*
X31614Y74900D01*
X30300Y74152D02*
X31448Y75300D01*
X33725D01*
X27903Y75080D02*
X28500Y74484D01*
X27903Y75080D02*
Y75151D01*
X28257Y75434D02*
X28900Y74791D01*
X28257Y75434D02*
Y75504D01*
X29318Y76518D02*
X30136Y75700D01*
X33891D01*
X29671Y76919D02*
X30490Y76100D01*
X34057D01*
X33891Y75700D02*
X37772Y71818D01*
X33559Y74900D02*
X37641Y70818D01*
X33725Y75300D02*
X37807Y71218D01*
X37772Y71818D02*
X39182D01*
X43777Y70377D02*
X44523D01*
X43018Y69618D02*
X43777Y70377D01*
X42100Y60351D02*
Y60849D01*
X41527Y61422D02*
X42100Y60849D01*
X41500Y61422D02*
X41527D01*
X39898Y60999D02*
X40100Y60797D01*
X37813Y60999D02*
X39898D01*
X39467Y60582D02*
X39851Y60197D01*
X37523Y60582D02*
X39467D01*
X41097Y60197D02*
X41500Y60600D01*
X39851Y60197D02*
X41097D01*
X41545Y59797D02*
X42100Y60351D01*
X39686Y59797D02*
X41545D01*
X37174Y60153D02*
X39330D01*
X39686Y59797D01*
X36601Y61504D02*
X37523Y60582D01*
X36318Y61009D02*
Y61150D01*
X36954Y61857D02*
X37813Y60999D01*
X36318Y61009D02*
X37174Y60153D01*
X42085Y68818D02*
X42651D01*
X26403Y77990D02*
X28672Y80259D01*
X26569Y77590D02*
X28837Y79859D01*
X26734Y77190D02*
X29003Y79459D01*
X29169Y79059D02*
X30360D01*
X26900Y76790D02*
X29169Y79059D01*
X29334Y78659D02*
X30053D01*
X27066Y76390D02*
X29334Y78659D01*
X29745Y78259D02*
X30378Y77626D01*
X29500Y78259D02*
X29745D01*
X27232Y75990D02*
X29500Y78259D01*
X28837Y79859D02*
X30974D01*
X29003Y79459D02*
X30667D01*
X30360Y79059D02*
X31085Y78333D01*
X30053Y78659D02*
X30732Y77979D01*
X30667Y79459D02*
X31439Y78686D01*
X30974Y79859D02*
X31793Y79040D01*
X21642Y77990D02*
X26403D01*
X21808Y77590D02*
X26569D01*
X21973Y77190D02*
X26734D01*
X22139Y76790D02*
X26900D01*
X22305Y76390D02*
X27066D01*
X22470Y75990D02*
X27232D01*
X26757Y75590D02*
X27550Y74797D01*
X22636Y75590D02*
X26757D01*
X26450Y75190D02*
X27196Y74444D01*
X22802Y75190D02*
X26450D01*
X26143Y74790D02*
X26843Y74090D01*
X22967Y74790D02*
X26143D01*
X25860Y74366D02*
X26489Y73737D01*
X23109Y74366D02*
X25860D01*
X25553Y73966D02*
X26136Y73383D01*
X23275Y73966D02*
X25553D01*
X18600Y69291D02*
X23275Y73966D01*
X34098Y78659D02*
X34480Y79040D01*
X13975Y73045D02*
X14620Y72400D01*
X13975Y70505D02*
X14570Y71100D01*
X18600Y68472D02*
Y69291D01*
X17775Y66247D02*
Y67647D01*
X17000Y65472D02*
X17775Y66247D01*
X17000Y64079D02*
Y65472D01*
X16175Y63254D02*
X17000Y64079D01*
X16175Y64385D02*
Y65778D01*
X14675Y62885D02*
X16175Y64385D01*
X15775Y64551D02*
Y65944D01*
X15415Y64191D02*
X15775Y64551D01*
X9511Y64191D02*
X15415D01*
X9475Y64155D02*
X9511Y64191D01*
X16175Y61845D02*
Y63254D01*
X14675Y60345D02*
X16175Y61845D01*
X16575Y65612D02*
X17375Y66412D01*
X16575Y64219D02*
Y65612D01*
X15775Y63419D02*
X16575Y64219D01*
X15775Y62011D02*
Y63419D01*
X15379Y61615D02*
X15775Y62011D01*
X16175Y65778D02*
X16975Y66578D01*
X33461Y60769D02*
X34578D01*
X35116Y60231D01*
Y60090D02*
X35187D01*
X33296Y60369D02*
X34200D01*
X40448Y62300D02*
X40500D01*
X39730Y61582D02*
X40448Y62300D01*
X29318Y76518D02*
Y76565D01*
X42251Y69218D02*
X42816D01*
X42416Y69618D02*
X43018D01*
X13975Y60345D02*
X14675D01*
X9475Y61615D02*
X15379D01*
X13975Y62885D02*
X14675D01*
X13975Y65425D02*
X14691D01*
X13975Y67965D02*
X14610Y68600D01*
X34200Y60369D02*
X34833Y59736D01*
X36247Y61150D02*
X36318D01*
X39182Y61982D02*
X39550Y62350D01*
X37732Y62423D02*
Y62564D01*
X38174Y61982D02*
X39182D01*
X39550Y62350D02*
X39600Y62300D01*
X38722Y63625D02*
X39429Y62918D01*
X39076Y63979D02*
X39736Y63318D01*
X39500Y64191D02*
X39941Y63749D01*
X37308Y62211D02*
X37900Y61619D01*
X37971D01*
X38008Y61582D01*
X39730D01*
X37485Y64155D02*
X38369Y63272D01*
X37195Y64155D02*
X37485D01*
X37050Y64300D02*
X37195Y64155D01*
X36954Y63654D02*
X37279D01*
X36800Y63500D02*
X36954Y63654D01*
X37279D02*
X38015Y62918D01*
X37732Y62423D02*
X38174Y61982D01*
X37661Y62564D02*
X37732D01*
X45600Y65450D02*
X45600Y65450D01*
X42651Y68818D02*
X43901Y67568D01*
X45500Y64200D02*
X45600Y64100D01*
X45650D02*
X45900D01*
X45600D02*
X45650D01*
X45600Y65450D02*
X45650Y65500D01*
X39429Y64332D02*
X39500D01*
X39076Y63908D02*
Y63979D01*
D35*
X16000Y90600D02*
D03*
X21000D02*
D03*
X26000D02*
D03*
X43000D02*
D03*
X48000D02*
D03*
X53000D02*
D03*
X70000D02*
D03*
X75000D02*
D03*
X80000D02*
D03*
X60500Y49500D02*
D03*
Y43500D02*
D03*
X8500Y24500D02*
D03*
Y18500D02*
D03*
X65975D02*
D03*
Y24500D02*
D03*
X34975Y43500D02*
D03*
X8975Y49500D02*
D03*
X39975Y18500D02*
D03*
Y24500D02*
D03*
X8975Y43500D02*
D03*
X34975Y49500D02*
D03*
X13975Y18500D02*
D03*
Y24500D02*
D03*
X27500Y34000D02*
D03*
X53500D02*
D03*
X32500Y9000D02*
D03*
X58500D02*
D03*
X84500D02*
D03*
X21500Y34000D02*
D03*
X47500D02*
D03*
X26500Y9000D02*
D03*
X52500D02*
D03*
X78500D02*
D03*
X15500Y34000D02*
D03*
X41500D02*
D03*
X20500Y9000D02*
D03*
X46500D02*
D03*
X72500D02*
D03*
D36*
X79600Y68000D02*
D03*
Y73000D02*
D03*
Y78000D02*
D03*
X96000Y36000D02*
D03*
Y41000D02*
D03*
Y46000D02*
D03*
X78000Y40000D02*
D03*
Y45000D02*
D03*
Y50000D02*
D03*
X96000Y68000D02*
D03*
Y73000D02*
D03*
Y78000D02*
D03*
X62000Y75000D02*
D03*
Y70000D02*
D03*
Y65000D02*
D03*
D37*
X88000Y47500D02*
D03*
X89000D02*
D03*
X90000D02*
D03*
Y46500D02*
D03*
Y45500D02*
D03*
Y44500D02*
D03*
X89000D02*
D03*
X88000D02*
D03*
Y45500D02*
D03*
Y46500D02*
D03*
X89000D02*
D03*
Y45500D02*
D03*
X88000Y42500D02*
D03*
X89000D02*
D03*
X90000D02*
D03*
Y41500D02*
D03*
Y40500D02*
D03*
Y39500D02*
D03*
X89000D02*
D03*
X88000D02*
D03*
Y40500D02*
D03*
Y41500D02*
D03*
X89000D02*
D03*
Y40500D02*
D03*
Y36500D02*
D03*
Y35500D02*
D03*
X88000Y37500D02*
D03*
X90000D02*
D03*
Y34500D02*
D03*
X88000D02*
D03*
Y35500D02*
D03*
X90000D02*
D03*
Y36500D02*
D03*
X88000D02*
D03*
X89000Y37500D02*
D03*
Y34500D02*
D03*
X70000Y51500D02*
D03*
X71000D02*
D03*
X72000D02*
D03*
Y50500D02*
D03*
Y49500D02*
D03*
Y48500D02*
D03*
X71000D02*
D03*
X70000D02*
D03*
Y49500D02*
D03*
Y50500D02*
D03*
X71000D02*
D03*
Y49500D02*
D03*
X70000Y46500D02*
D03*
X71000D02*
D03*
X72000D02*
D03*
Y45500D02*
D03*
Y44500D02*
D03*
Y43500D02*
D03*
X71000D02*
D03*
X70000D02*
D03*
Y44500D02*
D03*
Y45500D02*
D03*
X71000D02*
D03*
Y44500D02*
D03*
Y40500D02*
D03*
Y39500D02*
D03*
X70000Y41500D02*
D03*
X72000D02*
D03*
Y38500D02*
D03*
X70000D02*
D03*
Y39500D02*
D03*
X72000D02*
D03*
Y40500D02*
D03*
X70000D02*
D03*
X71000Y41500D02*
D03*
Y38500D02*
D03*
X88000Y79500D02*
D03*
X89000D02*
D03*
X90000D02*
D03*
Y78500D02*
D03*
Y77500D02*
D03*
Y76500D02*
D03*
X89000D02*
D03*
X88000D02*
D03*
Y77500D02*
D03*
Y78500D02*
D03*
X89000D02*
D03*
Y77500D02*
D03*
X88000Y74500D02*
D03*
X89000D02*
D03*
X90000D02*
D03*
Y73500D02*
D03*
Y72500D02*
D03*
Y71500D02*
D03*
X89000D02*
D03*
X88000D02*
D03*
Y72500D02*
D03*
Y73500D02*
D03*
X89000D02*
D03*
Y72500D02*
D03*
Y68500D02*
D03*
Y67500D02*
D03*
X88000Y69500D02*
D03*
X90000D02*
D03*
Y66500D02*
D03*
X88000D02*
D03*
Y67500D02*
D03*
X90000D02*
D03*
Y68500D02*
D03*
X88000D02*
D03*
X89000Y69500D02*
D03*
Y66500D02*
D03*
X70000Y63500D02*
D03*
X69000D02*
D03*
X68000D02*
D03*
Y64500D02*
D03*
Y65500D02*
D03*
Y66500D02*
D03*
X69000D02*
D03*
X70000D02*
D03*
Y65500D02*
D03*
Y64500D02*
D03*
X69000D02*
D03*
Y65500D02*
D03*
X70000Y68500D02*
D03*
X69000D02*
D03*
X68000D02*
D03*
Y69500D02*
D03*
Y70500D02*
D03*
Y71500D02*
D03*
X69000D02*
D03*
X70000D02*
D03*
Y70500D02*
D03*
Y69500D02*
D03*
X69000D02*
D03*
Y70500D02*
D03*
Y74500D02*
D03*
Y75500D02*
D03*
X70000Y73500D02*
D03*
X68000D02*
D03*
Y76500D02*
D03*
X70000D02*
D03*
Y75500D02*
D03*
X68000D02*
D03*
Y74500D02*
D03*
X70000D02*
D03*
X69000Y73500D02*
D03*
Y76500D02*
D03*
X9175Y60200D02*
D03*
D38*
X51500Y44000D02*
D03*
X43500Y50000D02*
D03*
X45500Y48000D02*
D03*
Y52000D02*
D03*
X47500Y50000D02*
D03*
X49500Y48000D02*
D03*
Y52000D02*
D03*
X51500Y50000D02*
D03*
X49500Y46000D02*
D03*
Y42000D02*
D03*
X47500Y44000D02*
D03*
X45500Y46000D02*
D03*
Y42000D02*
D03*
X43500Y44000D02*
D03*
X54000Y45000D02*
D03*
X55500D02*
D03*
X57000D02*
D03*
Y43500D02*
D03*
X55500D02*
D03*
X54000D02*
D03*
Y42000D02*
D03*
X55500D02*
D03*
X57000D02*
D03*
X54000Y51000D02*
D03*
X55500D02*
D03*
X57000D02*
D03*
Y49500D02*
D03*
X55500D02*
D03*
X54000D02*
D03*
Y48000D02*
D03*
X55500D02*
D03*
X57000D02*
D03*
X62500Y19000D02*
D03*
Y25000D02*
D03*
X36500Y19000D02*
D03*
Y25000D02*
D03*
X32500D02*
D03*
Y19000D02*
D03*
X34500Y27000D02*
D03*
Y23000D02*
D03*
Y17000D02*
D03*
Y21000D02*
D03*
X43500Y17000D02*
D03*
X46500Y18500D02*
D03*
X43500D02*
D03*
Y20000D02*
D03*
X45000D02*
D03*
Y18500D02*
D03*
X46500Y20000D02*
D03*
Y17000D02*
D03*
X45000D02*
D03*
X43500Y23000D02*
D03*
X46500Y24500D02*
D03*
X43500D02*
D03*
Y26000D02*
D03*
X45000D02*
D03*
Y24500D02*
D03*
X46500Y26000D02*
D03*
Y23000D02*
D03*
X45000D02*
D03*
X30500Y21000D02*
D03*
Y17000D02*
D03*
Y23000D02*
D03*
Y27000D02*
D03*
X69500Y17000D02*
D03*
X72500Y18500D02*
D03*
X69500D02*
D03*
Y20000D02*
D03*
X71000D02*
D03*
Y18500D02*
D03*
X72500Y20000D02*
D03*
Y17000D02*
D03*
X71000D02*
D03*
X69500Y23000D02*
D03*
X72500Y24500D02*
D03*
X69500D02*
D03*
Y26000D02*
D03*
X71000D02*
D03*
Y24500D02*
D03*
X72500Y26000D02*
D03*
Y23000D02*
D03*
X71000D02*
D03*
X12500Y42000D02*
D03*
Y43500D02*
D03*
X14000Y42000D02*
D03*
Y43500D02*
D03*
X15500Y42000D02*
D03*
Y43500D02*
D03*
Y45000D02*
D03*
Y48000D02*
D03*
X14000D02*
D03*
X15500Y49500D02*
D03*
X14000D02*
D03*
X12500Y48000D02*
D03*
Y49500D02*
D03*
X15500Y51000D02*
D03*
X14000Y45000D02*
D03*
X12500D02*
D03*
X14000Y51000D02*
D03*
X12500D02*
D03*
X40000Y49500D02*
D03*
X58500Y25000D02*
D03*
X60500Y27000D02*
D03*
Y23000D02*
D03*
Y21000D02*
D03*
X58500Y19000D02*
D03*
X60500Y17000D02*
D03*
X41500Y49500D02*
D03*
X17500Y44000D02*
D03*
X19500Y42000D02*
D03*
Y46000D02*
D03*
X21500Y44000D02*
D03*
X23500Y42000D02*
D03*
Y46000D02*
D03*
X25500Y44000D02*
D03*
X27500Y42000D02*
D03*
Y46000D02*
D03*
X29500Y44000D02*
D03*
X31500Y46000D02*
D03*
Y42000D02*
D03*
Y52000D02*
D03*
Y48000D02*
D03*
X29500Y50000D02*
D03*
X27500Y52000D02*
D03*
Y48000D02*
D03*
X25500Y50000D02*
D03*
X23500Y52000D02*
D03*
Y48000D02*
D03*
X21500Y50000D02*
D03*
X19500Y52000D02*
D03*
Y48000D02*
D03*
X17500Y50000D02*
D03*
X17500Y20000D02*
D03*
X22500Y17000D02*
D03*
Y21000D02*
D03*
X24500Y19000D02*
D03*
X26500Y17000D02*
D03*
Y21000D02*
D03*
X28500Y19000D02*
D03*
X48500Y21000D02*
D03*
Y17000D02*
D03*
X50500Y19000D02*
D03*
X52500Y17000D02*
D03*
Y21000D02*
D03*
X54500Y19000D02*
D03*
X56500Y21000D02*
D03*
X22500Y23000D02*
D03*
Y27000D02*
D03*
X24500Y25000D02*
D03*
X26500Y23000D02*
D03*
Y27000D02*
D03*
X28500Y25000D02*
D03*
X48500Y27000D02*
D03*
Y23000D02*
D03*
X56500Y27000D02*
D03*
Y23000D02*
D03*
X54500Y25000D02*
D03*
X52500Y23000D02*
D03*
Y27000D02*
D03*
X38500Y43500D02*
D03*
X41500Y42000D02*
D03*
X40000D02*
D03*
X38500D02*
D03*
X40000Y43500D02*
D03*
X41500D02*
D03*
Y45000D02*
D03*
X40000D02*
D03*
X38500D02*
D03*
X41500Y48000D02*
D03*
X40000D02*
D03*
X38500D02*
D03*
Y49500D02*
D03*
X41500Y51000D02*
D03*
X40000D02*
D03*
X38500D02*
D03*
X20500Y20000D02*
D03*
X19000D02*
D03*
X17500Y18500D02*
D03*
X19000D02*
D03*
X20500D02*
D03*
Y17000D02*
D03*
X19000D02*
D03*
X17500D02*
D03*
X19000Y23000D02*
D03*
X20500D02*
D03*
Y26000D02*
D03*
X19000Y24500D02*
D03*
Y26000D02*
D03*
X17500D02*
D03*
Y24500D02*
D03*
X20500D02*
D03*
X17500Y23000D02*
D03*
X50500Y25000D02*
D03*
X56500Y17000D02*
D03*
X55000Y37000D02*
D03*
X53500D02*
D03*
X52000D02*
D03*
Y38500D02*
D03*
X53500D02*
D03*
X55000D02*
D03*
Y40000D02*
D03*
X53500D02*
D03*
X52000D02*
D03*
X47500Y37000D02*
D03*
Y38500D02*
D03*
Y40000D02*
D03*
X49000Y37000D02*
D03*
Y38500D02*
D03*
Y40000D02*
D03*
X46000D02*
D03*
X46000Y38500D02*
D03*
Y37000D02*
D03*
X43000D02*
D03*
X41500D02*
D03*
X40000D02*
D03*
Y38500D02*
D03*
X41500D02*
D03*
X43000D02*
D03*
Y40000D02*
D03*
X41500D02*
D03*
X40000D02*
D03*
X26000D02*
D03*
X27500D02*
D03*
X29000D02*
D03*
Y38500D02*
D03*
X27500D02*
D03*
X26000D02*
D03*
Y37000D02*
D03*
X27500D02*
D03*
X29000D02*
D03*
X20000Y40000D02*
D03*
X21500D02*
D03*
X23000D02*
D03*
Y38500D02*
D03*
X21500D02*
D03*
X20000D02*
D03*
Y37000D02*
D03*
X21500D02*
D03*
X23000D02*
D03*
X14000Y40000D02*
D03*
X15500D02*
D03*
X17000D02*
D03*
Y38500D02*
D03*
X15500D02*
D03*
X14000D02*
D03*
Y37000D02*
D03*
X15500D02*
D03*
X17000D02*
D03*
X83000Y15000D02*
D03*
X84500D02*
D03*
X86000D02*
D03*
Y13500D02*
D03*
X84500D02*
D03*
X83000D02*
D03*
Y12000D02*
D03*
X84500D02*
D03*
X86000D02*
D03*
X77000Y15000D02*
D03*
X78500D02*
D03*
X80000D02*
D03*
Y13500D02*
D03*
X78500D02*
D03*
X77000D02*
D03*
Y12000D02*
D03*
X78500D02*
D03*
X80000D02*
D03*
X71000Y15000D02*
D03*
X72500D02*
D03*
X74000D02*
D03*
Y13500D02*
D03*
X72500D02*
D03*
X71000D02*
D03*
Y12000D02*
D03*
X72500D02*
D03*
X74000D02*
D03*
X57000Y15000D02*
D03*
X58500D02*
D03*
X60000D02*
D03*
Y13500D02*
D03*
X58500D02*
D03*
X57000D02*
D03*
Y12000D02*
D03*
X58500D02*
D03*
X60000D02*
D03*
X51000Y15000D02*
D03*
X52500D02*
D03*
X54000D02*
D03*
Y13500D02*
D03*
X52500D02*
D03*
X51000D02*
D03*
Y12000D02*
D03*
X52500D02*
D03*
X54000D02*
D03*
X45000Y15000D02*
D03*
X46500D02*
D03*
X48000D02*
D03*
Y13500D02*
D03*
X46500D02*
D03*
X45000D02*
D03*
Y12000D02*
D03*
X46500D02*
D03*
X48000D02*
D03*
X31000Y15000D02*
D03*
X32500D02*
D03*
X34000D02*
D03*
Y13500D02*
D03*
X32500D02*
D03*
X31000D02*
D03*
Y12000D02*
D03*
X32500D02*
D03*
X34000D02*
D03*
X25000Y15000D02*
D03*
X26500D02*
D03*
X28000D02*
D03*
Y13500D02*
D03*
X26500D02*
D03*
X25000D02*
D03*
Y12000D02*
D03*
X26500D02*
D03*
X28000D02*
D03*
X19000Y15000D02*
D03*
X20500D02*
D03*
X22000D02*
D03*
Y13500D02*
D03*
X20500D02*
D03*
X19000D02*
D03*
Y12000D02*
D03*
X20500D02*
D03*
X22000D02*
D03*
D39*
X46025Y80650D02*
D03*
X44755Y78110D02*
D03*
X43485Y80650D02*
D03*
X42215Y78110D02*
D03*
X40945Y80650D02*
D03*
X39675Y78110D02*
D03*
X52200Y63740D02*
D03*
X54740Y62470D02*
D03*
X52200Y61200D02*
D03*
X54740Y59930D02*
D03*
D40*
X20960Y79500D02*
D03*
X26040D02*
D03*
D41*
X48450Y69025D02*
D03*
X43400Y64800D02*
D03*
X42602Y63875D02*
D03*
X42353Y65488D02*
D03*
X43215Y66350D02*
D03*
X44415Y66503D02*
D03*
X43815Y65788D02*
D03*
X45600Y62800D02*
D03*
X45600Y65100D02*
D03*
X45500Y64300D02*
D03*
X22800Y58650D02*
D03*
X26300Y58618D02*
D03*
X32900Y78000D02*
D03*
X45129Y69300D02*
D03*
X30500Y63100D02*
D03*
Y63900D02*
D03*
X28276Y73676D02*
D03*
X30400Y75100D02*
D03*
X35433Y76000D02*
D03*
X38174Y73371D02*
D03*
X36295Y74710D02*
D03*
X44600Y70377D02*
D03*
X43300Y72289D02*
D03*
X41999Y73676D02*
D03*
X41500Y61422D02*
D03*
X40100Y60797D02*
D03*
X39300Y66800D02*
D03*
X39182Y71818D02*
D03*
X34000Y77626D02*
D03*
X29500Y74752D02*
D03*
X23441Y73001D02*
D03*
X34363Y76900D02*
D03*
X34480Y61706D02*
D03*
X33595D02*
D03*
X6700Y61125D02*
D03*
X38500Y68321D02*
D03*
X50100Y64050D02*
D03*
X49700Y70200D02*
D03*
X50929Y70220D02*
D03*
X53600Y65700D02*
D03*
X53618Y66625D02*
D03*
X53600Y67568D02*
D03*
X36049Y79701D02*
D03*
X48700Y65900D02*
D03*
X40500Y62300D02*
D03*
X10600Y76500D02*
D03*
X9500D02*
D03*
X8400D02*
D03*
Y77200D02*
D03*
X9500D02*
D03*
X10600D02*
D03*
X15000Y75600D02*
D03*
X14000D02*
D03*
X13100Y75600D02*
D03*
X10500Y74275D02*
D03*
X9400D02*
D03*
X8400D02*
D03*
X37900Y77500D02*
D03*
X52200Y68900D02*
D03*
X35900Y63550D02*
D03*
X36650Y59300D02*
D03*
X23400Y61400D02*
D03*
X24973Y61574D02*
D03*
X26999Y61751D02*
D03*
X28000Y60800D02*
D03*
X29239Y63900D02*
D03*
X25075Y63650D02*
D03*
X14800Y78500D02*
D03*
X13100D02*
D03*
X20700Y63700D02*
D03*
X22011Y59800D02*
D03*
X48400Y75300D02*
D03*
X50800Y74500D02*
D03*
X43901Y76520D02*
D03*
X49600Y73300D02*
D03*
X49900Y74400D02*
D03*
X13975Y78500D02*
D03*
X39600Y62300D02*
D03*
X41500Y60600D02*
D03*
X37050Y64300D02*
D03*
X36800Y63500D02*
D03*
X44350Y61700D02*
D03*
X45300Y60849D02*
D03*
X50100Y59250D02*
D03*
D42*
X55500Y49500D02*
D03*
Y43500D02*
D03*
X45000Y24500D02*
D03*
X71000Y18500D02*
D03*
X45000D02*
D03*
X71000Y24500D02*
D03*
X14000Y43500D02*
D03*
Y49500D02*
D03*
X19000Y24500D02*
D03*
X84500Y13500D02*
D03*
X78500D02*
D03*
X72500D02*
D03*
X58500D02*
D03*
X52500D02*
D03*
X46500D02*
D03*
X32500D02*
D03*
X26500D02*
D03*
X20500D02*
D03*
X53500Y38500D02*
D03*
X47500D02*
D03*
X41500D02*
D03*
X27500D02*
D03*
X21500D02*
D03*
X15500D02*
D03*
X19000Y18500D02*
D03*
X40000Y49500D02*
D03*
X40000Y43500D02*
D03*
D43*
X34480Y59382D02*
D03*
X34833Y59736D02*
D03*
X35187Y60090D02*
D03*
X35540Y60443D02*
D03*
X35894Y60797D02*
D03*
X36247Y61150D02*
D03*
X36601Y61504D02*
D03*
X36954Y61857D02*
D03*
X37308Y62211D02*
D03*
X37661Y62564D02*
D03*
X38015Y62918D02*
D03*
X38369Y63272D02*
D03*
X38722Y63625D02*
D03*
X39076Y63979D02*
D03*
X39429Y64332D02*
D03*
X39783Y64686D02*
D03*
X40136Y65039D02*
D03*
X40490Y65393D02*
D03*
X40843Y65746D02*
D03*
X41197Y66100D02*
D03*
X41551Y66454D02*
D03*
X41904Y66807D02*
D03*
X42258Y67161D02*
D03*
X42611Y67514D02*
D03*
X42965Y67868D02*
D03*
X31793Y79040D02*
D03*
X31439Y78686D02*
D03*
X31085Y78333D02*
D03*
X30732Y77979D02*
D03*
X30378Y77626D02*
D03*
X30025Y77272D02*
D03*
X29671Y76919D02*
D03*
X29318Y76565D02*
D03*
X28964Y76212D02*
D03*
X28611Y75858D02*
D03*
X28257Y75504D02*
D03*
X27903Y75151D02*
D03*
X27550Y74797D02*
D03*
X27196Y74444D02*
D03*
X26843Y74090D02*
D03*
X26489Y73737D02*
D03*
X26136Y73383D02*
D03*
X25782Y73030D02*
D03*
X25429Y72676D02*
D03*
X25075Y72322D02*
D03*
X24721Y71969D02*
D03*
X24368Y71615D02*
D03*
X24014Y71262D02*
D03*
X23661Y70908D02*
D03*
X23307Y70555D02*
D03*
D44*
X42965D02*
D03*
X42611Y70908D02*
D03*
X42258Y71262D02*
D03*
X41904Y71615D02*
D03*
X41551Y71969D02*
D03*
X41197Y72322D02*
D03*
X40843Y72676D02*
D03*
X40490Y73030D02*
D03*
X40136Y73383D02*
D03*
X39783Y73737D02*
D03*
X39429Y74090D02*
D03*
X39076Y74444D02*
D03*
X38722Y74797D02*
D03*
X38369Y75151D02*
D03*
X38015Y75504D02*
D03*
X37661Y75858D02*
D03*
X37308Y76212D02*
D03*
X36954Y76565D02*
D03*
X36601Y76919D02*
D03*
X36247Y77272D02*
D03*
X35894Y77626D02*
D03*
X35540Y77979D02*
D03*
X35187Y78333D02*
D03*
X34833Y78686D02*
D03*
X34480Y79040D02*
D03*
X23307Y67868D02*
D03*
X23661Y67514D02*
D03*
X24014Y67161D02*
D03*
X24368Y66807D02*
D03*
X24721Y66454D02*
D03*
X25075Y66100D02*
D03*
X25429Y65746D02*
D03*
X25782Y65393D02*
D03*
X26136Y65039D02*
D03*
X26489Y64686D02*
D03*
X26843Y64332D02*
D03*
X27196Y63979D02*
D03*
X27550Y63625D02*
D03*
X27903Y63272D02*
D03*
X28257Y62918D02*
D03*
X28611Y62564D02*
D03*
X28964Y62211D02*
D03*
X29318Y61857D02*
D03*
X29671Y61504D02*
D03*
X30025Y61150D02*
D03*
X30378Y60797D02*
D03*
X30732Y60443D02*
D03*
X31085Y60090D02*
D03*
X31439Y59736D02*
D03*
X31793Y59382D02*
D03*
D45*
X37351Y78399D02*
D03*
X36149Y79601D02*
D03*
X28201Y60549D02*
D03*
X26999Y61751D02*
D03*
X41999Y73802D02*
D03*
X43201Y72600D02*
D03*
X21599Y62701D02*
D03*
X22801Y61499D02*
D03*
D46*
X52100Y75100D02*
D03*
D47*
Y74600D02*
D03*
Y74100D02*
D03*
Y73600D02*
D03*
Y73100D02*
D03*
X47700Y75100D02*
D03*
Y74600D02*
D03*
Y74100D02*
D03*
Y73600D02*
D03*
Y73100D02*
D03*
D48*
X22374Y66526D02*
D03*
X24000Y64900D02*
D03*
X22692Y63592D02*
D03*
X21066Y65218D02*
D03*
D49*
X13975Y65425D02*
D03*
X9475Y66695D02*
D03*
X13975Y67965D02*
D03*
X9475Y69235D02*
D03*
Y64155D02*
D03*
X13975Y62885D02*
D03*
X9475Y61615D02*
D03*
X13975Y60345D02*
D03*
Y70505D02*
D03*
X9475Y71775D02*
D03*
X13975Y73045D02*
D03*
X9475Y74315D02*
D03*
Y79395D02*
D03*
X13975Y78125D02*
D03*
X9475Y76855D02*
D03*
X13975Y75585D02*
D03*
M02*
