M48
;Layer_Color=9474304
;FILE_FORMAT=4:3
METRIC,TZ
;TYPE=PLATED
T1F00S00C0.300
T2F00S00C0.500
T3F00S00C0.800
T4F00S00C1.000
T5F00S00C3.100
T6F00S00C3.300
;TYPE=NON_PLATED
T7F00S00C1.500
T8F00S00C3.000
%
T01
X6700Y61125
X8400Y74275
X9400
X9500Y76500
Y77200
X8400
Y76500
X10600
Y77200
X10500Y74275
X13100Y75600
X14000Y75600
X15000
X14800Y78500
X13975
X13100
X23441Y73001
X28276Y73676
X29500Y74752
X30400Y75100
X32900Y78000
X34000Y77626
X34363Y76900
X35433Y76000
X36295Y74710
X38174Y73371
X39182Y71818
X38500Y68321
X39300Y66800
X42353Y65488
X43215Y66350
X43815Y65788
X44415Y66503
X45600Y65100
X45500Y64300
X45600Y62800
X45300Y60849
X44350Y61700
X41500Y61422
Y60600
X40100Y60797
X40500Y62300
X39600Y62300
X36800Y63500
X35900Y63550
X37050Y64300
X34480Y61706
X33595
X30500Y63100
Y63900
X29239Y63900
X28000Y60800
X26999Y61751
X24973Y61574
X23400Y61400
X22011Y59800
X22800Y58650
X26300Y58618
X25075Y63650
X20700Y63700
X36650Y59300
X42602Y63875
X43400Y64800
X45129Y69300
X44600Y70377
X43300Y72289
X41999Y73676
X43901Y76520
X48400Y75300
X48450Y69025
X48700Y65900
X37900Y77500
X36049Y79701
X49900Y74400
X50800Y74500
X49600Y73300
X49700Y70200
X50929Y70220
X52200Y68900
X53600Y67568
X53618Y66625
X53600Y65700
X50100Y64050
Y59250
T02
X90000Y34500
Y35500
Y36500
Y37500
Y39500
Y40500
Y41500
Y42500
Y44500
Y45500
Y46500
Y47500
X89000
X88000
Y46500
Y45500
Y44500
X89000
Y45500
Y46500
Y42500
X88000
Y41500
Y40500
Y39500
X89000
Y40500
Y41500
Y37500
Y36500
Y35500
X88000
Y36500
Y37500
Y34500
X89000
X72000Y38500
Y39500
Y40500
X71000
Y39500
X70000
Y40500
Y41500
X71000
X72000
Y43500
Y44500
Y45500
Y46500
X71000
X70000
Y45500
Y44500
Y43500
X71000
Y44500
Y45500
Y48500
X72000
X70000
Y38500
X71000
X9175Y60200
X68000Y63500
X69000
X70000
Y64500
Y65500
Y66500
X69000
X68000
Y65500
Y64500
X69000
Y65500
Y68500
X70000
Y69500
Y70500
Y71500
X69000
X68000
Y70500
Y69500
Y68500
X69000Y69500
Y70500
Y73500
Y74500
Y75500
X70000
Y74500
Y73500
X68000
Y74500
Y75500
Y76500
X69000
X70000
X88000
X89000
Y77500
Y78500
Y79500
X88000
Y78500
Y77500
Y74500
X89000
Y73500
Y72500
Y71500
X88000
Y72500
Y73500
Y69500
Y68500
Y67500
X89000
Y68500
Y69500
Y66500
X88000
X72000Y51500
X71000
X70000
Y50500
Y49500
X71000
Y50500
X72000
Y49500
X90000Y66500
Y67500
Y68500
Y69500
Y71500
Y72500
Y73500
Y74500
Y76500
Y77500
Y78500
Y79500
T03
X20960Y79500
X26040
X39675Y78110
X42215
X44755
X46025Y80650
X43485
X40945
X52200Y63740
Y61200
X54740Y62470
Y59930
T04
X51000Y12000
Y13500
Y15000
X52500
Y13500
Y12000
X54000
Y13500
Y15000
X57000
X58500
Y13500
X57000
Y12000
X58500
X60000
Y13500
Y15000
X60500Y17000
X62500Y19000
X60500Y21000
Y23000
X62500Y25000
X58500
X60500Y27000
X56500
X52500
X54500Y25000
X52500Y23000
Y21000
Y17000
X54500Y19000
X50500
Y25000
X56500Y23000
Y21000
Y17000
X58500Y19000
X69500Y18500
Y20000
X71000
Y18500
X72500
Y20000
Y23000
X71000
X69500
Y24500
Y26000
X71000
Y24500
X72500
Y26000
Y17000
X71000
X69500
X71000Y15000
X72500
Y13500
X71000
Y12000
X72500
X74000
Y13500
Y15000
X77000
X78500
Y13500
X77000
Y12000
X78500
X80000
Y13500
Y15000
X83000
X84500
Y13500
X83000
Y12000
X84500
X86000
Y13500
Y15000
X55000Y37000
Y38500
Y40000
X53500
Y38500
Y37000
X52000
Y38500
Y40000
X54000Y42000
X55500
X57000
Y43500
Y45000
X55500
X54000
Y43500
X55500
Y48000
X54000
X57000
X49500Y48000
Y46000
X51500Y44000
X49500Y42000
X49000Y40000
X47500
Y38500
X49000
Y37000
X47500
X46000
Y38500
X46000Y40000
X45500Y42000
X41500
X40000
X38500
Y43500
X40000
X41500
Y45000
X40000
X38500
X38500Y48000
X40000
X41500
X45500
Y46000
X47500Y44000
X43500
X43000Y40000
Y38500
X41500
X40000
Y40000
X41500
Y37000
X43000
X40000
X29000Y37000
Y38500
Y40000
X27500
X26000
Y38500
X27500
Y37000
X26000
X23000
Y38500
Y40000
X21500
X20000
Y38500
X21500
Y37000
X20000
X17000
Y38500
Y40000
X15500
X14000
Y38500
X15500
Y37000
X14000
Y42000
X12500
Y43500
X14000
X15500
Y45000
X14000
X12500
Y48000
X14000
X15500
X19500
Y46000
X17500Y44000
X15500Y42000
X19500
X23500
X21500Y44000
X23500Y46000
Y48000
X27500
Y46000
X25500Y44000
X27500Y42000
X31500
X29500Y44000
X31500Y46000
Y48000
X30500Y27000
X34500
X36500Y25000
X32500
X34500Y23000
Y21000
X36500Y19000
X32500
X34500Y17000
X34000Y15000
Y13500
Y12000
X32500
Y13500
Y15000
X31000
Y13500
Y12000
X28000
Y13500
Y15000
X26500
X25000
Y13500
X26500
Y12000
X25000
X22000
Y13500
Y15000
X20500
X19000
Y13500
X20500
Y12000
X19000
Y17000
Y18500
Y20000
X17500
Y18500
Y17000
X20500
Y18500
Y20000
Y23000
X19000
X17500
Y24500
X19000
Y26000
X20500
Y24500
X22500Y23000
Y21000
Y17000
X24500Y19000
X26500Y17000
X30500
X28500Y19000
X30500Y21000
Y23000
X26500
Y21000
X24500Y25000
X26500Y27000
X22500
X17500Y26000
X28500Y25000
X43500Y24500
Y26000
X45000
Y24500
X46500
Y26000
X48500Y27000
Y23000
X46500
X45000
X43500
Y20000
Y18500
X45000
X46500
Y20000
X45000
Y17000
X43500
X46500
X48500Y17000
X48000Y15000
Y13500
Y12000
X46500
Y13500
Y15000
X45000
Y13500
Y12000
X48500Y21000
X47500Y50000
X45500Y52000
X43500Y50000
X41500Y49500
X40000
X38500
Y51000
X40000
X41500
X31500Y52000
X29500Y50000
X27500Y52000
X25500Y50000
X23500Y52000
X21500Y50000
X19500Y52000
X17500Y50000
X15500Y49500
X14000
X12500
Y51000
X14000
X15500
X49500Y52000
X51500Y50000
X54000Y49500
Y51000
X55500
X57000
Y49500
X55500
T05
X60500Y43500
X8500Y24500
Y18500
X60500Y49500
X79600Y68000
Y73000
Y78000
X80000Y90600
X75000
X70000
X53000
X48000
X43000
X26000
X21000
X16000
T06
X20500Y9000
X26500
X32500
X46500
X52500
X58500
X72500
X78500
X84500
X96000Y36000
Y41000
Y46000
X78000Y45000
Y40000
X65975Y24500
Y18500
X53500Y34000
X47500
X41500
X39975Y24500
Y18500
X13975
Y24500
X15500Y34000
X21500
X27500
X34975Y43500
X8975
Y49500
X34975
X62000Y65000
Y70000
Y75000
X78000Y50000
X96000Y68000
Y73000
Y78000
T07
X38275Y79910
X52940Y58530
T08
X3000Y3000
X97000
X96000Y30000
X85000Y25000
X78000Y34000
X66000Y13000
X40000
X14000
X35000Y38000
X9000
X62000Y59000
X78000Y56000
X62000Y81000
X53000Y79000
X96000Y84000
Y62000
Y52000
X97000Y97000
X3000
M30
