G04*
G04 #@! TF.GenerationSoftware,Altium Limited,Altium Designer,18.1.7 (191)*
G04*
G04 Layer_Color=8388736*
%FSLAX43Y43*%
%MOMM*%
G71*
G01*
G75*
%ADD54R,3.203X4.203*%
%ADD55O,0.503X1.703*%
%ADD56R,0.503X1.703*%
%ADD57R,1.703X0.503*%
G04:AMPARAMS|DCode=58|XSize=1.203mm|YSize=1.103mm|CornerRadius=0.214mm|HoleSize=0mm|Usage=FLASHONLY|Rotation=0.000|XOffset=0mm|YOffset=0mm|HoleType=Round|Shape=RoundedRectangle|*
%AMROUNDEDRECTD58*
21,1,1.203,0.675,0,0,0.0*
21,1,0.775,1.103,0,0,0.0*
1,1,0.428,0.388,-0.338*
1,1,0.428,-0.388,-0.338*
1,1,0.428,-0.388,0.338*
1,1,0.428,0.388,0.338*
%
%ADD58ROUNDEDRECTD58*%
G04:AMPARAMS|DCode=59|XSize=1.203mm|YSize=1.103mm|CornerRadius=0.214mm|HoleSize=0mm|Usage=FLASHONLY|Rotation=135.000|XOffset=0mm|YOffset=0mm|HoleType=Round|Shape=RoundedRectangle|*
%AMROUNDEDRECTD59*
21,1,1.203,0.675,0,0,135.0*
21,1,0.775,1.103,0,0,135.0*
1,1,0.428,-0.035,0.513*
1,1,0.428,0.513,-0.035*
1,1,0.428,0.035,-0.513*
1,1,0.428,-0.513,0.035*
%
%ADD59ROUNDEDRECTD59*%
G04:AMPARAMS|DCode=60|XSize=1.203mm|YSize=1.103mm|CornerRadius=0.214mm|HoleSize=0mm|Usage=FLASHONLY|Rotation=90.000|XOffset=0mm|YOffset=0mm|HoleType=Round|Shape=RoundedRectangle|*
%AMROUNDEDRECTD60*
21,1,1.203,0.675,0,0,90.0*
21,1,0.775,1.103,0,0,90.0*
1,1,0.428,0.338,0.388*
1,1,0.428,0.338,-0.388*
1,1,0.428,-0.338,-0.388*
1,1,0.428,-0.338,0.388*
%
%ADD60ROUNDEDRECTD60*%
%ADD61R,0.803X1.753*%
%ADD62O,0.803X1.753*%
%ADD63R,1.203X1.103*%
%ADD64R,1.703X3.203*%
%ADD65R,1.203X1.103*%
G04:AMPARAMS|DCode=66|XSize=1.003mm|YSize=1.003mm|CornerRadius=0.202mm|HoleSize=0mm|Usage=FLASHONLY|Rotation=225.000|XOffset=0mm|YOffset=0mm|HoleType=Round|Shape=RoundedRectangle|*
%AMROUNDEDRECTD66*
21,1,1.003,0.600,0,0,225.0*
21,1,0.600,1.003,0,0,225.0*
1,1,0.403,-0.424,0.000*
1,1,0.403,0.000,0.424*
1,1,0.403,0.424,0.000*
1,1,0.403,0.000,-0.424*
%
%ADD66ROUNDEDRECTD66*%
G04:AMPARAMS|DCode=67|XSize=2.503mm|YSize=2.003mm|CornerRadius=0.327mm|HoleSize=0mm|Usage=FLASHONLY|Rotation=90.000|XOffset=0mm|YOffset=0mm|HoleType=Round|Shape=RoundedRectangle|*
%AMROUNDEDRECTD67*
21,1,2.503,1.350,0,0,90.0*
21,1,1.850,2.003,0,0,90.0*
1,1,0.653,0.675,0.925*
1,1,0.653,0.675,-0.925*
1,1,0.653,-0.675,-0.925*
1,1,0.653,-0.675,0.925*
%
%ADD67ROUNDEDRECTD67*%
G04:AMPARAMS|DCode=68|XSize=0.803mm|YSize=0.903mm|CornerRadius=0.177mm|HoleSize=0mm|Usage=FLASHONLY|Rotation=270.000|XOffset=0mm|YOffset=0mm|HoleType=Round|Shape=RoundedRectangle|*
%AMROUNDEDRECTD68*
21,1,0.803,0.550,0,0,270.0*
21,1,0.450,0.903,0,0,270.0*
1,1,0.353,-0.275,-0.225*
1,1,0.353,-0.275,0.225*
1,1,0.353,0.275,0.225*
1,1,0.353,0.275,-0.225*
%
%ADD68ROUNDEDRECTD68*%
%ADD69R,1.203X2.353*%
%ADD70R,3.453X2.353*%
G04:AMPARAMS|DCode=71|XSize=2.003mm|YSize=1.353mm|CornerRadius=0.245mm|HoleSize=0mm|Usage=FLASHONLY|Rotation=180.000|XOffset=0mm|YOffset=0mm|HoleType=Round|Shape=RoundedRectangle|*
%AMROUNDEDRECTD71*
21,1,2.003,0.863,0,0,180.0*
21,1,1.513,1.353,0,0,180.0*
1,1,0.491,-0.756,0.431*
1,1,0.491,0.756,0.431*
1,1,0.491,0.756,-0.431*
1,1,0.491,-0.756,-0.431*
%
%ADD71ROUNDEDRECTD71*%
G04:AMPARAMS|DCode=72|XSize=1.003mm|YSize=1.003mm|CornerRadius=0.202mm|HoleSize=0mm|Usage=FLASHONLY|Rotation=90.000|XOffset=0mm|YOffset=0mm|HoleType=Round|Shape=RoundedRectangle|*
%AMROUNDEDRECTD72*
21,1,1.003,0.600,0,0,90.0*
21,1,0.600,1.003,0,0,90.0*
1,1,0.403,0.300,0.300*
1,1,0.403,0.300,-0.300*
1,1,0.403,-0.300,-0.300*
1,1,0.403,-0.300,0.300*
%
%ADD72ROUNDEDRECTD72*%
G04:AMPARAMS|DCode=73|XSize=2.503mm|YSize=2.003mm|CornerRadius=0.327mm|HoleSize=0mm|Usage=FLASHONLY|Rotation=180.000|XOffset=0mm|YOffset=0mm|HoleType=Round|Shape=RoundedRectangle|*
%AMROUNDEDRECTD73*
21,1,2.503,1.350,0,0,180.0*
21,1,1.850,2.003,0,0,180.0*
1,1,0.653,-0.925,0.675*
1,1,0.653,0.925,0.675*
1,1,0.653,0.925,-0.675*
1,1,0.653,-0.925,-0.675*
%
%ADD73ROUNDEDRECTD73*%
%ADD74C,0.203*%
G04:AMPARAMS|DCode=75|XSize=4.703mm|YSize=4.703mm|CornerRadius=1.227mm|HoleSize=0mm|Usage=FLASHONLY|Rotation=0.000|XOffset=0mm|YOffset=0mm|HoleType=Round|Shape=RoundedRectangle|*
%AMROUNDEDRECTD75*
21,1,4.703,2.250,0,0,0.0*
21,1,2.250,4.703,0,0,0.0*
1,1,2.453,1.125,-1.125*
1,1,2.453,-1.125,-1.125*
1,1,2.453,-1.125,1.125*
1,1,2.453,1.125,1.125*
%
%ADD75ROUNDEDRECTD75*%
G04:AMPARAMS|DCode=76|XSize=4.703mm|YSize=4.703mm|CornerRadius=1.227mm|HoleSize=0mm|Usage=FLASHONLY|Rotation=90.000|XOffset=0mm|YOffset=0mm|HoleType=Round|Shape=RoundedRectangle|*
%AMROUNDEDRECTD76*
21,1,4.703,2.250,0,0,90.0*
21,1,2.250,4.703,0,0,90.0*
1,1,2.453,1.125,1.125*
1,1,2.453,1.125,-1.125*
1,1,2.453,-1.125,-1.125*
1,1,2.453,-1.125,1.125*
%
%ADD76ROUNDEDRECTD76*%
G04:AMPARAMS|DCode=77|XSize=4.7mm|YSize=4.7mm|CornerRadius=1.225mm|HoleSize=0mm|Usage=FLASHONLY|Rotation=0.000|XOffset=0mm|YOffset=0mm|HoleType=Round|Shape=RoundedRectangle|*
%AMROUNDEDRECTD77*
21,1,4.700,2.250,0,0,0.0*
21,1,2.250,4.700,0,0,0.0*
1,1,2.450,1.125,-1.125*
1,1,2.450,-1.125,-1.125*
1,1,2.450,-1.125,1.125*
1,1,2.450,1.125,1.125*
%
%ADD77ROUNDEDRECTD77*%
%ADD78C,0.200*%
%ADD79C,1.503*%
%ADD80C,1.703*%
D54*
X89000Y36000D02*
D03*
Y41000D02*
D03*
Y46000D02*
D03*
X71000Y40000D02*
D03*
Y45000D02*
D03*
Y50000D02*
D03*
X89000Y68000D02*
D03*
Y73000D02*
D03*
Y78000D02*
D03*
X69000Y75000D02*
D03*
Y70000D02*
D03*
Y65000D02*
D03*
D55*
X39850Y59075D02*
D03*
D56*
X40350D02*
D03*
X40850D02*
D03*
X41350D02*
D03*
X41850D02*
D03*
X42350D02*
D03*
X42850D02*
D03*
X43350D02*
D03*
X43850D02*
D03*
X44350D02*
D03*
X44850D02*
D03*
X45350D02*
D03*
Y67675D02*
D03*
X44850D02*
D03*
X44350D02*
D03*
X43850D02*
D03*
X43350D02*
D03*
X42850D02*
D03*
X42350D02*
D03*
X41850D02*
D03*
X41350D02*
D03*
X40850D02*
D03*
X40350D02*
D03*
X39850D02*
D03*
D57*
X46900Y60625D02*
D03*
Y61125D02*
D03*
Y61625D02*
D03*
Y62125D02*
D03*
Y62625D02*
D03*
Y63125D02*
D03*
Y63625D02*
D03*
Y64125D02*
D03*
Y64625D02*
D03*
Y65125D02*
D03*
Y65625D02*
D03*
Y66125D02*
D03*
X38300D02*
D03*
Y65625D02*
D03*
Y65125D02*
D03*
Y64625D02*
D03*
Y64125D02*
D03*
Y63625D02*
D03*
Y63125D02*
D03*
Y62625D02*
D03*
Y62125D02*
D03*
Y61625D02*
D03*
Y61125D02*
D03*
Y60625D02*
D03*
D58*
X29770Y78050D02*
D03*
Y79750D02*
D03*
X44271Y74450D02*
D03*
Y76150D02*
D03*
X47100Y73465D02*
D03*
Y75165D02*
D03*
X47200Y57900D02*
D03*
Y59600D02*
D03*
X48700Y65875D02*
D03*
Y67575D02*
D03*
X45729Y74450D02*
D03*
Y76150D02*
D03*
X34300Y78050D02*
D03*
Y79750D02*
D03*
X9000Y58400D02*
D03*
Y60100D02*
D03*
X36600Y60350D02*
D03*
Y62050D02*
D03*
X35700Y63550D02*
D03*
Y65250D02*
D03*
X48700Y62950D02*
D03*
Y64650D02*
D03*
X50100Y64150D02*
D03*
Y62450D02*
D03*
Y60825D02*
D03*
Y59125D02*
D03*
X47300Y66950D02*
D03*
Y68650D02*
D03*
X48700Y58550D02*
D03*
Y60250D02*
D03*
D59*
X36899Y71899D02*
D03*
X38101Y73101D02*
D03*
X35101Y76101D02*
D03*
X33899Y74899D02*
D03*
X36601Y74601D02*
D03*
X35399Y73399D02*
D03*
D60*
X31150Y79700D02*
D03*
X32850D02*
D03*
X32869Y78300D02*
D03*
X31169D02*
D03*
X41250Y76100D02*
D03*
X42950D02*
D03*
X26673Y61574D02*
D03*
X24973D02*
D03*
X42050Y71200D02*
D03*
X43750D02*
D03*
X38350Y67225D02*
D03*
X36650D02*
D03*
X42395Y69375D02*
D03*
X44095D02*
D03*
D61*
X48435Y69400D02*
D03*
D62*
X49705D02*
D03*
X50975D02*
D03*
X52245D02*
D03*
X48435Y74800D02*
D03*
X49705D02*
D03*
X50975D02*
D03*
X52245D02*
D03*
D63*
X40826Y71200D02*
D03*
Y69100D02*
D03*
X38926D02*
D03*
Y71200D02*
D03*
D64*
X16505Y60500D02*
D03*
X15235Y65000D02*
D03*
X13965Y60500D02*
D03*
X12695Y65000D02*
D03*
X17775D02*
D03*
X19045Y60500D02*
D03*
X20315Y65000D02*
D03*
X21585Y60500D02*
D03*
D65*
X26675Y67750D02*
D03*
Y63650D02*
D03*
X25075Y67750D02*
D03*
Y63650D02*
D03*
D66*
X36101Y71101D02*
D03*
X34899Y69899D02*
D03*
X33399Y71399D02*
D03*
X34601Y72601D02*
D03*
X31899Y72899D02*
D03*
X33101Y74101D02*
D03*
D67*
X27200Y59500D02*
D03*
X24300D02*
D03*
D68*
X11600Y60800D02*
D03*
Y58300D02*
D03*
D69*
X14000Y74625D02*
D03*
X11700D02*
D03*
X9400D02*
D03*
D70*
X11700Y68775D02*
D03*
D71*
X7400Y77000D02*
D03*
Y74000D02*
D03*
X16200Y72400D02*
D03*
Y75400D02*
D03*
D72*
X7500Y60100D02*
D03*
Y58400D02*
D03*
D73*
X34100Y58350D02*
D03*
Y61250D02*
D03*
D74*
X3000Y97000D02*
D03*
X97000D02*
D03*
Y3000D02*
D03*
X3000D02*
D03*
X96000Y52000D02*
D03*
Y30000D02*
D03*
X78000Y56000D02*
D03*
Y34000D02*
D03*
X96000Y84000D02*
D03*
Y62000D02*
D03*
X62000Y59000D02*
D03*
Y81000D02*
D03*
X38275Y79910D02*
D03*
X53000Y79000D02*
D03*
X52940Y58530D02*
D03*
D75*
X16000Y90600D02*
D03*
X21000D02*
D03*
X26000D02*
D03*
X43000D02*
D03*
X48000D02*
D03*
X53000D02*
D03*
X70000D02*
D03*
X75000D02*
D03*
X80000D02*
D03*
D76*
X79600Y68000D02*
D03*
Y73000D02*
D03*
Y78000D02*
D03*
X96000Y36000D02*
D03*
Y41000D02*
D03*
Y46000D02*
D03*
X78000Y40000D02*
D03*
Y45000D02*
D03*
Y50000D02*
D03*
X96000Y68000D02*
D03*
Y73000D02*
D03*
Y78000D02*
D03*
X62000Y75000D02*
D03*
Y70000D02*
D03*
Y65000D02*
D03*
D77*
X60500Y49500D02*
D03*
Y43500D02*
D03*
X8500Y24500D02*
D03*
Y18500D02*
D03*
X65975D02*
D03*
Y24500D02*
D03*
X34975Y43500D02*
D03*
X8975Y49500D02*
D03*
X39975Y18500D02*
D03*
Y24500D02*
D03*
X8975Y43500D02*
D03*
X34975Y49500D02*
D03*
X13975Y18500D02*
D03*
Y24500D02*
D03*
X27500Y34000D02*
D03*
X53500D02*
D03*
X32500Y9000D02*
D03*
X58500D02*
D03*
X84500D02*
D03*
X21500Y34000D02*
D03*
X47500D02*
D03*
X26500Y9000D02*
D03*
X52500D02*
D03*
X78500D02*
D03*
X15500Y34000D02*
D03*
X41500D02*
D03*
X20500Y9000D02*
D03*
X46500D02*
D03*
X72500D02*
D03*
D78*
X85000Y25000D02*
D03*
X35000Y38000D02*
D03*
X9000D02*
D03*
X66000Y13000D02*
D03*
X40000D02*
D03*
X14000D02*
D03*
D79*
X46025Y80650D02*
D03*
X44755Y78110D02*
D03*
X43485Y80650D02*
D03*
X42215Y78110D02*
D03*
X40945Y80650D02*
D03*
X39675Y78110D02*
D03*
X52200Y63740D02*
D03*
X54740Y62470D02*
D03*
X52200Y61200D02*
D03*
X54740Y59930D02*
D03*
D80*
X20960Y79500D02*
D03*
X26040D02*
D03*
M02*
